<?xml version="1.0" encoding="UTF-8"?>
<!DOCTYPE svg PUBLIC "-//W3C//DTD SVG 1.1//EN" "http://www.w3.org/Graphics/SVG/1.1/DTD/svg11.dtd">
<!-- Creator: CorelDRAW 2020 (64 Bit) -->
<svg xmlns="http://www.w3.org/2000/svg" xml:space="preserve" width="21.2859mm" height="21.2859mm" version="1.1" style="shape-rendering:geometricPrecision; text-rendering:geometricPrecision; image-rendering:optimizeQuality; fill-rule:evenodd; clip-rule:evenodd"
viewBox="0 0 672.11 672.11"
 xmlns:xlink="http://www.w3.org/1999/xlink"
 xmlns:xodm="http://www.corel.com/coreldraw/odm/2003">
 <defs>
  <style type="text/css">
   <![CDATA[
    .fil0 {fill:#FEFEFE}
    .fil1 {fill:#373435;fill-rule:nonzero}
   ]]>
  </style>
 </defs>
 <g id="Camada_x0020_1">
  <metadata id="CorelCorpID_0Corel-Layer"/>
  <circle class="fil0" cx="336.06" cy="336.06" r="336.06"/>
  <path class="fil1" d="M122.93 460.45l0 -233.92 112.62 0c21.83,0 40.71,3.56 56.64,10.69 15.93,7.13 28.24,17.32 36.92,30.57 8.69,13.26 13.03,28.91 13.03,46.95 0,18.05 -4.34,33.64 -13.03,46.78 -8.69,13.14 -20.99,23.34 -36.92,30.58 -15.93,7.24 -34.81,10.86 -56.64,10.86l-68.84 0 35.09 -33.75 0 91.23 -78.87 0zm78.87 -82.54l-35.09 -35.76 63.83 0c10.92,0 18.99,-2.45 24.23,-7.35 5.24,-4.9 7.85,-11.59 7.85,-20.05 0,-8.47 -2.62,-15.15 -7.85,-20.05 -5.24,-4.9 -13.31,-7.35 -24.23,-7.35l-63.83 0 35.09 -35.76 0 126.32z"/>
  <path id="1" class="fil1" d="M359.86 420.35l0 -50.13 99.25 -143.69 80.87 0 -95.57 143.69 -36.76 -11.03 181.12 0 0 61.15 -228.91 0zm121.31 40.1l0 -40.1 2.34 -61.15 0 -35.76 74.19 0 0 137.01 -76.52 0z"/>
 </g>
</svg>
