<?xml version="1.0" encoding="UTF-8"?>
<!DOCTYPE svg PUBLIC "-//W3C//DTD SVG 1.1//EN" "http://www.w3.org/Graphics/SVG/1.1/DTD/svg11.dtd">
<!-- Creator: CorelDRAW 2020 (64 Bit) -->
<svg xmlns="http://www.w3.org/2000/svg" xml:space="preserve" width="21.2858mm" height="21.2859mm" version="1.1" style="shape-rendering:geometricPrecision; text-rendering:geometricPrecision; image-rendering:optimizeQuality; fill-rule:evenodd; clip-rule:evenodd"
viewBox="0 0 509.81 509.82"
 xmlns:xlink="http://www.w3.org/1999/xlink"
 xmlns:xodm="http://www.corel.com/coreldraw/odm/2003">
 <defs>
  <style type="text/css">
   <![CDATA[
    .fil0 {fill:#FEFEFE}
    .fil1 {fill:#373435;fill-rule:nonzero}
   ]]>
  </style>
 </defs>
 <g id="Camada_x0020_1">
  <metadata id="CorelCorpID_0Corel-Layer"/>
  <circle class="fil0" cx="254.91" cy="254.91" r="254.91"/>
  <path class="fil1" d="M126.97 346.67l0 -177.44 85.42 0c16.56,0 30.88,2.7 42.97,8.11 12.08,5.41 21.42,13.14 28.01,23.19 6.59,10.05 9.89,21.93 9.89,35.62 0,13.69 -3.3,25.52 -9.89,35.49 -6.59,9.97 -15.92,17.7 -28.01,23.19 -12.08,5.49 -26.4,8.24 -42.97,8.24l-52.22 0 26.61 -25.6 0 69.2 -59.82 0zm59.82 -62.61l-26.61 -27.12 48.41 0c8.28,0 14.41,-1.86 18.38,-5.58 3.97,-3.72 5.96,-8.79 5.96,-15.21 0,-6.42 -1.99,-11.49 -5.96,-15.21 -3.97,-3.72 -10.1,-5.58 -18.38,-5.58l-48.41 0 26.61 -27.12 0 95.82z"/>
  <polygon id="1" class="fil1" points="332.54,346.67 332.54,190.02 358.14,214.35 302.12,214.35 302.12,169.23 392.36,169.23 392.36,346.67 "/>
 </g>
</svg>
