<?xml version="1.0" encoding="UTF-8"?>
<!DOCTYPE svg PUBLIC "-//W3C//DTD SVG 1.1//EN" "http://www.w3.org/Graphics/SVG/1.1/DTD/svg11.dtd">
<!-- Creator: CorelDRAW 2020 (64 Bit) -->
<svg xmlns="http://www.w3.org/2000/svg" xml:space="preserve" width="21.2859mm" height="21.2859mm" version="1.1" style="shape-rendering:geometricPrecision; text-rendering:geometricPrecision; image-rendering:optimizeQuality; fill-rule:evenodd; clip-rule:evenodd"
viewBox="0 0 2920.9 2920.9"
 xmlns:xlink="http://www.w3.org/1999/xlink"
 xmlns:xodm="http://www.corel.com/coreldraw/odm/2003">
 <defs>
  <style type="text/css">
   <![CDATA[
    .fil0 {fill:#FEFEFE}
    .fil1 {fill:#373435;fill-rule:nonzero}
   ]]>
  </style>
 </defs>
 <g id="Camada_x0020_1">
  <metadata id="CorelCorpID_0Corel-Layer"/>
  <circle class="fil0" cx="1460.45" cy="1460.44" r="1460.45"/>
  <path class="fil1" d="M623.4 2001.03l0 -1016.58 489.42 0c94.89,0 176.93,15.49 246.16,46.48 69.23,30.97 122.72,75.27 160.47,132.87 37.76,57.61 56.65,125.63 56.65,204.05 0,78.42 -18.88,146.2 -56.65,203.31 -37.75,57.13 -91.24,101.42 -160.47,132.89 -69.23,31.47 -151.27,47.2 -246.16,47.2l-299.16 0 152.48 -146.68 0 396.46 -342.74 0zm342.74 -358.71l-152.48 -155.39 277.38 0c47.44,0 82.54,-10.65 105.29,-31.95 22.75,-21.3 34.13,-50.35 34.13,-87.14 0,-36.79 -11.38,-65.84 -34.13,-87.14 -22.75,-21.3 -57.85,-31.95 -105.29,-31.95l-277.38 0 152.48 -155.4 0 548.96z"/>
  <path id="1" class="fil1" d="M2011.77 2024.26c-69.71,0 -140.39,-7.74 -212.04,-23.23 -71.64,-15.49 -134.57,-38.24 -188.79,-68.25l116.19 -252.69c43.57,25.17 89.3,43.82 137.24,55.9 47.92,12.1 93.19,18.15 135.78,18.15 38.72,0 70.44,-6.53 95.12,-19.6 24.69,-13.08 37.04,-32.69 37.04,-58.83 0,-22.26 -9.19,-39.45 -27.6,-51.55 -18.39,-12.1 -49.37,-18.15 -92.94,-18.15l-135.07 0 0 -210.57 262.86 -267.23 30.5 114.73 -506.84 0 0 -258.5 758.08 0 0 210.58 -262.86 267.21 -164.1 -92.94 90.05 0c127.79,0 225.1,28.56 291.9,85.68 66.8,57.13 100.2,130.7 100.2,220.74 0,58.1 -16.21,113.77 -48.65,167.01 -32.44,53.26 -82.77,96.82 -151.04,130.7 -68.25,33.89 -156.6,50.83 -265.03,50.83z"/>
 </g>
</svg>
