<?xml version="1.0" encoding="UTF-8"?>
<!DOCTYPE svg PUBLIC "-//W3C//DTD SVG 1.1//EN" "http://www.w3.org/Graphics/SVG/1.1/DTD/svg11.dtd">
<!-- Creator: CorelDRAW 2020 (64 Bit) -->
<svg xmlns="http://www.w3.org/2000/svg" xml:space="preserve" width="71.8259mm" height="28.8397mm" version="1.1" style="shape-rendering:geometricPrecision; text-rendering:geometricPrecision; image-rendering:optimizeQuality; fill-rule:evenodd; clip-rule:evenodd"
viewBox="0 0 7949.63 3191.95"
 xmlns:xlink="http://www.w3.org/1999/xlink"
 xmlns:xodm="http://www.corel.com/coreldraw/odm/2003">
 <defs>
  <style type="text/css">
   <![CDATA[
    .fil1 {fill:#EE4C89}
    .fil0 {fill:#BB335E}
    .fil4 {fill:#FEFEFE;fill-rule:nonzero}
    .fil2 {fill:#D64E81;fill-rule:nonzero}
    .fil3 {fill:#95ADBA;fill-rule:nonzero}
   ]]>
  </style>
 </defs>
 <g id="Camada_x0020_1">
  <metadata id="CorelCorpID_0Corel-Layer"/>
  <g id="_2951512274160">
   <path class="fil0" d="M216.79 33.6l7516.06 0c119.23,0 216.79,171.02 216.79,380.02l0 2398.33c0,208.98 -97.56,380.01 -216.79,380.01l-7516.06 0c-119.22,0 -216.79,-171 -216.79,-380.01l0 -2398.33c0,-209.02 97.55,-380.02 216.79,-380.02z"/>
   <path class="fil1" d="M247.29 0l7486.4 0c118.77,0 215.94,154.85 215.94,344.09l0 2171.62c0,189.24 -97.18,344.09 -215.94,344.09l-7486.4 0c-118.76,0 -215.94,-154.84 -215.94,-344.09l0 -2171.62c0,-189.25 97.17,-344.09 215.94,-344.09z"/>
   <path class="fil2" d="M1308.74 2248.69c-84.48,0 -160.73,-13.65 -228.73,-40.95 -68,-27.3 -124.67,-67.23 -170,-119.78l196.28 -231.83c28.84,35.03 57.18,61.57 85,79.6 27.81,18.03 56.67,27.04 86.54,27.04 78.31,0 117.46,-44.81 117.46,-134.45l0 -411.11 -367.83 0 0 -275.09 727.93 0 0 664.56c0,148.37 -38.12,259.12 -114.36,332.28 -76.25,73.15 -187,109.73 -332.28,109.73z"/>
   <path id="1" class="fil2" d="M2491.04 2248.69c-88.61,0 -170.27,-13.91 -244.97,-41.73 -74.7,-27.81 -139.35,-67.23 -193.95,-118.23 -54.61,-51 -97.11,-111.02 -127.5,-180.05 -30.39,-69.03 -45.6,-144.25 -45.6,-225.64 0,-82.42 15.21,-157.89 45.6,-226.42 30.39,-68.51 72.89,-128.28 127.5,-179.28 54.61,-51 119.26,-90.4 193.95,-118.23 74.7,-27.81 155.84,-41.73 243.42,-41.73 88.61,0 170,13.91 244.19,41.73 74.18,27.82 138.58,67.23 193.18,118.23 54.61,51 97.11,110.77 127.5,179.28 30.4,68.52 45.6,143.99 45.6,226.42 0,81.39 -15.2,156.61 -45.6,225.64 -30.39,69.03 -72.89,129.05 -127.5,180.05 -54.6,51 -119,90.41 -193.18,118.23 -74.19,27.81 -155.07,41.73 -242.64,41.73zm-1.55 -295.18c34,0 65.69,-6.19 95.05,-18.55 29.36,-12.36 55.12,-30.14 77.28,-53.33 22.15,-23.18 39.4,-51.51 51.76,-85 12.37,-33.48 18.55,-71.34 18.55,-113.59 0,-42.25 -6.18,-80.11 -18.55,-113.59 -12.36,-33.49 -29.62,-61.83 -51.76,-85 -22.16,-23.19 -47.91,-40.96 -77.28,-53.33 -29.36,-12.36 -61.05,-18.54 -95.05,-18.54 -34,0 -65.68,6.18 -95.05,18.54 -29.36,12.36 -55.12,30.14 -77.27,53.33 -22.16,23.18 -39.41,51.51 -51.78,85 -12.36,33.48 -18.55,71.34 -18.55,113.59 0,42.25 6.19,80.11 18.55,113.59 12.36,33.49 29.62,61.83 51.78,85 22.15,23.19 47.9,40.96 77.27,53.33 29.37,12.36 61.05,18.55 95.05,18.55z"/>
   <path id="2" class="fil2" d="M3793.89 2248.69c-87.58,0 -168.21,-13.65 -241.88,-40.95 -73.67,-27.3 -137.54,-66.2 -191.64,-116.69 -54.09,-50.48 -96.07,-110.25 -125.95,-179.28 -29.88,-69.03 -44.83,-145.28 -44.83,-228.73 0,-83.45 14.94,-159.7 44.83,-228.73 29.88,-69.03 72.12,-128.8 126.73,-179.28 54.61,-50.49 119.27,-89.38 193.97,-116.69 74.7,-27.3 156.87,-40.95 246.5,-40.95 107.15,0 202.71,18.03 286.68,54.09 83.97,36.06 153.27,87.58 207.88,154.55l-233.38 205.55c-34,-39.16 -70.83,-68.78 -110.5,-88.88 -39.67,-20.09 -83.71,-30.13 -132.14,-30.13 -40.18,0 -76.5,6.18 -108.95,18.54 -32.45,12.36 -60.02,30.39 -82.69,54.1 -22.67,23.7 -40.18,52.03 -52.54,85 -12.36,32.96 -18.55,70.57 -18.55,112.82 0,40.19 6.19,77.02 18.55,110.5 12.36,33.49 29.87,62.08 52.54,85.78 22.67,23.7 49.72,41.98 81.14,54.86 31.43,12.88 66.72,19.32 105.86,19.32 41.22,0 81.4,-6.96 120.55,-20.87 39.16,-13.9 80.88,-37.86 125.19,-71.86l204 250.37c-65.94,44.3 -141.16,78.31 -225.64,102.01 -84.49,23.7 -166.4,35.54 -245.73,35.54zm154.54 -183.92l0 -411.1 316.83 0 0 457.46 -316.83 -46.36z"/>
   <path id="3" class="fil2" d="M4303.9 2223.96l472.92 -1081.84 358.56 0 472.92 1081.84 -377.11 0 -349.28 -908.75 142.19 0 -349.28 908.75 -370.92 0zm281.28 -188.55l92.73 -262.73 497.65 0 92.73 262.73 -683.1 0z"/>
   <path id="4" class="fil2" d="M5667.02 2223.96l0 -1081.84 520.83 0c100.97,0 188.29,16.49 261.96,49.45 73.67,32.97 130.6,80.11 170.78,141.41 40.19,61.31 60.28,133.69 60.28,217.14 0,83.46 -20.09,155.33 -60.28,215.6 -40.18,60.26 -97.11,106.37 -170.78,138.32 -73.67,31.94 -160.98,47.91 -261.96,47.91l-318.37 0 162.28 -149.91 0 421.92 -364.74 0zm647.56 0l-265.82 -394.1 386.37 0 268.92 394.1 -389.47 0zm-282.82 -381.73l-162.28 -165.37 295.18 0c50.49,0 87.83,-11.34 112.05,-34.01 24.22,-22.67 36.32,-53.57 36.32,-92.73 0,-39.15 -12.11,-70.06 -36.32,-92.73 -24.22,-22.67 -61.56,-34 -112.05,-34l-295.18 0 162.28 -165.37 0 584.2z"/>
   <path class="fil3" d="M1430.16 2081.56c-84.48,0 -160.73,-13.65 -228.73,-40.95 -68,-27.3 -124.67,-67.23 -170,-119.78l196.28 -231.83c28.84,35.03 57.18,61.57 85,79.6 27.81,18.03 56.67,27.04 86.54,27.04 78.31,0 117.46,-44.81 117.46,-134.45l0 -411.11 -367.83 0 0 -275.09 727.93 0 0 664.56c0,148.37 -38.12,259.12 -114.36,332.28 -76.25,73.15 -187,109.73 -332.28,109.73z"/>
   <path id="1" class="fil3" d="M2612.47 2081.56c-88.61,0 -170.27,-13.91 -244.97,-41.73 -74.7,-27.81 -139.35,-67.23 -193.95,-118.23 -54.61,-51 -97.11,-111.02 -127.5,-180.05 -30.39,-69.03 -45.6,-144.25 -45.6,-225.64 0,-82.42 15.21,-157.89 45.6,-226.42 30.39,-68.51 72.89,-128.28 127.5,-179.28 54.61,-51 119.26,-90.4 193.95,-118.23 74.7,-27.81 155.84,-41.73 243.42,-41.73 88.61,0 170,13.91 244.19,41.73 74.18,27.82 138.58,67.23 193.18,118.23 54.61,51 97.11,110.77 127.5,179.28 30.4,68.52 45.6,143.99 45.6,226.42 0,81.39 -15.2,156.61 -45.6,225.64 -30.39,69.03 -72.89,129.05 -127.5,180.05 -54.6,51 -119,90.41 -193.18,118.23 -74.19,27.81 -155.07,41.73 -242.64,41.73zm-1.55 -295.18c34,0 65.69,-6.19 95.05,-18.55 29.36,-12.36 55.12,-30.14 77.28,-53.33 22.15,-23.18 39.4,-51.51 51.76,-85 12.37,-33.48 18.55,-71.34 18.55,-113.59 0,-42.25 -6.18,-80.11 -18.55,-113.59 -12.36,-33.49 -29.62,-61.83 -51.76,-85 -22.16,-23.19 -47.91,-40.96 -77.28,-53.33 -29.36,-12.36 -61.05,-18.54 -95.05,-18.54 -34,0 -65.68,6.18 -95.05,18.54 -29.36,12.36 -55.12,30.14 -77.27,53.33 -22.16,23.18 -39.41,51.51 -51.78,85 -12.36,33.48 -18.55,71.34 -18.55,113.59 0,42.25 6.19,80.11 18.55,113.59 12.36,33.49 29.62,61.83 51.78,85 22.15,23.19 47.9,40.96 77.27,53.33 29.37,12.36 61.05,18.55 95.05,18.55z"/>
   <path id="2" class="fil3" d="M3915.32 2081.56c-87.58,0 -168.21,-13.65 -241.88,-40.95 -73.67,-27.3 -137.54,-66.2 -191.64,-116.69 -54.09,-50.48 -96.07,-110.25 -125.95,-179.28 -29.88,-69.03 -44.83,-145.28 -44.83,-228.73 0,-83.45 14.94,-159.7 44.83,-228.73 29.88,-69.03 72.12,-128.8 126.73,-179.28 54.61,-50.49 119.27,-89.38 193.97,-116.69 74.7,-27.3 156.87,-40.95 246.5,-40.95 107.15,0 202.71,18.03 286.68,54.09 83.97,36.06 153.27,87.58 207.88,154.55l-233.38 205.55c-34,-39.16 -70.83,-68.78 -110.5,-88.88 -39.67,-20.09 -83.71,-30.13 -132.14,-30.13 -40.18,0 -76.5,6.18 -108.95,18.54 -32.45,12.36 -60.02,30.39 -82.69,54.1 -22.67,23.7 -40.18,52.03 -52.54,85 -12.36,32.96 -18.55,70.57 -18.55,112.82 0,40.19 6.19,77.02 18.55,110.5 12.36,33.49 29.87,62.08 52.54,85.78 22.67,23.7 49.72,41.98 81.14,54.86 31.43,12.88 66.72,19.32 105.86,19.32 41.22,0 81.4,-6.96 120.55,-20.87 39.16,-13.9 80.88,-37.86 125.19,-71.86l204 250.37c-65.94,44.3 -141.16,78.31 -225.64,102.01 -84.49,23.7 -166.4,35.54 -245.73,35.54zm154.54 -183.92l0 -411.1 316.83 0 0 457.46 -316.83 -46.36z"/>
   <path id="3" class="fil3" d="M4425.33 2056.84l472.92 -1081.84 358.56 0 472.92 1081.84 -377.11 0 -349.28 -908.75 142.19 0 -349.28 908.75 -370.92 0zm281.28 -188.55l92.73 -262.73 497.65 0 92.73 262.73 -683.1 0z"/>
   <path id="4" class="fil3" d="M5788.44 2056.84l0 -1081.84 520.83 0c100.97,0 188.29,16.49 261.96,49.45 73.67,32.97 130.6,80.11 170.78,141.41 40.19,61.31 60.28,133.69 60.28,217.14 0,83.46 -20.09,155.33 -60.28,215.6 -40.18,60.26 -97.11,106.37 -170.78,138.32 -73.67,31.94 -160.98,47.91 -261.96,47.91l-318.37 0 162.28 -149.91 0 421.92 -364.74 0zm647.56 0l-265.82 -394.1 386.37 0 268.92 394.1 -389.47 0zm-282.82 -381.73l-162.28 -165.37 295.18 0c50.49,0 87.83,-11.34 112.05,-34.01 24.22,-22.67 36.32,-53.57 36.32,-92.73 0,-39.15 -12.11,-70.06 -36.32,-92.73 -24.22,-22.67 -61.56,-34 -112.05,-34l-295.18 0 162.28 -165.37 0 584.2z"/>
   <path class="fil4" d="M1521.25 1909.81c-84.48,0 -160.73,-13.65 -228.73,-40.95 -68,-27.3 -124.67,-67.23 -170,-119.78l196.28 -231.83c28.84,35.03 57.18,61.57 85,79.6 27.81,18.03 56.67,27.04 86.54,27.04 78.31,0 117.46,-44.81 117.46,-134.45l0 -411.11 -367.83 0 0 -275.09 727.93 0 0 664.56c0,148.37 -38.12,259.12 -114.36,332.28 -76.25,73.15 -187,109.73 -332.28,109.73z"/>
   <path id="1" class="fil4" d="M2703.56 1909.81c-88.61,0 -170.27,-13.91 -244.97,-41.73 -74.7,-27.81 -139.35,-67.23 -193.95,-118.23 -54.61,-51 -97.11,-111.02 -127.5,-180.05 -30.39,-69.03 -45.6,-144.25 -45.6,-225.64 0,-82.42 15.21,-157.89 45.6,-226.42 30.39,-68.51 72.89,-128.28 127.5,-179.28 54.61,-51 119.26,-90.4 193.95,-118.23 74.7,-27.81 155.84,-41.73 243.42,-41.73 88.61,0 170,13.91 244.19,41.73 74.18,27.82 138.58,67.23 193.18,118.23 54.61,51 97.11,110.77 127.5,179.28 30.4,68.52 45.6,143.99 45.6,226.42 0,81.39 -15.2,156.61 -45.6,225.64 -30.39,69.03 -72.89,129.05 -127.5,180.05 -54.6,51 -119,90.41 -193.18,118.23 -74.19,27.81 -155.07,41.73 -242.64,41.73zm-1.55 -295.18c34,0 65.69,-6.19 95.05,-18.55 29.36,-12.36 55.12,-30.14 77.28,-53.33 22.15,-23.18 39.4,-51.51 51.76,-85 12.37,-33.48 18.55,-71.34 18.55,-113.59 0,-42.25 -6.18,-80.11 -18.55,-113.59 -12.36,-33.49 -29.62,-61.83 -51.76,-85 -22.16,-23.19 -47.91,-40.96 -77.28,-53.33 -29.36,-12.36 -61.05,-18.54 -95.05,-18.54 -34,0 -65.68,6.18 -95.05,18.54 -29.36,12.36 -55.12,30.14 -77.27,53.33 -22.16,23.18 -39.41,51.51 -51.78,85 -12.36,33.48 -18.55,71.34 -18.55,113.59 0,42.25 6.19,80.11 18.55,113.59 12.36,33.49 29.62,61.83 51.78,85 22.15,23.19 47.9,40.96 77.27,53.33 29.37,12.36 61.05,18.55 95.05,18.55z"/>
   <path id="2" class="fil4" d="M4006.41 1909.81c-87.58,0 -168.21,-13.65 -241.88,-40.95 -73.67,-27.3 -137.54,-66.2 -191.64,-116.69 -54.09,-50.48 -96.07,-110.25 -125.95,-179.28 -29.88,-69.03 -44.83,-145.28 -44.83,-228.73 0,-83.45 14.94,-159.7 44.83,-228.73 29.88,-69.03 72.12,-128.8 126.73,-179.28 54.61,-50.49 119.27,-89.38 193.97,-116.69 74.7,-27.3 156.87,-40.95 246.5,-40.95 107.15,0 202.71,18.03 286.68,54.09 83.97,36.06 153.27,87.58 207.88,154.55l-233.38 205.55c-34,-39.16 -70.83,-68.78 -110.5,-88.88 -39.67,-20.09 -83.71,-30.13 -132.14,-30.13 -40.18,0 -76.5,6.18 -108.95,18.54 -32.45,12.36 -60.02,30.39 -82.69,54.1 -22.67,23.7 -40.18,52.03 -52.54,85 -12.36,32.96 -18.55,70.57 -18.55,112.82 0,40.19 6.19,77.02 18.55,110.5 12.36,33.49 29.87,62.08 52.54,85.78 22.67,23.7 49.72,41.98 81.14,54.86 31.43,12.88 66.72,19.32 105.86,19.32 41.22,0 81.4,-6.96 120.55,-20.87 39.16,-13.9 80.88,-37.86 125.19,-71.86l204 250.37c-65.94,44.3 -141.16,78.31 -225.64,102.01 -84.49,23.7 -166.4,35.54 -245.73,35.54zm154.54 -183.92l0 -411.1 316.83 0 0 457.46 -316.83 -46.36z"/>
   <path id="3" class="fil4" d="M4516.42 1885.09l472.92 -1081.84 358.56 0 472.92 1081.84 -377.11 0 -349.28 -908.75 142.19 0 -349.28 908.75 -370.92 0zm281.28 -188.55l92.73 -262.73 497.65 0 92.73 262.73 -683.1 0z"/>
   <path id="4" class="fil4" d="M5879.53 1885.09l0 -1081.84 520.83 0c100.97,0 188.29,16.49 261.96,49.45 73.67,32.97 130.6,80.11 170.78,141.41 40.19,61.31 60.28,133.69 60.28,217.14 0,83.46 -20.09,155.33 -60.28,215.6 -40.18,60.26 -97.11,106.37 -170.78,138.32 -73.67,31.94 -160.98,47.91 -261.96,47.91l-318.37 0 162.28 -149.91 0 421.92 -364.74 0zm647.56 0l-265.82 -394.1 386.37 0 268.92 394.1 -389.47 0zm-282.82 -381.73l-162.28 -165.37 295.18 0c50.49,0 87.83,-11.34 112.05,-34.01 24.22,-22.67 36.32,-53.57 36.32,-92.73 0,-39.15 -12.11,-70.06 -36.32,-92.73 -24.22,-22.67 -61.56,-34 -112.05,-34l-295.18 0 162.28 -165.37 0 584.2z"/>
  </g>
 </g>
</svg>
