<?xml version="1.0" encoding="UTF-8"?>
<!DOCTYPE svg PUBLIC "-//W3C//DTD SVG 1.1//EN" "http://www.w3.org/Graphics/SVG/1.1/DTD/svg11.dtd">
<!-- Creator: CorelDRAW 2020 (64 Bit) -->
<svg xmlns="http://www.w3.org/2000/svg" xml:space="preserve" width="62.9623mm" height="18.0131mm" version="1.1" style="shape-rendering:geometricPrecision; text-rendering:geometricPrecision; image-rendering:optimizeQuality; fill-rule:evenodd; clip-rule:evenodd"
viewBox="0 0 44002.26 12588.76"
 xmlns:xlink="http://www.w3.org/1999/xlink"
 xmlns:xodm="http://www.corel.com/coreldraw/odm/2003">
 <defs>
  <style type="text/css">
   <![CDATA[
    .fil1 {fill:#EF64A4}
    .fil0 {fill:#BB335E}
    .fil4 {fill:#FEFEFE;fill-rule:nonzero}
    .fil3 {fill:#A9ABAE;fill-rule:nonzero}
    .fil2 {fill:#D64E81;fill-rule:nonzero}
   ]]>
  </style>
 </defs>
 <g id="Camada_x0020_1">
  <metadata id="CorelCorpID_0Corel-Layer"/>
  <path class="fil0" d="M1199.95 1838.79l41602.35 0c660.01,0 1199.95,582.09 1199.95,1293.39l0 8163.18c0,711.31 -540.01,1293.39 -1199.95,1293.39l-41602.35 0c-659.94,0 -1199.95,-582.02 -1199.95,-1293.39l0 -8163.18c0,-711.38 539.94,-1293.39 1199.95,-1293.39z"/>
  <path class="fil1" d="M1199.95 0l41602.35 0c660.01,0 1199.95,582.09 1199.95,1293.39l0 8163.11c0,711.38 -540.01,1293.46 -1199.95,1293.46l-41602.35 0c-659.94,0 -1199.95,-582.02 -1199.95,-1293.46l0 -8163.11c0,-711.38 539.94,-1293.39 1199.95,-1293.39z"/>
  <path class="fil2" d="M7928.15 5901.58l1769.81 0 0 964.37 -1769.81 0 0 -964.37zm90.78 1486.21l1985.34 0 0 1009.72 -3301.38 0 0 -3970.82 3227.65 0 0 1009.72 -1911.61 0 0 1951.38z"/>
  <polygon id="1" class="fil2" points="10123.43,8397.51 11893.24,5924.29 11887.58,6860.22 10174.45,4426.69 11677.71,4426.69 12676.04,5901.58 12035.04,5907.24 13010.73,4426.69 14451.59,4426.69 12738.45,6809.2 12738.45,5878.87 14536.64,8397.51 13005.07,8397.51 12006.67,6854.55 12625.03,6848.89 11649.34,8397.51 "/>
  <path id="2" class="fil2" d="M15926.47 5901.58l1769.81 0 0 964.37 -1769.81 0 0 -964.37zm90.78 1486.21l1985.34 0 0 1009.72 -3301.38 0 0 -3970.82 3227.65 0 0 1009.72 -1911.61 0 0 1951.38z"/>
  <path id="3" class="fil2" d="M20572.26 8488.3c-317.63,0 -611.65,-50.11 -882.04,-150.33 -270.39,-100.22 -504.86,-243 -703.41,-428.27 -198.55,-185.34 -352.65,-404.64 -462.3,-658.05 -109.72,-253.34 -164.51,-533.24 -164.51,-839.55 0,-306.31 54.79,-586.14 164.51,-839.55 109.65,-253.34 263.75,-472.71 462.3,-657.98 198.55,-185.34 433.02,-328.05 703.41,-428.27 270.39,-100.22 564.4,-150.33 882.04,-150.33 389.55,0 734.65,68.07 1035.3,204.21 300.58,136.14 549.24,332.8 745.9,589.91l-845.21 754.5c-117.2,-147.53 -246.77,-261.94 -388.57,-343.21 -141.8,-81.28 -301.56,-121.95 -479.35,-121.95 -139.91,0 -266.55,22.64 -380.04,68.07 -113.43,45.36 -210.85,111.54 -292.13,198.55 -81.28,86.94 -144.67,191.91 -190.02,314.84 -45.36,122.86 -68.07,259.98 -68.07,411.21 0,151.3 22.71,288.35 68.07,411.28 45.36,122.93 108.74,227.83 190.02,314.84 81.28,86.94 178.7,153.12 292.13,198.55 113.5,45.36 240.13,68.07 380.04,68.07 177.79,0 337.55,-40.67 479.35,-122.02 141.8,-81.28 271.37,-195.68 388.57,-343.14l845.21 754.43c-196.66,253.41 -445.32,449.09 -745.9,587.12 -300.65,138.03 -645.75,207.07 -1035.3,207.07z"/>
  <path id="4" class="fil2" d="M24582.78 8488.3c-608.85,0 -1083.45,-164.51 -1423.8,-493.54 -340.35,-329.03 -510.52,-790.35 -510.52,-1384.11l0 -2183.96 1338.68 0 0 2144.26c0,302.54 54.86,517.16 164.51,643.8 109.65,126.7 257.18,190.09 442.45,190.09 189.11,0 337.55,-63.39 445.32,-190.09 107.77,-126.63 161.65,-341.26 161.65,-643.8l0 -2144.26 1316.04 0 0 2183.96c0,593.76 -170.17,1055.08 -510.52,1384.11 -340.35,329.03 -814.95,493.54 -1423.8,493.54z"/>
  <polygon id="5" class="fil2" points="27935.24,8397.51 27935.24,5464.79 26772.4,5464.79 26772.4,4426.69 30436.83,4426.69 30436.83,5464.79 29273.99,5464.79 29273.99,8397.51 "/>
  <path id="6" class="fil2" d="M30153.23 8397.51l1735.78 -3970.82 1316.04 0 1735.85 3970.82 -1384.11 0 -1282 -3335.48 521.84 0 -1282 3335.48 -1361.39 0zm1032.37 -692.02l340.35 -964.37 1826.63 0 340.35 964.37 -2507.32 0z"/>
  <path id="7" class="fil2" d="M35156.42 8397.51l0 -3970.82 1911.61 0c370.61,0 691.11,60.52 961.5,181.57 270.39,120.97 479.35,294.01 626.81,519.05 147.53,224.97 221.26,490.67 221.26,796.99 0,306.31 -73.73,570.07 -221.26,791.33 -147.46,221.19 -356.42,390.46 -626.81,507.66 -270.39,117.27 -590.89,175.83 -961.5,175.83l-1168.51 0 595.57 -550.22 0 1548.62 -1338.68 0zm2376.78 0l-975.69 -1446.51 1418.14 0 987.01 1446.51 -1429.46 0zm-1038.1 -1401.09l-595.57 -606.97 1083.45 0c185.27,0 322.39,-41.65 411.21,-124.82 88.9,-83.24 133.34,-196.66 133.34,-340.35 0,-143.76 -44.45,-257.18 -133.34,-340.35 -88.83,-83.24 -225.94,-124.82 -411.21,-124.82l-1083.45 0 595.57 -606.97 0 2144.26z"/>
  <path class="fil3" d="M7294.84 5333.47l1769.81 0 0 964.37 -1769.81 0 0 -964.37zm90.78 1486.21l1985.34 0 0 1009.72 -3301.38 0 0 -3970.82 3227.65 0 0 1009.72 -1911.61 0 0 1951.38z"/>
  <polygon id="1" class="fil3" points="9490.12,7829.4 11259.93,5356.18 11254.27,6292.11 9541.14,3858.58 11044.4,3858.58 12042.73,5333.47 11401.73,5339.13 12377.42,3858.58 13818.27,3858.58 12105.14,6241.09 12105.14,5310.76 13903.32,7829.4 12371.76,7829.4 11373.36,6286.45 11991.71,6280.79 11016.03,7829.4 "/>
  <path id="2" class="fil3" d="M15293.16 5333.47l1769.81 0 0 964.37 -1769.81 0 0 -964.37zm90.78 1486.21l1985.34 0 0 1009.72 -3301.38 0 0 -3970.82 3227.65 0 0 1009.72 -1911.61 0 0 1951.38z"/>
  <path id="3" class="fil3" d="M19938.95 7920.19c-317.63,0 -611.65,-50.11 -882.04,-150.33 -270.39,-100.22 -504.86,-243 -703.41,-428.27 -198.55,-185.34 -352.65,-404.64 -462.3,-658.05 -109.72,-253.34 -164.51,-533.24 -164.51,-839.55 0,-306.31 54.79,-586.14 164.51,-839.55 109.65,-253.34 263.75,-472.71 462.3,-657.98 198.55,-185.34 433.02,-328.05 703.41,-428.27 270.39,-100.22 564.4,-150.33 882.04,-150.33 389.55,0 734.65,68.07 1035.3,204.21 300.58,136.14 549.24,332.8 745.9,589.91l-845.21 754.5c-117.2,-147.53 -246.77,-261.94 -388.57,-343.21 -141.8,-81.28 -301.56,-121.95 -479.35,-121.95 -139.91,0 -266.55,22.64 -380.04,68.07 -113.43,45.36 -210.85,111.54 -292.13,198.55 -81.28,86.94 -144.67,191.91 -190.02,314.84 -45.36,122.86 -68.07,259.98 -68.07,411.21 0,151.3 22.71,288.35 68.07,411.28 45.36,122.93 108.74,227.83 190.02,314.84 81.28,86.94 178.7,153.12 292.13,198.55 113.5,45.36 240.13,68.07 380.04,68.07 177.79,0 337.55,-40.67 479.35,-122.02 141.8,-81.28 271.37,-195.68 388.57,-343.14l845.21 754.43c-196.66,253.41 -445.32,449.09 -745.9,587.12 -300.65,138.03 -645.75,207.07 -1035.3,207.07z"/>
  <path id="4" class="fil3" d="M23949.46 7920.19c-608.85,0 -1083.45,-164.51 -1423.8,-493.54 -340.35,-329.03 -510.52,-790.35 -510.52,-1384.11l0 -2183.96 1338.68 0 0 2144.26c0,302.54 54.86,517.16 164.51,643.8 109.65,126.7 257.18,190.09 442.45,190.09 189.11,0 337.55,-63.39 445.32,-190.09 107.77,-126.63 161.65,-341.26 161.65,-643.8l0 -2144.26 1316.04 0 0 2183.96c0,593.76 -170.17,1055.08 -510.52,1384.11 -340.35,329.03 -814.95,493.54 -1423.8,493.54z"/>
  <polygon id="5" class="fil3" points="27301.93,7829.4 27301.93,4896.68 26139.08,4896.68 26139.08,3858.58 29803.52,3858.58 29803.52,4896.68 28640.68,4896.68 28640.68,7829.4 "/>
  <path id="6" class="fil3" d="M29519.92 7829.4l1735.78 -3970.82 1316.04 0 1735.85 3970.82 -1384.11 0 -1282 -3335.48 521.84 0 -1282 3335.48 -1361.39 0zm1032.37 -692.02l340.35 -964.37 1826.63 0 340.35 964.37 -2507.32 0z"/>
  <path id="7" class="fil3" d="M34523.11 7829.4l0 -3970.82 1911.61 0c370.61,0 691.11,60.52 961.5,181.57 270.39,120.97 479.35,294.01 626.81,519.05 147.53,224.97 221.26,490.67 221.26,796.99 0,306.31 -73.73,570.07 -221.26,791.33 -147.46,221.19 -356.42,390.46 -626.81,507.66 -270.39,117.27 -590.89,175.83 -961.5,175.83l-1168.51 0 595.57 -550.22 0 1548.62 -1338.68 0zm2376.78 0l-975.69 -1446.51 1418.14 0 987.01 1446.51 -1429.46 0zm-1038.1 -1401.09l-595.57 -606.97 1083.45 0c185.27,0 322.39,-41.65 411.21,-124.82 88.9,-83.24 133.34,-196.66 133.34,-340.35 0,-143.76 -44.45,-257.18 -133.34,-340.35 -88.83,-83.24 -225.94,-124.82 -411.21,-124.82l-1083.45 0 595.57 -606.97 0 2144.26z"/>
  <path class="fil4" d="M7294.84 4998.43l1769.81 0 0 964.37 -1769.81 0 0 -964.37zm90.78 1486.21l1985.34 0 0 1009.72 -3301.38 0 0 -3970.82 3227.65 0 0 1009.72 -1911.61 0 0 1951.38z"/>
  <polygon id="1" class="fil4" points="9490.12,7494.37 11259.93,5021.15 11254.27,5957.07 9541.14,3523.55 11044.4,3523.55 12042.73,4998.43 11401.73,5004.1 12377.42,3523.55 13818.27,3523.55 12105.14,5906.05 12105.14,4975.72 13903.32,7494.37 12371.76,7494.37 11373.36,5951.41 11991.71,5945.75 11016.03,7494.37 "/>
  <path id="2" class="fil4" d="M15293.16 4998.43l1769.81 0 0 964.37 -1769.81 0 0 -964.37zm90.78 1486.21l1985.34 0 0 1009.72 -3301.38 0 0 -3970.82 3227.65 0 0 1009.72 -1911.61 0 0 1951.38z"/>
  <path id="3" class="fil4" d="M19938.95 7585.15c-317.63,0 -611.65,-50.11 -882.04,-150.33 -270.39,-100.22 -504.86,-243 -703.41,-428.27 -198.55,-185.34 -352.65,-404.64 -462.3,-658.05 -109.72,-253.34 -164.51,-533.24 -164.51,-839.55 0,-306.31 54.79,-586.14 164.51,-839.55 109.65,-253.34 263.75,-472.71 462.3,-657.98 198.55,-185.34 433.02,-328.05 703.41,-428.27 270.39,-100.22 564.4,-150.33 882.04,-150.33 389.55,0 734.65,68.07 1035.3,204.21 300.58,136.14 549.24,332.8 745.9,589.91l-845.21 754.5c-117.2,-147.53 -246.77,-261.94 -388.57,-343.21 -141.8,-81.28 -301.56,-121.95 -479.35,-121.95 -139.91,0 -266.55,22.64 -380.04,68.07 -113.43,45.36 -210.85,111.54 -292.13,198.55 -81.28,86.94 -144.67,191.91 -190.02,314.84 -45.36,122.86 -68.07,259.98 -68.07,411.21 0,151.3 22.71,288.35 68.07,411.28 45.36,122.93 108.74,227.83 190.02,314.84 81.28,86.94 178.7,153.12 292.13,198.55 113.5,45.36 240.13,68.07 380.04,68.07 177.79,0 337.55,-40.67 479.35,-122.02 141.8,-81.28 271.37,-195.68 388.57,-343.14l845.21 754.43c-196.66,253.41 -445.32,449.09 -745.9,587.12 -300.65,138.03 -645.75,207.07 -1035.3,207.07z"/>
  <path id="4" class="fil4" d="M23949.46 7585.15c-608.85,0 -1083.45,-164.51 -1423.8,-493.54 -340.35,-329.03 -510.52,-790.35 -510.52,-1384.11l0 -2183.96 1338.68 0 0 2144.26c0,302.54 54.86,517.16 164.51,643.8 109.65,126.7 257.18,190.09 442.45,190.09 189.11,0 337.55,-63.39 445.32,-190.09 107.77,-126.63 161.65,-341.26 161.65,-643.8l0 -2144.26 1316.04 0 0 2183.96c0,593.76 -170.17,1055.08 -510.52,1384.11 -340.35,329.03 -814.95,493.54 -1423.8,493.54z"/>
  <polygon id="5" class="fil4" points="27301.93,7494.37 27301.93,4561.64 26139.08,4561.64 26139.08,3523.55 29803.52,3523.55 29803.52,4561.64 28640.68,4561.64 28640.68,7494.37 "/>
  <path id="6" class="fil4" d="M29519.92 7494.37l1735.78 -3970.82 1316.04 0 1735.85 3970.82 -1384.11 0 -1282 -3335.48 521.84 0 -1282 3335.48 -1361.39 0zm1032.37 -692.02l340.35 -964.37 1826.63 0 340.35 964.37 -2507.32 0z"/>
  <path id="7" class="fil4" d="M34523.11 7494.37l0 -3970.82 1911.61 0c370.61,0 691.11,60.52 961.5,181.57 270.39,120.97 479.35,294.01 626.81,519.05 147.53,224.97 221.26,490.67 221.26,796.99 0,306.31 -73.73,570.07 -221.26,791.33 -147.46,221.19 -356.42,390.46 -626.81,507.66 -270.39,117.27 -590.89,175.83 -961.5,175.83l-1168.51 0 595.57 -550.22 0 1548.62 -1338.68 0zm2376.78 0l-975.69 -1446.51 1418.14 0 987.01 1446.51 -1429.46 0zm-1038.1 -1401.09l-595.57 -606.97 1083.45 0c185.27,0 322.39,-41.65 411.21,-124.82 88.9,-83.24 133.34,-196.66 133.34,-340.35 0,-143.76 -44.45,-257.18 -133.34,-340.35 -88.83,-83.24 -225.94,-124.82 -411.21,-124.82l-1083.45 0 595.57 -606.97 0 2144.26z"/>
 </g>
</svg>
