<?xml version="1.0" encoding="UTF-8"?>
<!DOCTYPE svg PUBLIC "-//W3C//DTD SVG 1.1//EN" "http://www.w3.org/Graphics/SVG/1.1/DTD/svg11.dtd">
<!-- Creator: CorelDRAW 2020 (64 Bit) -->
<svg xmlns="http://www.w3.org/2000/svg" xml:space="preserve" width="91.9763mm" height="18.0131mm" version="1.1" style="shape-rendering:geometricPrecision; text-rendering:geometricPrecision; image-rendering:optimizeQuality; fill-rule:evenodd; clip-rule:evenodd"
viewBox="0 0 3513.37 688.08"
 xmlns:xlink="http://www.w3.org/1999/xlink"
 xmlns:xodm="http://www.corel.com/coreldraw/odm/2003">
 <defs>
  <style type="text/css">
   <![CDATA[
    .fil1 {fill:#EF64A4}
    .fil0 {fill:#BB335E}
    .fil4 {fill:#FEFEFE;fill-rule:nonzero}
    .fil3 {fill:#A9ABAE;fill-rule:nonzero}
    .fil2 {fill:#D64E81;fill-rule:nonzero}
   ]]>
  </style>
 </defs>
 <g id="Camada_x0020_1">
  <metadata id="CorelCorpID_0Corel-Layer"/>
  <path class="fil0" d="M95.81 100.5l3321.75 0c52.69,0 95.81,31.82 95.81,70.69l0 446.18c0,38.88 -43.12,70.69 -95.81,70.69l-3321.75 0c-52.69,0 -95.81,-31.81 -95.81,-70.69l0 -446.18c0,-38.88 43.11,-70.69 95.81,-70.69z"/>
  <path class="fil1" d="M95.81 0l3321.75 0c52.69,0 95.81,31.82 95.81,70.69l0 446.18c0,38.88 -43.12,70.7 -95.81,70.7l-3321.75 0c-52.69,0 -95.81,-31.81 -95.81,-70.7l0 -446.18c0,-38.88 43.11,-70.69 95.81,-70.69z"/>
  <g id="_2717967554912">
   <polygon class="fil2" points="376.91,458.99 285.13,241.95 363.88,241.95 438.61,425.2 391.79,425.2 468.68,241.95 540.61,241.95 448.84,458.99 "/>
   <path id="1" class="fil2" d="M658.74 463.95c-17.77,0 -34.16,-2.79 -49.14,-8.37 -14.99,-5.58 -27.95,-13.49 -38.91,-23.72 -10.96,-10.23 -19.48,-22.27 -25.58,-36.12 -6.1,-13.85 -9.14,-28.94 -9.14,-45.27 0,-16.54 3.05,-31.67 9.14,-45.42 6.1,-13.74 14.63,-25.73 25.58,-35.96 10.96,-10.23 23.92,-18.14 38.91,-23.72 14.99,-5.58 31.27,-8.37 48.83,-8.37 17.78,0 34.11,2.79 48.99,8.37 14.88,5.58 27.8,13.49 38.76,23.72 10.96,10.23 19.48,22.22 25.58,35.96 6.1,13.75 9.15,28.89 9.15,45.42 0,16.33 -3.05,31.42 -9.15,45.27 -6.1,13.85 -14.62,25.89 -25.58,36.12 -10.96,10.23 -23.87,18.14 -38.76,23.72 -14.88,5.58 -31.11,8.37 -48.68,8.37zm-0.31 -59.22c6.82,0 13.18,-1.24 19.07,-3.72 5.89,-2.48 11.06,-6.05 15.5,-10.7 4.45,-4.65 7.91,-10.33 10.39,-17.05 2.48,-6.72 3.72,-14.31 3.72,-22.79 0,-8.47 -1.24,-16.07 -3.72,-22.79 -2.48,-6.72 -5.94,-12.4 -10.39,-17.05 -4.44,-4.65 -9.61,-8.22 -15.5,-10.7 -5.89,-2.48 -12.25,-3.72 -19.07,-3.72 -6.82,0 -13.17,1.24 -19.07,3.72 -5.89,2.48 -11.06,6.05 -15.5,10.7 -4.44,4.65 -7.91,10.34 -10.39,17.05 -2.48,6.72 -3.72,14.32 -3.72,22.79 0,8.48 1.24,16.07 3.72,22.79 2.48,6.72 5.94,12.4 10.39,17.05 4.44,4.65 9.61,8.22 15.5,10.7 5.89,2.48 12.25,3.72 19.07,3.72z"/>
   <polygon id="2" class="fil2" points="807.57,458.99 807.57,241.95 880.74,241.95 880.74,402.25 978.71,402.25 978.71,458.99 "/>
   <polygon id="3" class="fil2" points="1025.84,458.99 1025.84,298.69 962.28,298.69 962.28,241.95 1162.57,241.95 1162.57,298.69 1099.02,298.69 1099.02,458.99 "/>
   <path id="4" class="fil2" d="M1147.07 458.99l94.87 -217.04 71.93 0 94.88 217.04 -75.65 0 -70.07 -182.31 28.52 0 -70.07 182.31 -74.41 0zm56.43 -37.82l18.6 -52.71 99.84 0 18.6 52.71 -137.05 0z"/>
   <path id="5" class="fil2" d="M1420.54 458.99l0 -217.04 104.48 0c20.26,0 37.77,3.31 52.55,9.92 14.78,6.61 26.2,16.07 34.26,28.37 8.06,12.3 12.09,26.82 12.09,43.56 0,16.74 -4.03,31.16 -12.09,43.25 -8.06,12.09 -19.48,21.34 -34.26,27.75 -14.78,6.41 -32.3,9.61 -52.55,9.61l-63.87 0 32.55 -30.07 0 84.64 -73.17 0zm129.91 0l-53.33 -79.06 77.51 0 53.95 79.06 -78.13 0zm-56.74 -76.58l-32.55 -33.18 59.22 0c10.13,0 17.62,-2.28 22.48,-6.82 4.86,-4.55 7.29,-10.75 7.29,-18.6 0,-7.86 -2.43,-14.06 -7.29,-18.6 -4.86,-4.55 -12.35,-6.82 -22.48,-6.82l-59.22 0 32.55 -33.18 0 117.2z"/>
   <path id="6" class="fil2" d="M1720.97 458.99l94.87 -217.04 71.93 0 94.88 217.04 -75.65 0 -70.07 -182.31 28.52 0 -70.07 182.31 -74.41 0zm56.43 -37.82l18.6 -52.71 99.84 0 18.6 52.71 -137.05 0z"/>
   <path id="7" class="fil2" d="M2105.43 463.95c-17.77,0 -34.16,-2.79 -49.14,-8.37 -14.99,-5.58 -27.95,-13.49 -38.91,-23.72 -10.96,-10.23 -19.48,-22.27 -25.58,-36.12 -6.1,-13.85 -9.14,-28.94 -9.14,-45.27 0,-16.54 3.05,-31.67 9.14,-45.42 6.1,-13.74 14.63,-25.73 25.58,-35.96 10.96,-10.23 23.92,-18.14 38.91,-23.72 14.99,-5.58 31.27,-8.37 48.83,-8.37 17.78,0 34.11,2.79 48.99,8.37 14.88,5.58 27.8,13.49 38.76,23.72 10.96,10.23 19.48,22.22 25.58,35.96 6.1,13.75 9.15,28.89 9.15,45.42 0,16.33 -3.05,31.42 -9.15,45.27 -6.1,13.85 -14.62,25.89 -25.58,36.12 -10.96,10.23 -23.87,18.14 -38.76,23.72 -14.88,5.58 -31.11,8.37 -48.68,8.37zm-0.31 -59.22c6.82,0 13.18,-1.24 19.07,-3.72 5.89,-2.48 11.06,-6.05 15.5,-10.7 4.45,-4.65 7.91,-10.33 10.39,-17.05 2.48,-6.72 3.72,-14.31 3.72,-22.79 0,-8.47 -1.24,-16.07 -3.72,-22.79 -2.48,-6.72 -5.94,-12.4 -10.39,-17.05 -4.44,-4.65 -9.61,-8.22 -15.5,-10.7 -5.89,-2.48 -12.25,-3.72 -19.07,-3.72 -6.82,0 -13.17,1.24 -19.07,3.72 -5.89,2.48 -11.06,6.05 -15.5,10.7 -4.44,4.65 -7.91,10.34 -10.39,17.05 -2.48,6.72 -3.72,14.32 -3.72,22.79 0,8.48 1.24,16.07 3.72,22.79 2.48,6.72 5.94,12.4 10.39,17.05 4.44,4.65 9.61,8.22 15.5,10.7 5.89,2.48 12.25,3.72 19.07,3.72z"/>
   <path id="8" class="fil2" d="M2402.15 463.95c-16.95,0 -32.24,-2.74 -45.89,-8.22 -13.64,-5.48 -25.01,-13.49 -34.1,-24.03l39.38 -46.51c5.79,7.03 11.47,12.35 17.06,15.97 5.58,3.62 11.37,5.43 17.36,5.43 15.71,0 23.56,-8.99 23.56,-26.98l0 -82.47 -73.79 0 0 -55.19 146.03 0 0 133.32c0,29.76 -7.65,51.98 -22.95,66.66 -15.29,14.68 -37.51,22.01 -66.66,22.01z"/>
   <path id="9" class="fil2" d="M2639.34 463.95c-17.77,0 -34.16,-2.79 -49.14,-8.37 -14.99,-5.58 -27.95,-13.49 -38.91,-23.72 -10.96,-10.23 -19.48,-22.27 -25.58,-36.12 -6.1,-13.85 -9.14,-28.94 -9.14,-45.27 0,-16.54 3.05,-31.67 9.14,-45.42 6.1,-13.74 14.63,-25.73 25.58,-35.96 10.96,-10.23 23.92,-18.14 38.91,-23.72 14.99,-5.58 31.27,-8.37 48.83,-8.37 17.78,0 34.11,2.79 48.99,8.37 14.88,5.58 27.8,13.49 38.76,23.72 10.96,10.23 19.48,22.22 25.58,35.96 6.1,13.75 9.15,28.89 9.15,45.42 0,16.33 -3.05,31.42 -9.15,45.27 -6.1,13.85 -14.62,25.89 -25.58,36.12 -10.96,10.23 -23.87,18.14 -38.76,23.72 -14.88,5.58 -31.11,8.37 -48.68,8.37zm-0.31 -59.22c6.82,0 13.18,-1.24 19.07,-3.72 5.89,-2.48 11.06,-6.05 15.5,-10.7 4.45,-4.65 7.91,-10.33 10.39,-17.05 2.48,-6.72 3.72,-14.31 3.72,-22.79 0,-8.47 -1.24,-16.07 -3.72,-22.79 -2.48,-6.72 -5.94,-12.4 -10.39,-17.05 -4.44,-4.65 -9.61,-8.22 -15.5,-10.7 -5.89,-2.48 -12.25,-3.72 -19.07,-3.72 -6.82,0 -13.17,1.24 -19.07,3.72 -5.89,2.48 -11.06,6.05 -15.5,10.7 -4.44,4.65 -7.91,10.34 -10.39,17.05 -2.48,6.72 -3.72,14.32 -3.72,22.79 0,8.48 1.24,16.07 3.72,22.79 2.48,6.72 5.94,12.4 10.39,17.05 4.44,4.65 9.61,8.22 15.5,10.7 5.89,2.48 12.25,3.72 19.07,3.72z"/>
   <path id="10" class="fil2" d="M2900.71 463.95c-17.57,0 -33.74,-2.74 -48.52,-8.22 -14.78,-5.48 -27.59,-13.28 -38.45,-23.41 -10.85,-10.13 -19.28,-22.12 -25.27,-35.97 -6,-13.85 -8.99,-29.15 -8.99,-45.89 0,-16.74 2.99,-32.04 8.99,-45.89 5.99,-13.85 14.47,-25.84 25.42,-35.96 10.95,-10.13 23.92,-17.93 38.91,-23.41 14.99,-5.48 31.47,-8.22 49.45,-8.22 21.5,0 40.67,3.62 57.52,10.85 16.85,7.23 30.75,17.57 41.7,31l-46.82 41.24c-6.82,-7.86 -14.21,-13.8 -22.17,-17.83 -7.96,-4.03 -16.79,-6.05 -26.51,-6.05 -8.06,0 -15.34,1.24 -21.86,3.72 -6.51,2.48 -12.04,6.1 -16.59,10.85 -4.55,4.75 -8.06,10.44 -10.54,17.05 -2.48,6.62 -3.72,14.16 -3.72,22.63 0,8.06 1.24,15.45 3.72,22.17 2.48,6.72 5.99,12.45 10.54,17.21 4.55,4.75 9.97,8.42 16.28,11.01 6.3,2.58 13.38,3.88 21.24,3.88 8.27,0 16.33,-1.4 24.18,-4.19 7.85,-2.79 16.23,-7.6 25.12,-14.42l40.93 50.23c-13.23,8.89 -28.32,15.71 -45.27,20.46 -16.95,4.75 -33.38,7.13 -49.3,7.13zm31 -36.9l0 -82.47 63.56 0 0 91.78 -63.56 -9.3z"/>
   <path id="11" class="fil2" d="M3140.69 463.95c-17.77,0 -34.16,-2.79 -49.14,-8.37 -14.99,-5.58 -27.95,-13.49 -38.91,-23.72 -10.96,-10.23 -19.48,-22.27 -25.58,-36.12 -6.1,-13.85 -9.14,-28.94 -9.14,-45.27 0,-16.54 3.05,-31.67 9.14,-45.42 6.1,-13.74 14.63,-25.73 25.58,-35.96 10.96,-10.23 23.92,-18.14 38.91,-23.72 14.99,-5.58 31.27,-8.37 48.83,-8.37 17.78,0 34.11,2.79 48.99,8.37 14.88,5.58 27.8,13.49 38.76,23.72 10.96,10.23 19.48,22.22 25.58,35.96 6.1,13.75 9.15,28.89 9.15,45.42 0,16.33 -3.05,31.42 -9.15,45.27 -6.1,13.85 -14.62,25.89 -25.58,36.12 -10.96,10.23 -23.87,18.14 -38.76,23.72 -14.88,5.58 -31.11,8.37 -48.68,8.37zm-0.31 -59.22c6.82,0 13.18,-1.24 19.07,-3.72 5.89,-2.48 11.06,-6.05 15.5,-10.7 4.45,-4.65 7.91,-10.33 10.39,-17.05 2.48,-6.72 3.72,-14.31 3.72,-22.79 0,-8.47 -1.24,-16.07 -3.72,-22.79 -2.48,-6.72 -5.94,-12.4 -10.39,-17.05 -4.44,-4.65 -9.61,-8.22 -15.5,-10.7 -5.89,-2.48 -12.25,-3.72 -19.07,-3.72 -6.82,0 -13.17,1.24 -19.07,3.72 -5.89,2.48 -11.06,6.05 -15.5,10.7 -4.44,4.65 -7.91,10.34 -10.39,17.05 -2.48,6.72 -3.72,14.32 -3.72,22.79 0,8.48 1.24,16.07 3.72,22.79 2.48,6.72 5.94,12.4 10.39,17.05 4.44,4.65 9.61,8.22 15.5,10.7 5.89,2.48 12.25,3.72 19.07,3.72z"/>
   <polygon class="fil3" points="342.29,427.94 250.52,210.9 329.27,210.9 403.99,394.14 357.18,394.14 434.07,210.9 506,210.9 414.23,427.94 "/>
   <path id="1" class="fil3" d="M624.13 432.9c-17.77,0 -34.16,-2.79 -49.14,-8.37 -14.99,-5.58 -27.95,-13.49 -38.91,-23.72 -10.96,-10.23 -19.48,-22.27 -25.58,-36.12 -6.1,-13.85 -9.14,-28.94 -9.14,-45.27 0,-16.54 3.05,-31.67 9.14,-45.42 6.1,-13.74 14.63,-25.73 25.58,-35.96 10.96,-10.23 23.92,-18.14 38.91,-23.72 14.99,-5.58 31.27,-8.37 48.83,-8.37 17.78,0 34.11,2.79 48.99,8.37 14.88,5.58 27.8,13.49 38.76,23.72 10.96,10.23 19.48,22.22 25.58,35.96 6.1,13.75 9.15,28.89 9.15,45.42 0,16.33 -3.05,31.42 -9.15,45.27 -6.1,13.85 -14.62,25.89 -25.58,36.12 -10.96,10.23 -23.87,18.14 -38.76,23.72 -14.88,5.58 -31.11,8.37 -48.68,8.37zm-0.31 -59.22c6.82,0 13.18,-1.24 19.07,-3.72 5.89,-2.48 11.06,-6.05 15.5,-10.7 4.45,-4.65 7.91,-10.33 10.39,-17.05 2.48,-6.72 3.72,-14.31 3.72,-22.79 0,-8.47 -1.24,-16.07 -3.72,-22.79 -2.48,-6.72 -5.94,-12.4 -10.39,-17.05 -4.44,-4.65 -9.61,-8.22 -15.5,-10.7 -5.89,-2.48 -12.25,-3.72 -19.07,-3.72 -6.82,0 -13.17,1.24 -19.07,3.72 -5.89,2.48 -11.06,6.05 -15.5,10.7 -4.44,4.65 -7.91,10.34 -10.39,17.05 -2.48,6.72 -3.72,14.32 -3.72,22.79 0,8.48 1.24,16.07 3.72,22.79 2.48,6.72 5.94,12.4 10.39,17.05 4.44,4.65 9.61,8.22 15.5,10.7 5.89,2.48 12.25,3.72 19.07,3.72z"/>
   <polygon id="2" class="fil3" points="772.95,427.94 772.95,210.9 846.12,210.9 846.12,371.2 944.1,371.2 944.1,427.94 "/>
   <polygon id="3" class="fil3" points="991.23,427.94 991.23,267.64 927.67,267.64 927.67,210.9 1127.96,210.9 1127.96,267.64 1064.4,267.64 1064.4,427.94 "/>
   <path id="4" class="fil3" d="M1112.46 427.94l94.87 -217.04 71.93 0 94.88 217.04 -75.65 0 -70.07 -182.31 28.52 0 -70.07 182.31 -74.41 0zm56.43 -37.82l18.6 -52.71 99.84 0 18.6 52.71 -137.05 0z"/>
   <path id="5" class="fil3" d="M1385.92 427.94l0 -217.04 104.48 0c20.26,0 37.77,3.31 52.55,9.92 14.78,6.61 26.2,16.07 34.26,28.37 8.06,12.3 12.09,26.82 12.09,43.56 0,16.74 -4.03,31.16 -12.09,43.25 -8.06,12.09 -19.48,21.34 -34.26,27.75 -14.78,6.41 -32.3,9.61 -52.55,9.61l-63.87 0 32.55 -30.07 0 84.64 -73.17 0zm129.91 0l-53.33 -79.06 77.51 0 53.95 79.06 -78.13 0zm-56.74 -76.58l-32.55 -33.18 59.22 0c10.13,0 17.62,-2.28 22.48,-6.82 4.86,-4.55 7.29,-10.75 7.29,-18.6 0,-7.86 -2.43,-14.06 -7.29,-18.6 -4.86,-4.55 -12.35,-6.82 -22.48,-6.82l-59.22 0 32.55 -33.18 0 117.2z"/>
   <path id="6" class="fil3" d="M1686.36 427.94l94.87 -217.04 71.93 0 94.88 217.04 -75.65 0 -70.07 -182.31 28.52 0 -70.07 182.31 -74.41 0zm56.43 -37.82l18.6 -52.71 99.84 0 18.6 52.71 -137.05 0z"/>
   <path id="7" class="fil3" d="M2070.82 432.9c-17.77,0 -34.16,-2.79 -49.14,-8.37 -14.99,-5.58 -27.95,-13.49 -38.91,-23.72 -10.96,-10.23 -19.48,-22.27 -25.58,-36.12 -6.1,-13.85 -9.14,-28.94 -9.14,-45.27 0,-16.54 3.05,-31.67 9.14,-45.42 6.1,-13.74 14.63,-25.73 25.58,-35.96 10.96,-10.23 23.92,-18.14 38.91,-23.72 14.99,-5.58 31.27,-8.37 48.83,-8.37 17.78,0 34.11,2.79 48.99,8.37 14.88,5.58 27.8,13.49 38.76,23.72 10.96,10.23 19.48,22.22 25.58,35.96 6.1,13.75 9.15,28.89 9.15,45.42 0,16.33 -3.05,31.42 -9.15,45.27 -6.1,13.85 -14.62,25.89 -25.58,36.12 -10.96,10.23 -23.87,18.14 -38.76,23.72 -14.88,5.58 -31.11,8.37 -48.68,8.37zm-0.31 -59.22c6.82,0 13.18,-1.24 19.07,-3.72 5.89,-2.48 11.06,-6.05 15.5,-10.7 4.45,-4.65 7.91,-10.33 10.39,-17.05 2.48,-6.72 3.72,-14.31 3.72,-22.79 0,-8.47 -1.24,-16.07 -3.72,-22.79 -2.48,-6.72 -5.94,-12.4 -10.39,-17.05 -4.44,-4.65 -9.61,-8.22 -15.5,-10.7 -5.89,-2.48 -12.25,-3.72 -19.07,-3.72 -6.82,0 -13.17,1.24 -19.07,3.72 -5.89,2.48 -11.06,6.05 -15.5,10.7 -4.44,4.65 -7.91,10.34 -10.39,17.05 -2.48,6.72 -3.72,14.32 -3.72,22.79 0,8.48 1.24,16.07 3.72,22.79 2.48,6.72 5.94,12.4 10.39,17.05 4.44,4.65 9.61,8.22 15.5,10.7 5.89,2.48 12.25,3.72 19.07,3.72z"/>
   <path id="8" class="fil3" d="M2367.53 432.9c-16.95,0 -32.24,-2.74 -45.89,-8.22 -13.64,-5.48 -25.01,-13.49 -34.1,-24.03l39.38 -46.51c5.79,7.03 11.47,12.35 17.06,15.97 5.58,3.62 11.37,5.43 17.36,5.43 15.71,0 23.56,-8.99 23.56,-26.98l0 -82.47 -73.79 0 0 -55.19 146.03 0 0 133.32c0,29.76 -7.65,51.98 -22.95,66.66 -15.29,14.68 -37.51,22.01 -66.66,22.01z"/>
   <path id="9" class="fil3" d="M2604.72 432.9c-17.77,0 -34.16,-2.79 -49.14,-8.37 -14.99,-5.58 -27.95,-13.49 -38.91,-23.72 -10.96,-10.23 -19.48,-22.27 -25.58,-36.12 -6.1,-13.85 -9.14,-28.94 -9.14,-45.27 0,-16.54 3.05,-31.67 9.14,-45.42 6.1,-13.74 14.63,-25.73 25.58,-35.96 10.96,-10.23 23.92,-18.14 38.91,-23.72 14.99,-5.58 31.27,-8.37 48.83,-8.37 17.78,0 34.11,2.79 48.99,8.37 14.88,5.58 27.8,13.49 38.76,23.72 10.96,10.23 19.48,22.22 25.58,35.96 6.1,13.75 9.15,28.89 9.15,45.42 0,16.33 -3.05,31.42 -9.15,45.27 -6.1,13.85 -14.62,25.89 -25.58,36.12 -10.96,10.23 -23.87,18.14 -38.76,23.72 -14.88,5.58 -31.11,8.37 -48.68,8.37zm-0.31 -59.22c6.82,0 13.18,-1.24 19.07,-3.72 5.89,-2.48 11.06,-6.05 15.5,-10.7 4.45,-4.65 7.91,-10.33 10.39,-17.05 2.48,-6.72 3.72,-14.31 3.72,-22.79 0,-8.47 -1.24,-16.07 -3.72,-22.79 -2.48,-6.72 -5.94,-12.4 -10.39,-17.05 -4.44,-4.65 -9.61,-8.22 -15.5,-10.7 -5.89,-2.48 -12.25,-3.72 -19.07,-3.72 -6.82,0 -13.17,1.24 -19.07,3.72 -5.89,2.48 -11.06,6.05 -15.5,10.7 -4.44,4.65 -7.91,10.34 -10.39,17.05 -2.48,6.72 -3.72,14.32 -3.72,22.79 0,8.48 1.24,16.07 3.72,22.79 2.48,6.72 5.94,12.4 10.39,17.05 4.44,4.65 9.61,8.22 15.5,10.7 5.89,2.48 12.25,3.72 19.07,3.72z"/>
   <path id="10" class="fil3" d="M2866.1 432.9c-17.57,0 -33.74,-2.74 -48.52,-8.22 -14.78,-5.48 -27.59,-13.28 -38.45,-23.41 -10.85,-10.13 -19.28,-22.12 -25.27,-35.97 -6,-13.85 -8.99,-29.15 -8.99,-45.89 0,-16.74 2.99,-32.04 8.99,-45.89 5.99,-13.85 14.47,-25.84 25.42,-35.96 10.95,-10.13 23.92,-17.93 38.91,-23.41 14.99,-5.48 31.47,-8.22 49.45,-8.22 21.5,0 40.67,3.62 57.52,10.85 16.85,7.23 30.75,17.57 41.7,31l-46.82 41.24c-6.82,-7.86 -14.21,-13.8 -22.17,-17.83 -7.96,-4.03 -16.79,-6.05 -26.51,-6.05 -8.06,0 -15.34,1.24 -21.86,3.72 -6.51,2.48 -12.04,6.1 -16.59,10.85 -4.55,4.75 -8.06,10.44 -10.54,17.05 -2.48,6.62 -3.72,14.16 -3.72,22.63 0,8.06 1.24,15.45 3.72,22.17 2.48,6.72 5.99,12.45 10.54,17.21 4.55,4.75 9.97,8.42 16.28,11.01 6.3,2.58 13.38,3.88 21.24,3.88 8.27,0 16.33,-1.4 24.18,-4.19 7.85,-2.79 16.23,-7.6 25.12,-14.42l40.93 50.23c-13.23,8.89 -28.32,15.71 -45.27,20.46 -16.95,4.75 -33.38,7.13 -49.3,7.13zm31 -36.9l0 -82.47 63.56 0 0 91.78 -63.56 -9.3z"/>
   <path id="11" class="fil3" d="M3106.07 432.9c-17.77,0 -34.16,-2.79 -49.14,-8.37 -14.99,-5.58 -27.95,-13.49 -38.91,-23.72 -10.96,-10.23 -19.48,-22.27 -25.58,-36.12 -6.1,-13.85 -9.14,-28.94 -9.14,-45.27 0,-16.54 3.05,-31.67 9.14,-45.42 6.1,-13.74 14.63,-25.73 25.58,-35.96 10.96,-10.23 23.92,-18.14 38.91,-23.72 14.99,-5.58 31.27,-8.37 48.83,-8.37 17.78,0 34.11,2.79 48.99,8.37 14.88,5.58 27.8,13.49 38.76,23.72 10.96,10.23 19.48,22.22 25.58,35.96 6.1,13.75 9.15,28.89 9.15,45.42 0,16.33 -3.05,31.42 -9.15,45.27 -6.1,13.85 -14.62,25.89 -25.58,36.12 -10.96,10.23 -23.87,18.14 -38.76,23.72 -14.88,5.58 -31.11,8.37 -48.68,8.37zm-0.31 -59.22c6.82,0 13.18,-1.24 19.07,-3.72 5.89,-2.48 11.06,-6.05 15.5,-10.7 4.45,-4.65 7.91,-10.33 10.39,-17.05 2.48,-6.72 3.72,-14.31 3.72,-22.79 0,-8.47 -1.24,-16.07 -3.72,-22.79 -2.48,-6.72 -5.94,-12.4 -10.39,-17.05 -4.44,-4.65 -9.61,-8.22 -15.5,-10.7 -5.89,-2.48 -12.25,-3.72 -19.07,-3.72 -6.82,0 -13.17,1.24 -19.07,3.72 -5.89,2.48 -11.06,6.05 -15.5,10.7 -4.44,4.65 -7.91,10.34 -10.39,17.05 -2.48,6.72 -3.72,14.32 -3.72,22.79 0,8.48 1.24,16.07 3.72,22.79 2.48,6.72 5.94,12.4 10.39,17.05 4.44,4.65 9.61,8.22 15.5,10.7 5.89,2.48 12.25,3.72 19.07,3.72z"/>
   <polygon class="fil4" points="342.29,409.63 250.52,192.59 329.27,192.59 403.99,375.83 357.18,375.83 434.07,192.59 506,192.59 414.23,409.63 "/>
   <path id="1" class="fil4" d="M624.13 414.59c-17.77,0 -34.16,-2.79 -49.14,-8.37 -14.99,-5.58 -27.95,-13.49 -38.91,-23.72 -10.96,-10.23 -19.48,-22.27 -25.58,-36.12 -6.1,-13.85 -9.14,-28.94 -9.14,-45.27 0,-16.54 3.05,-31.67 9.14,-45.42 6.1,-13.74 14.63,-25.73 25.58,-35.96 10.96,-10.23 23.92,-18.14 38.91,-23.72 14.99,-5.58 31.27,-8.37 48.83,-8.37 17.78,0 34.11,2.79 48.99,8.37 14.88,5.58 27.8,13.49 38.76,23.72 10.96,10.23 19.48,22.22 25.58,35.96 6.1,13.75 9.15,28.89 9.15,45.42 0,16.33 -3.05,31.42 -9.15,45.27 -6.1,13.85 -14.62,25.89 -25.58,36.12 -10.96,10.23 -23.87,18.14 -38.76,23.72 -14.88,5.58 -31.11,8.37 -48.68,8.37zm-0.31 -59.22c6.82,0 13.18,-1.24 19.07,-3.72 5.89,-2.48 11.06,-6.05 15.5,-10.7 4.45,-4.65 7.91,-10.33 10.39,-17.05 2.48,-6.72 3.72,-14.31 3.72,-22.79 0,-8.47 -1.24,-16.07 -3.72,-22.79 -2.48,-6.72 -5.94,-12.4 -10.39,-17.05 -4.44,-4.65 -9.61,-8.22 -15.5,-10.7 -5.89,-2.48 -12.25,-3.72 -19.07,-3.72 -6.82,0 -13.17,1.24 -19.07,3.72 -5.89,2.48 -11.06,6.05 -15.5,10.7 -4.44,4.65 -7.91,10.34 -10.39,17.05 -2.48,6.72 -3.72,14.32 -3.72,22.79 0,8.48 1.24,16.07 3.72,22.79 2.48,6.72 5.94,12.4 10.39,17.05 4.44,4.65 9.61,8.22 15.5,10.7 5.89,2.48 12.25,3.72 19.07,3.72z"/>
   <polygon id="2" class="fil4" points="772.95,409.63 772.95,192.59 846.12,192.59 846.12,352.89 944.1,352.89 944.1,409.63 "/>
   <polygon id="3" class="fil4" points="991.23,409.63 991.23,249.33 927.67,249.33 927.67,192.59 1127.96,192.59 1127.96,249.33 1064.4,249.33 1064.4,409.63 "/>
   <path id="4" class="fil4" d="M1112.46 409.63l94.87 -217.04 71.93 0 94.88 217.04 -75.65 0 -70.07 -182.31 28.52 0 -70.07 182.31 -74.41 0zm56.43 -37.82l18.6 -52.71 99.84 0 18.6 52.71 -137.05 0z"/>
   <path id="5" class="fil4" d="M1385.92 409.63l0 -217.04 104.48 0c20.26,0 37.77,3.31 52.55,9.92 14.78,6.61 26.2,16.07 34.26,28.37 8.06,12.3 12.09,26.82 12.09,43.56 0,16.74 -4.03,31.16 -12.09,43.25 -8.06,12.09 -19.48,21.34 -34.26,27.75 -14.78,6.41 -32.3,9.61 -52.55,9.61l-63.87 0 32.55 -30.07 0 84.64 -73.17 0zm129.91 0l-53.33 -79.06 77.51 0 53.95 79.06 -78.13 0zm-56.74 -76.58l-32.55 -33.18 59.22 0c10.13,0 17.62,-2.28 22.48,-6.82 4.86,-4.55 7.29,-10.75 7.29,-18.6 0,-7.86 -2.43,-14.06 -7.29,-18.6 -4.86,-4.55 -12.35,-6.82 -22.48,-6.82l-59.22 0 32.55 -33.18 0 117.2z"/>
   <path id="6" class="fil4" d="M1686.36 409.63l94.87 -217.04 71.93 0 94.88 217.04 -75.65 0 -70.07 -182.31 28.52 0 -70.07 182.31 -74.41 0zm56.43 -37.82l18.6 -52.71 99.84 0 18.6 52.71 -137.05 0z"/>
   <path id="7" class="fil4" d="M2070.82 414.59c-17.77,0 -34.16,-2.79 -49.14,-8.37 -14.99,-5.58 -27.95,-13.49 -38.91,-23.72 -10.96,-10.23 -19.48,-22.27 -25.58,-36.12 -6.1,-13.85 -9.14,-28.94 -9.14,-45.27 0,-16.54 3.05,-31.67 9.14,-45.42 6.1,-13.74 14.63,-25.73 25.58,-35.96 10.96,-10.23 23.92,-18.14 38.91,-23.72 14.99,-5.58 31.27,-8.37 48.83,-8.37 17.78,0 34.11,2.79 48.99,8.37 14.88,5.58 27.8,13.49 38.76,23.72 10.96,10.23 19.48,22.22 25.58,35.96 6.1,13.75 9.15,28.89 9.15,45.42 0,16.33 -3.05,31.42 -9.15,45.27 -6.1,13.85 -14.62,25.89 -25.58,36.12 -10.96,10.23 -23.87,18.14 -38.76,23.72 -14.88,5.58 -31.11,8.37 -48.68,8.37zm-0.31 -59.22c6.82,0 13.18,-1.24 19.07,-3.72 5.89,-2.48 11.06,-6.05 15.5,-10.7 4.45,-4.65 7.91,-10.33 10.39,-17.05 2.48,-6.72 3.72,-14.31 3.72,-22.79 0,-8.47 -1.24,-16.07 -3.72,-22.79 -2.48,-6.72 -5.94,-12.4 -10.39,-17.05 -4.44,-4.65 -9.61,-8.22 -15.5,-10.7 -5.89,-2.48 -12.25,-3.72 -19.07,-3.72 -6.82,0 -13.17,1.24 -19.07,3.72 -5.89,2.48 -11.06,6.05 -15.5,10.7 -4.44,4.65 -7.91,10.34 -10.39,17.05 -2.48,6.72 -3.72,14.32 -3.72,22.79 0,8.48 1.24,16.07 3.72,22.79 2.48,6.72 5.94,12.4 10.39,17.05 4.44,4.65 9.61,8.22 15.5,10.7 5.89,2.48 12.25,3.72 19.07,3.72z"/>
   <path id="8" class="fil4" d="M2367.53 414.59c-16.95,0 -32.24,-2.74 -45.89,-8.22 -13.64,-5.48 -25.01,-13.49 -34.1,-24.03l39.38 -46.51c5.79,7.03 11.47,12.35 17.06,15.97 5.58,3.62 11.37,5.43 17.36,5.43 15.71,0 23.56,-8.99 23.56,-26.98l0 -82.47 -73.79 0 0 -55.19 146.03 0 0 133.32c0,29.76 -7.65,51.98 -22.95,66.66 -15.29,14.68 -37.51,22.01 -66.66,22.01z"/>
   <path id="9" class="fil4" d="M2604.72 414.59c-17.77,0 -34.16,-2.79 -49.14,-8.37 -14.99,-5.58 -27.95,-13.49 -38.91,-23.72 -10.96,-10.23 -19.48,-22.27 -25.58,-36.12 -6.1,-13.85 -9.14,-28.94 -9.14,-45.27 0,-16.54 3.05,-31.67 9.14,-45.42 6.1,-13.74 14.63,-25.73 25.58,-35.96 10.96,-10.23 23.92,-18.14 38.91,-23.72 14.99,-5.58 31.27,-8.37 48.83,-8.37 17.78,0 34.11,2.79 48.99,8.37 14.88,5.58 27.8,13.49 38.76,23.72 10.96,10.23 19.48,22.22 25.58,35.96 6.1,13.75 9.15,28.89 9.15,45.42 0,16.33 -3.05,31.42 -9.15,45.27 -6.1,13.85 -14.62,25.89 -25.58,36.12 -10.96,10.23 -23.87,18.14 -38.76,23.72 -14.88,5.58 -31.11,8.37 -48.68,8.37zm-0.31 -59.22c6.82,0 13.18,-1.24 19.07,-3.72 5.89,-2.48 11.06,-6.05 15.5,-10.7 4.45,-4.65 7.91,-10.33 10.39,-17.05 2.48,-6.72 3.72,-14.31 3.72,-22.79 0,-8.47 -1.24,-16.07 -3.72,-22.79 -2.48,-6.72 -5.94,-12.4 -10.39,-17.05 -4.44,-4.65 -9.61,-8.22 -15.5,-10.7 -5.89,-2.48 -12.25,-3.72 -19.07,-3.72 -6.82,0 -13.17,1.24 -19.07,3.72 -5.89,2.48 -11.06,6.05 -15.5,10.7 -4.44,4.65 -7.91,10.34 -10.39,17.05 -2.48,6.72 -3.72,14.32 -3.72,22.79 0,8.48 1.24,16.07 3.72,22.79 2.48,6.72 5.94,12.4 10.39,17.05 4.44,4.65 9.61,8.22 15.5,10.7 5.89,2.48 12.25,3.72 19.07,3.72z"/>
   <path id="10" class="fil4" d="M2866.1 414.59c-17.57,0 -33.74,-2.74 -48.52,-8.22 -14.78,-5.48 -27.59,-13.28 -38.45,-23.41 -10.85,-10.13 -19.28,-22.12 -25.27,-35.97 -6,-13.85 -8.99,-29.15 -8.99,-45.89 0,-16.74 2.99,-32.04 8.99,-45.89 5.99,-13.85 14.47,-25.84 25.42,-35.96 10.95,-10.13 23.92,-17.93 38.91,-23.41 14.99,-5.48 31.47,-8.22 49.45,-8.22 21.5,0 40.67,3.62 57.52,10.85 16.85,7.23 30.75,17.57 41.7,31l-46.82 41.24c-6.82,-7.86 -14.21,-13.8 -22.17,-17.83 -7.96,-4.03 -16.79,-6.05 -26.51,-6.05 -8.06,0 -15.34,1.24 -21.86,3.72 -6.51,2.48 -12.04,6.1 -16.59,10.85 -4.55,4.75 -8.06,10.44 -10.54,17.05 -2.48,6.62 -3.72,14.16 -3.72,22.63 0,8.06 1.24,15.45 3.72,22.17 2.48,6.72 5.99,12.45 10.54,17.21 4.55,4.75 9.97,8.42 16.28,11.01 6.3,2.58 13.38,3.88 21.24,3.88 8.27,0 16.33,-1.4 24.18,-4.19 7.85,-2.79 16.23,-7.6 25.12,-14.42l40.93 50.23c-13.23,8.89 -28.32,15.71 -45.27,20.46 -16.95,4.75 -33.38,7.13 -49.3,7.13zm31 -36.9l0 -82.47 63.56 0 0 91.78 -63.56 -9.3z"/>
   <path id="11" class="fil4" d="M3106.07 414.59c-17.77,0 -34.16,-2.79 -49.14,-8.37 -14.99,-5.58 -27.95,-13.49 -38.91,-23.72 -10.96,-10.23 -19.48,-22.27 -25.58,-36.12 -6.1,-13.85 -9.14,-28.94 -9.14,-45.27 0,-16.54 3.05,-31.67 9.14,-45.42 6.1,-13.74 14.63,-25.73 25.58,-35.96 10.96,-10.23 23.92,-18.14 38.91,-23.72 14.99,-5.58 31.27,-8.37 48.83,-8.37 17.78,0 34.11,2.79 48.99,8.37 14.88,5.58 27.8,13.49 38.76,23.72 10.96,10.23 19.48,22.22 25.58,35.96 6.1,13.75 9.15,28.89 9.15,45.42 0,16.33 -3.05,31.42 -9.15,45.27 -6.1,13.85 -14.62,25.89 -25.58,36.12 -10.96,10.23 -23.87,18.14 -38.76,23.72 -14.88,5.58 -31.11,8.37 -48.68,8.37zm-0.31 -59.22c6.82,0 13.18,-1.24 19.07,-3.72 5.89,-2.48 11.06,-6.05 15.5,-10.7 4.45,-4.65 7.91,-10.33 10.39,-17.05 2.48,-6.72 3.72,-14.31 3.72,-22.79 0,-8.47 -1.24,-16.07 -3.72,-22.79 -2.48,-6.72 -5.94,-12.4 -10.39,-17.05 -4.44,-4.65 -9.61,-8.22 -15.5,-10.7 -5.89,-2.48 -12.25,-3.72 -19.07,-3.72 -6.82,0 -13.17,1.24 -19.07,3.72 -5.89,2.48 -11.06,6.05 -15.5,10.7 -4.44,4.65 -7.91,10.34 -10.39,17.05 -2.48,6.72 -3.72,14.32 -3.72,22.79 0,8.48 1.24,16.07 3.72,22.79 2.48,6.72 5.94,12.4 10.39,17.05 4.44,4.65 9.61,8.22 15.5,10.7 5.89,2.48 12.25,3.72 19.07,3.72z"/>
  </g>
 </g>
</svg>
