<?xml version="1.0" encoding="UTF-8"?>
<!DOCTYPE svg PUBLIC "-//W3C//DTD SVG 1.1//EN" "http://www.w3.org/Graphics/SVG/1.1/DTD/svg11.dtd">
<!-- Creator: CorelDRAW 2020 (64 Bit) -->
<svg xmlns="http://www.w3.org/2000/svg" xml:space="preserve" width="21.2859mm" height="21.2859mm" version="1.1" style="shape-rendering:geometricPrecision; text-rendering:geometricPrecision; image-rendering:optimizeQuality; fill-rule:evenodd; clip-rule:evenodd"
viewBox="0 0 1245.14 1245.14"
 xmlns:xlink="http://www.w3.org/1999/xlink"
 xmlns:xodm="http://www.corel.com/coreldraw/odm/2003">
 <defs>
  <style type="text/css">
   <![CDATA[
    .fil0 {fill:#FEFEFE}
    .fil1 {fill:#373435;fill-rule:nonzero}
   ]]>
  </style>
 </defs>
 <g id="Camada_x0020_1">
  <metadata id="CorelCorpID_0Corel-Layer"/>
  <circle class="fil0" cx="622.57" cy="622.57" r="622.57"/>
  <path class="fil1" d="M246.75 859.35l0 -433.36 208.63 0c40.45,0 75.42,6.6 104.94,19.81 29.51,13.2 52.31,32.09 68.41,56.64 16.1,24.56 24.15,53.55 24.15,86.98 0,33.43 -8.05,62.32 -24.15,86.67 -16.09,24.35 -38.89,43.23 -68.41,56.65 -29.51,13.41 -64.49,20.12 -104.94,20.12l-127.53 0 65 -62.53 0 169.01 -146.11 0zm146.11 -152.91l-65 -66.24 118.24 0c20.22,0 35.19,-4.54 44.88,-13.62 9.7,-9.08 14.55,-21.46 14.55,-37.15 0,-15.68 -4.85,-28.07 -14.55,-37.15 -9.7,-9.08 -24.66,-13.62 -44.88,-13.62l-118.24 0 65 -66.25 0 234.01z"/>
  <path id="1" class="fil1" d="M688.78 859.35l0 -89.77 156.63 -144.87c9.9,-9.49 17.23,-17.75 21.98,-24.76 4.75,-7.01 7.94,-13.31 9.6,-18.88 1.65,-5.57 2.47,-10.83 2.47,-15.79 0,-10.73 -3.51,-19.09 -10.52,-25.07 -7.02,-5.98 -17.54,-8.97 -31.58,-8.97 -12.79,0 -24.97,3.4 -36.52,10.21 -11.55,6.81 -20.64,16.82 -27.24,30.03l-110.19 -55.1c15.68,-29.72 39.21,-53.86 70.58,-72.44 31.37,-18.57 70.37,-27.86 117.01,-27.86 34.26,0 64.59,5.57 91,16.71 26.42,11.14 47.05,26.83 61.91,47.05 14.86,20.23 22.29,44.16 22.29,71.82 0,14.03 -1.75,28.07 -5.26,42.1 -3.51,14.03 -10.63,28.79 -21.36,44.26 -10.73,15.48 -26.62,32.71 -47.67,51.69l-117.62 107.1 -22.91 -50.76 224.73 0 0 113.29 -347.31 0z"/>
 </g>
</svg>
