<?xml version="1.0" encoding="UTF-8"?>
<!DOCTYPE svg PUBLIC "-//W3C//DTD SVG 1.1//EN" "http://www.w3.org/Graphics/SVG/1.1/DTD/svg11.dtd">
<!-- Creator: CorelDRAW 2020 (64 Bit) -->
<svg xmlns="http://www.w3.org/2000/svg" xml:space="preserve" width="19.1537mm" height="19.1537mm" version="1.1" style="shape-rendering:geometricPrecision; text-rendering:geometricPrecision; image-rendering:optimizeQuality; fill-rule:evenodd; clip-rule:evenodd"
viewBox="0 0 527.52 527.52"
 xmlns:xlink="http://www.w3.org/1999/xlink"
 xmlns:xodm="http://www.corel.com/coreldraw/odm/2003">
 <defs>
  <style type="text/css">
   <![CDATA[
    .fil0 {fill:#373435}
    .fil1 {fill:#FEFEFE;fill-rule:nonzero}
   ]]>
  </style>
 </defs>
 <g id="Camada_x0020_1">
  <metadata id="CorelCorpID_0Corel-Layer"/>
  <g id="_1903182496064">
   <circle class="fil0" cx="263.76" cy="263.76" r="263.76"/>
   <path class="fil1" d="M296.46 389.14c0,4.9 1.1,8.45 3.29,10.64 2.19,2.19 5.74,3.29 10.64,3.29l58.82 0c4.9,0 8.45,-1.1 10.64,-3.29 2.19,-2.19 3.29,-5.74 3.29,-10.64l0 -41.41c0,-11.86 -1.03,-20.77 -3.1,-26.7 -2.06,-5.94 -5.93,-12.9 -11.61,-20.9l-31.35 -42.18 31.35 -42.18c5.93,-8 9.87,-14.96 11.8,-20.9 1.94,-5.93 2.9,-14.83 2.9,-26.7l0 -29.8c0,-4.9 -1.1,-8.45 -3.29,-10.64 -2.19,-2.2 -5.74,-3.29 -10.64,-3.29l-59.59 0c-4.9,0 -8.45,1.1 -10.64,3.29 -2.19,2.19 -3.29,5.74 -3.29,10.64l0 26.7c0,2.58 -0.13,5.29 -0.39,8.12 -0.26,2.84 -1.29,5.55 -3.1,8.13l-17.03 24.38c-1.29,2.07 -2.64,3.68 -4.06,4.84 -1.42,1.16 -3.16,1.74 -5.22,1.74l-4.64 0c-2.06,0 -3.74,-0.58 -5.03,-1.74 -1.29,-1.16 -2.71,-2.77 -4.26,-4.84l-17.41 -24.38c-1.81,-2.58 -2.84,-5.29 -3.1,-8.13 -0.26,-2.84 -0.39,-5.54 -0.39,-8.12l0 -26.7c0,-4.9 -1.1,-8.45 -3.29,-10.64 -2.19,-2.2 -5.74,-3.29 -10.64,-3.29l-58.82 0c-4.9,0 -8.45,1.1 -10.64,3.29 -2.19,2.19 -3.29,5.74 -3.29,10.64l0 29.8c0,11.87 1.03,20.77 3.1,26.7 2.06,5.94 5.93,12.9 11.61,20.9l31.34 42.57 -31.34 41.79c-5.93,8 -9.87,14.96 -11.8,20.9 -1.94,5.93 -2.9,14.83 -2.9,26.7l0 41.41c0,4.9 1.1,8.45 3.29,10.64 2.19,2.19 5.74,3.29 10.64,3.29l58.82 0c4.9,0 8.45,-1.1 10.64,-3.29 2.19,-2.19 3.29,-5.74 3.29,-10.64l0 -38.31c0,-2.58 0.13,-5.29 0.39,-8.12 0.26,-2.84 1.29,-5.55 3.1,-8.13l17.03 -24.38c1.55,-2.32 2.97,-4 4.26,-5.03 1.29,-1.03 2.97,-1.55 5.03,-1.55l5.42 0c2.06,0 3.74,0.52 5.03,1.55 1.29,1.03 2.71,2.71 4.26,5.03l17.41 24.38c1.81,2.58 2.84,5.29 3.1,8.13 0.26,2.84 0.39,5.55 0.39,8.12l0 38.31z"/>
  </g>
 </g>
</svg>
