<?xml version="1.0" encoding="UTF-8"?>
<!DOCTYPE svg PUBLIC "-//W3C//DTD SVG 1.1//EN" "http://www.w3.org/Graphics/SVG/1.1/DTD/svg11.dtd">
<!-- Creator: CorelDRAW 2020 (64 Bit) -->
<svg xmlns="http://www.w3.org/2000/svg" xml:space="preserve" width="14.9642mm" height="15.482mm" version="1.1" style="shape-rendering:geometricPrecision; text-rendering:geometricPrecision; image-rendering:optimizeQuality; fill-rule:evenodd; clip-rule:evenodd"
viewBox="0 0 80.69 83.48"
 xmlns:xlink="http://www.w3.org/1999/xlink"
 xmlns:xodm="http://www.corel.com/coreldraw/odm/2003">
 <defs>
  <style type="text/css">
   <![CDATA[
    .fil1 {fill:#7670A1}
    .fil0 {fill:#3E4095}
    .fil4 {fill:#FEFEFE;fill-rule:nonzero}
    .fil3 {fill:#85C2DD;fill-rule:nonzero}
    .fil2 {fill:#3E4095;fill-rule:nonzero}
   ]]>
  </style>
 </defs>
 <g id="Camada_x0020_1">
  <metadata id="CorelCorpID_0Corel-Layer"/>
  <path class="fil0" d="M9.16 7.38l62.38 0c5.04,0 9.16,4.12 9.16,9.16l0 57.79c0,5.03 -4.12,9.16 -9.16,9.16l-62.38 0c-5.04,0 -9.16,-4.12 -9.16,-9.16l0 -57.79c0,-5.04 4.12,-9.16 9.16,-9.16z"/>
  <path class="fil1" d="M9.16 0l62.38 0c5.04,0 9.16,4.12 9.16,9.16l0 57.79c0,5.03 -4.12,9.16 -9.16,9.16l-62.38 0c-5.04,0 -9.16,-4.12 -9.16,-9.16l0 -57.79c0,-5.04 4.12,-9.16 9.16,-9.16z"/>
  <path class="fil2" d="M17.73 14.39l23.64 0 0 25.53 -25.53 0 0 -25.53 1.89 0zm19.86 3.78l-17.97 0 0 17.97 17.97 0 0 -17.97zm10.5 -3.78l23.64 0 0 25.53 -25.53 0 0 -25.53 1.89 0zm19.86 3.78l-17.97 0 0 17.97 17.97 0 0 -17.97zm-50.22 25.21l23.64 0 0 25.53 -25.53 0 0 -25.53 1.89 0zm19.86 3.78l-17.97 0 0 17.97 17.97 0 0 -17.97zm10.5 -3.78l23.64 0 0 25.53 -25.53 0 0 -25.53 1.89 0zm19.86 3.78l-17.97 0 0 17.97 17.97 0 0 -17.97z"/>
  <path class="fil3" d="M15.78 12.52l23.64 0 0 25.53 -25.53 0 0 -25.53 1.89 0zm19.86 3.78l-17.97 0 0 17.97 17.97 0 0 -17.97zm10.5 -3.78l23.64 0 0 25.53 -25.53 0 0 -25.53 1.89 0zm19.86 3.78l-17.97 0 0 17.97 17.97 0 0 -17.97zm-50.22 25.21l23.64 0 0 25.53 -25.53 0 0 -25.53 1.89 0zm19.86 3.78l-17.97 0 0 17.97 17.97 0 0 -17.97zm10.5 -3.78l23.64 0 0 25.53 -25.53 0 0 -25.53 1.89 0zm19.86 3.78l-17.97 0 0 17.97 17.97 0 0 -17.97z"/>
  <path class="fil4" d="M14.08 10.68l23.64 0 0 25.53 -25.53 0 0 -25.53 1.89 0zm19.86 3.78l-17.97 0 0 17.97 17.97 0 0 -17.97zm10.5 -3.78l23.64 0 0 25.53 -25.53 0 0 -25.53 1.89 0zm19.86 3.78l-17.97 0 0 17.97 17.97 0 0 -17.97zm-50.22 25.21l23.64 0 0 25.53 -25.53 0 0 -25.53 1.89 0zm19.86 3.78l-17.97 0 0 17.97 17.97 0 0 -17.97zm10.5 -3.78l23.64 0 0 25.53 -25.53 0 0 -25.53 1.89 0zm19.86 3.78l-17.97 0 0 17.97 17.97 0 0 -17.97z"/>
 </g>
</svg>
