<?xml version="1.0" encoding="UTF-8"?>
<!DOCTYPE svg PUBLIC "-//W3C//DTD SVG 1.1//EN" "http://www.w3.org/Graphics/SVG/1.1/DTD/svg11.dtd">
<!-- Creator: CorelDRAW 2020 (64 Bit) -->
<svg xmlns="http://www.w3.org/2000/svg" xml:space="preserve" width="16.2328mm" height="18.0131mm" version="1.1" style="shape-rendering:geometricPrecision; text-rendering:geometricPrecision; image-rendering:optimizeQuality; fill-rule:evenodd; clip-rule:evenodd"
viewBox="0 0 108.81 120.75"
 xmlns:xlink="http://www.w3.org/1999/xlink"
 xmlns:xodm="http://www.corel.com/coreldraw/odm/2003">
 <defs>
  <style type="text/css">
   <![CDATA[
    .fil3 {fill:#FEFEFE}
    .fil2 {fill:#97D9F0}
    .fil1 {fill:#756EB1}
    .fil0 {fill:#32366D}
   ]]>
  </style>
 </defs>
 <g id="Camada_x0020_1">
  <metadata id="CorelCorpID_0Corel-Layer"/>
  <path class="fil0" d="M11.51 17.64l85.8 0c6.33,0 11.51,5.58 11.51,12.41l0 78.3c0,6.82 -5.18,12.41 -11.51,12.41l-85.8 0c-6.33,0 -11.51,-5.58 -11.51,-12.41l0 -78.3c0,-6.82 5.18,-12.41 11.51,-12.41z"/>
  <path class="fil1" d="M11.51 0l85.8 0c6.33,0 11.51,5.58 11.51,12.41l0 78.3c0,6.82 -5.18,12.41 -11.51,12.41l-85.8 0c-6.33,0 -11.51,-5.58 -11.51,-12.41l0 -78.3c0,-6.82 5.18,-12.41 11.51,-12.41z"/>
  <path class="fil0" d="M32.91 31.88l42.98 0c3.17,0 5.77,2.8 5.77,6.22l0 39.23c0,3.42 -2.6,6.22 -5.77,6.22l-42.98 0c-3.17,0 -5.77,-2.8 -5.77,-6.22l0 -39.23c0,-3.42 2.59,-6.22 5.77,-6.22z"/>
  <path class="fil2" d="M32.91 27.07l42.99 0c3.17,0 5.77,2.8 5.77,6.22l0 39.23c0,3.42 -2.59,6.22 -5.77,6.22l-42.99 0c-3.17,0 -5.77,-2.8 -5.77,-6.22l0 -39.23c0,-3.42 2.59,-6.22 5.77,-6.22z"/>
  <path class="fil3" d="M32.91 23.46l42.98 0c3.17,0 5.77,2.8 5.77,6.22l0 39.23c0,3.42 -2.6,6.22 -5.77,6.22l-42.98 0c-3.17,0 -5.77,-2.8 -5.77,-6.22l0 -39.23c0,-3.42 2.59,-6.22 5.77,-6.22z"/>
  <path class="fil3" d="M32.91 22.16l42.99 0c3.17,0 5.77,2.8 5.77,6.22l0 1.12 -41.41 0c-3.17,0 -5.77,2.8 -5.77,6.22l0 38.11 -1.57 0c-3.17,0 -5.77,-2.8 -5.77,-6.22l0 -39.23c0,-3.42 2.59,-6.22 5.77,-6.22z"/>
 </g>
</svg>
