<?xml version="1.0" encoding="UTF-8"?>
<!DOCTYPE svg PUBLIC "-//W3C//DTD SVG 1.1//EN" "http://www.w3.org/Graphics/SVG/1.1/DTD/svg11.dtd">
<!-- Creator: CorelDRAW 2020 (64 Bit) -->
<svg xmlns="http://www.w3.org/2000/svg" xml:space="preserve" width="49.9045mm" height="18.0131mm" version="1.1" style="shape-rendering:geometricPrecision; text-rendering:geometricPrecision; image-rendering:optimizeQuality; fill-rule:evenodd; clip-rule:evenodd"
viewBox="0 0 1999.65 721.78"
 xmlns:xlink="http://www.w3.org/1999/xlink"
 xmlns:xodm="http://www.corel.com/coreldraw/odm/2003">
 <defs>
  <style type="text/css">
   <![CDATA[
    .fil1 {fill:#5FC7D4}
    .fil0 {fill:#0B8B95}
    .fil4 {fill:#FEFEFE;fill-rule:nonzero}
    .fil3 {fill:#C6E5F5;fill-rule:nonzero}
    .fil2 {fill:#58A5C1;fill-rule:nonzero}
   ]]>
  </style>
 </defs>
 <g id="Camada_x0020_1">
  <metadata id="CorelCorpID_0Corel-Layer"/>
  <path class="fil0" d="M54.53 105.43l1890.59 0c29.99,0 54.53,33.37 54.53,74.16l0 468.04c0,40.78 -24.54,74.16 -54.53,74.16l-1890.59 0c-29.99,0 -54.53,-33.37 -54.53,-74.16l0 -468.04c0,-40.79 24.54,-74.16 54.53,-74.16z"/>
  <path class="fil1" d="M54.53 0l1890.59 0c29.99,0 54.53,33.37 54.53,74.16l0 468.03c0,40.79 -24.54,74.16 -54.53,74.16l-1890.59 0c-29.99,0 -54.53,-33.37 -54.53,-74.16l0 -468.03c0,-40.79 24.54,-74.16 54.53,-74.16z"/>
  <polygon class="fil2" points="377.21,481.47 377.21,253.8 453.96,253.8 453.96,421.95 556.73,421.95 556.73,481.47 "/>
  <polygon id="1" class="fil2" points="577.88,481.47 577.88,253.8 654.63,253.8 654.63,481.47 "/>
  <polygon id="2" class="fil2" points="691.71,481.47 691.71,253.8 754.81,253.8 845.87,402.44 812.7,402.44 901.16,253.8 964.26,253.8 964.91,481.47 894.99,481.47 894.33,359.18 905.39,359.18 844.9,460.98 811.07,460.98 747.98,359.18 761.64,359.18 761.64,481.47 "/>
  <path id="3" class="fil2" d="M1001.99 481.47l0 -227.67 109.6 0c21.25,0 39.62,3.47 55.13,10.41 15.5,6.94 27.48,16.86 35.94,29.76 8.46,12.9 12.69,28.13 12.69,45.7 0,17.56 -4.23,32.74 -12.69,45.53 -8.45,12.79 -20.44,22.72 -35.94,29.76 -15.5,7.05 -33.88,10.57 -55.13,10.57l-67 0 34.15 -32.85 0 88.79 -76.75 0zm76.75 -80.33l-34.15 -34.8 62.12 0c10.62,0 18.48,-2.39 23.58,-7.16 5.1,-4.77 7.65,-11.28 7.65,-19.51 0,-8.24 -2.55,-14.75 -7.65,-19.51 -5.09,-4.77 -12.95,-7.16 -23.58,-7.16l-62.12 0 34.15 -34.8 0 122.94z"/>
  <path id="4" class="fil2" d="M1204.28 481.47l99.52 -227.67 75.46 0 99.52 227.67 -79.36 0 -73.5 -191.24 29.92 0 -73.5 191.24 -78.06 0zm59.19 -39.68l19.51 -55.29 104.73 0 19.51 55.29 -143.76 0z"/>
  <path id="5" class="fil2" d="M1491.14 481.47l0 -227.67 109.6 0c21.25,0 39.62,3.47 55.13,10.41 15.5,6.94 27.48,16.86 35.94,29.76 8.46,12.9 12.69,28.13 12.69,45.7 0,17.56 -4.23,32.68 -12.69,45.37 -8.45,12.68 -20.44,22.39 -35.94,29.11 -15.5,6.72 -33.88,10.08 -55.13,10.08l-67 0 34.15 -31.55 0 88.79 -76.75 0zm136.27 0l-55.94 -82.94 81.31 0 56.59 82.94 -81.96 0zm-59.52 -80.33l-34.15 -34.8 62.12 0c10.62,0 18.48,-2.39 23.58,-7.16 5.1,-4.77 7.65,-11.28 7.65,-19.51 0,-8.24 -2.55,-14.75 -7.65,-19.51 -5.09,-4.77 -12.95,-7.16 -23.58,-7.16l-62.12 0 34.15 -34.8 0 122.94z"/>
  <polygon class="fil3" points="340.89,448.9 340.89,221.23 417.65,221.23 417.65,389.38 520.42,389.38 520.42,448.9 "/>
  <polygon id="1" class="fil3" points="541.56,448.9 541.56,221.23 618.32,221.23 618.32,448.9 "/>
  <polygon id="2" class="fil3" points="655.4,448.9 655.4,221.23 718.49,221.23 809.56,369.87 776.38,369.87 864.85,221.23 927.94,221.23 928.6,448.9 858.67,448.9 858.02,326.61 869.08,326.61 808.58,428.41 774.76,428.41 711.66,326.61 725.32,326.61 725.32,448.9 "/>
  <path id="3" class="fil3" d="M965.67 448.9l0 -227.67 109.6 0c21.25,0 39.62,3.47 55.13,10.41 15.5,6.94 27.48,16.86 35.94,29.76 8.46,12.9 12.69,28.13 12.69,45.7 0,17.56 -4.23,32.74 -12.69,45.53 -8.45,12.79 -20.44,22.72 -35.94,29.76 -15.5,7.05 -33.88,10.57 -55.13,10.57l-67 0 34.15 -32.85 0 88.79 -76.75 0zm76.75 -80.33l-34.15 -34.8 62.12 0c10.62,0 18.48,-2.39 23.58,-7.16 5.1,-4.77 7.65,-11.28 7.65,-19.51 0,-8.24 -2.55,-14.75 -7.65,-19.51 -5.09,-4.77 -12.95,-7.16 -23.58,-7.16l-62.12 0 34.15 -34.8 0 122.94z"/>
  <path id="4" class="fil3" d="M1167.97 448.9l99.52 -227.67 75.46 0 99.52 227.67 -79.36 0 -73.5 -191.24 29.92 0 -73.5 191.24 -78.06 0zm59.19 -39.68l19.51 -55.29 104.73 0 19.51 55.29 -143.76 0z"/>
  <path id="5" class="fil3" d="M1454.83 448.9l0 -227.67 109.6 0c21.25,0 39.62,3.47 55.13,10.41 15.5,6.94 27.48,16.86 35.94,29.76 8.46,12.9 12.69,28.13 12.69,45.7 0,17.56 -4.23,32.68 -12.69,45.37 -8.45,12.68 -20.44,22.39 -35.94,29.11 -15.5,6.72 -33.88,10.08 -55.13,10.08l-67 0 34.15 -31.55 0 88.79 -76.75 0zm136.27 0l-55.94 -82.94 81.31 0 56.59 82.94 -81.96 0zm-59.52 -80.33l-34.15 -34.8 62.12 0c10.62,0 18.48,-2.39 23.58,-7.16 5.1,-4.77 7.65,-11.28 7.65,-19.51 0,-8.24 -2.55,-14.75 -7.65,-19.51 -5.09,-4.77 -12.95,-7.16 -23.58,-7.16l-62.12 0 34.15 -34.8 0 122.94z"/>
  <polygon class="fil4" points="340.89,429.69 340.89,202.02 417.65,202.02 417.65,370.17 520.42,370.17 520.42,429.69 "/>
  <polygon id="1" class="fil4" points="541.56,429.69 541.56,202.02 618.32,202.02 618.32,429.69 "/>
  <polygon id="2" class="fil4" points="655.4,429.69 655.4,202.02 718.49,202.02 809.56,350.66 776.38,350.66 864.85,202.02 927.94,202.02 928.6,429.69 858.67,429.69 858.02,307.4 869.08,307.4 808.58,409.2 774.76,409.2 711.66,307.4 725.32,307.4 725.32,429.69 "/>
  <path id="3" class="fil4" d="M965.67 429.69l0 -227.67 109.6 0c21.25,0 39.62,3.47 55.13,10.41 15.5,6.94 27.48,16.86 35.94,29.76 8.46,12.9 12.69,28.13 12.69,45.7 0,17.56 -4.23,32.74 -12.69,45.53 -8.45,12.79 -20.44,22.72 -35.94,29.76 -15.5,7.05 -33.88,10.57 -55.13,10.57l-67 0 34.15 -32.85 0 88.79 -76.75 0zm76.75 -80.33l-34.15 -34.8 62.12 0c10.62,0 18.48,-2.39 23.58,-7.16 5.1,-4.77 7.65,-11.28 7.65,-19.51 0,-8.24 -2.55,-14.75 -7.65,-19.51 -5.09,-4.77 -12.95,-7.16 -23.58,-7.16l-62.12 0 34.15 -34.8 0 122.94z"/>
  <path id="4" class="fil4" d="M1167.97 429.69l99.52 -227.67 75.46 0 99.52 227.67 -79.36 0 -73.5 -191.24 29.92 0 -73.5 191.24 -78.06 0zm59.19 -39.68l19.51 -55.29 104.73 0 19.51 55.29 -143.76 0z"/>
  <path id="5" class="fil4" d="M1454.83 429.69l0 -227.67 109.6 0c21.25,0 39.62,3.47 55.13,10.41 15.5,6.94 27.48,16.86 35.94,29.76 8.46,12.9 12.69,28.13 12.69,45.7 0,17.56 -4.23,32.68 -12.69,45.37 -8.45,12.68 -20.44,22.39 -35.94,29.11 -15.5,6.72 -33.88,10.08 -55.13,10.08l-67 0 34.15 -31.55 0 88.79 -76.75 0zm136.27 0l-55.94 -82.94 81.31 0 56.59 82.94 -81.96 0zm-59.52 -80.33l-34.15 -34.8 62.12 0c10.62,0 18.48,-2.39 23.58,-7.16 5.1,-4.77 7.65,-11.28 7.65,-19.51 0,-8.24 -2.55,-14.75 -7.65,-19.51 -5.09,-4.77 -12.95,-7.16 -23.58,-7.16l-62.12 0 34.15 -34.8 0 122.94z"/>
 </g>
</svg>
