<?xml version="1.0" encoding="UTF-8"?>
<!DOCTYPE svg PUBLIC "-//W3C//DTD SVG 1.1//EN" "http://www.w3.org/Graphics/SVG/1.1/DTD/svg11.dtd">
<!-- Creator: CorelDRAW 2020 (64 Bit) -->
<svg xmlns="http://www.w3.org/2000/svg" xml:space="preserve" width="16.0281mm" height="16.5826mm" version="1.1" style="shape-rendering:geometricPrecision; text-rendering:geometricPrecision; image-rendering:optimizeQuality; fill-rule:evenodd; clip-rule:evenodd"
viewBox="0 0 105.92 109.58"
 xmlns:xlink="http://www.w3.org/1999/xlink"
 xmlns:xodm="http://www.corel.com/coreldraw/odm/2003">
 <defs>
  <style type="text/css">
   <![CDATA[
    .fil1 {fill:#8C7FBA}
    .fil0 {fill:#3E4095}
    .fil4 {fill:#FEFEFE;fill-rule:nonzero}
    .fil3 {fill:#85C2DD;fill-rule:nonzero}
    .fil2 {fill:#3E4095;fill-rule:nonzero}
   ]]>
  </style>
 </defs>
 <g id="Camada_x0020_1">
  <metadata id="CorelCorpID_0Corel-Layer"/>
  <path class="fil0" d="M12.02 9.68l81.88 0c6.61,0 12.02,5.41 12.02,12.02l0 75.86c0,6.61 -5.41,12.02 -12.02,12.02l-81.88 0c-6.61,0 -12.02,-5.41 -12.02,-12.02l0 -75.86c0,-6.61 5.41,-12.02 12.02,-12.02z"/>
  <path class="fil1" d="M12.02 0l81.88 0c6.61,0 12.02,5.41 12.02,12.02l0 75.86c0,6.61 -5.41,12.02 -12.02,12.02l-81.88 0c-6.61,0 -12.02,-5.41 -12.02,-12.02l0 -75.86c0,-6.61 5.41,-12.02 12.02,-12.02z"/>
  <path class="fil2" d="M50.6 65.34c0,-1.98 0.32,-3.74 0.95,-5.27 0.63,-1.53 1.43,-2.9 2.39,-4.1 0.96,-1.2 2,-2.3 3.11,-3.29 1.11,-0.99 2.15,-1.95 3.11,-2.88 0.96,-0.93 1.76,-1.88 2.39,-2.84 0.63,-0.96 0.95,-2.01 0.95,-3.15 0,-1.8 -0.74,-3.21 -2.21,-4.23 -1.47,-1.02 -3.38,-1.53 -5.72,-1.53 -2.4,0 -4.58,0.57 -6.53,1.71 -1.95,1.14 -3.53,2.73 -4.73,4.77l-13.42 -7.2c2.34,-4.02 5.73,-7.25 10.17,-9.68 4.44,-2.43 9.96,-3.65 16.57,-3.65 4.62,0 8.72,0.64 12.29,1.94 3.57,1.29 6.38,3.2 8.42,5.72 2.04,2.52 3.06,5.61 3.06,9.27 0,2.34 -0.36,4.38 -1.08,6.12 -0.72,1.74 -1.64,3.27 -2.75,4.59 -1.11,1.32 -2.3,2.54 -3.56,3.65 -1.26,1.11 -2.45,2.18 -3.56,3.2 -1.11,1.02 -2.03,2.07 -2.75,3.15 -0.72,1.08 -1.08,2.31 -1.08,3.69l-16.03 0zm8.01 23.77c-2.94,0 -5.37,-0.93 -7.29,-2.79 -1.92,-1.86 -2.88,-4.08 -2.88,-6.66 0,-2.64 0.96,-4.85 2.88,-6.62 1.92,-1.77 4.35,-2.66 7.29,-2.66 3.06,0 5.54,0.89 7.43,2.66 1.89,1.77 2.84,3.98 2.84,6.62 0,2.58 -0.95,4.8 -2.84,6.66 -1.89,1.86 -4.37,2.79 -7.43,2.79z"/>
  <path class="fil3" d="M47.54 61.37c0,-1.98 0.32,-3.74 0.95,-5.27 0.63,-1.53 1.43,-2.9 2.39,-4.1 0.96,-1.2 2,-2.3 3.11,-3.29 1.11,-0.99 2.15,-1.95 3.11,-2.88 0.96,-0.93 1.76,-1.88 2.39,-2.84 0.63,-0.96 0.95,-2.01 0.95,-3.15 0,-1.8 -0.74,-3.21 -2.21,-4.23 -1.47,-1.02 -3.38,-1.53 -5.72,-1.53 -2.4,0 -4.58,0.57 -6.53,1.71 -1.95,1.14 -3.53,2.73 -4.73,4.77l-13.42 -7.2c2.34,-4.02 5.73,-7.25 10.17,-9.68 4.44,-2.43 9.96,-3.65 16.57,-3.65 4.62,0 8.72,0.64 12.29,1.94 3.57,1.29 6.38,3.2 8.42,5.72 2.04,2.52 3.06,5.61 3.06,9.27 0,2.34 -0.36,4.38 -1.08,6.12 -0.72,1.74 -1.64,3.27 -2.75,4.59 -1.11,1.32 -2.3,2.54 -3.56,3.65 -1.26,1.11 -2.45,2.18 -3.56,3.2 -1.11,1.02 -2.03,2.07 -2.75,3.15 -0.72,1.08 -1.08,2.31 -1.08,3.69l-16.03 0zm8.01 23.77c-2.94,0 -5.37,-0.93 -7.29,-2.79 -1.92,-1.86 -2.88,-4.08 -2.88,-6.66 0,-2.64 0.96,-4.85 2.88,-6.62 1.92,-1.77 4.35,-2.66 7.29,-2.66 3.06,0 5.54,0.89 7.43,2.66 1.89,1.77 2.84,3.98 2.84,6.62 0,2.58 -0.95,4.8 -2.84,6.66 -1.89,1.86 -4.37,2.79 -7.43,2.79z"/>
  <path class="fil4" d="M45.19 58.32c0,-1.98 0.32,-3.74 0.95,-5.27 0.63,-1.53 1.43,-2.9 2.39,-4.1 0.96,-1.2 2,-2.3 3.11,-3.29 1.11,-0.99 2.15,-1.95 3.11,-2.88 0.96,-0.93 1.76,-1.88 2.39,-2.84 0.63,-0.96 0.95,-2.01 0.95,-3.15 0,-1.8 -0.74,-3.21 -2.21,-4.23 -1.47,-1.02 -3.38,-1.53 -5.72,-1.53 -2.4,0 -4.58,0.57 -6.53,1.71 -1.95,1.14 -3.53,2.73 -4.73,4.77l-13.42 -7.2c2.34,-4.02 5.73,-7.25 10.17,-9.68 4.44,-2.43 9.96,-3.65 16.57,-3.65 4.62,0 8.72,0.64 12.29,1.94 3.57,1.29 6.38,3.2 8.42,5.72 2.04,2.52 3.06,5.61 3.06,9.27 0,2.34 -0.36,4.38 -1.08,6.12 -0.72,1.74 -1.64,3.27 -2.75,4.59 -1.11,1.32 -2.3,2.54 -3.56,3.65 -1.26,1.11 -2.45,2.18 -3.56,3.2 -1.11,1.02 -2.03,2.07 -2.75,3.15 -0.72,1.08 -1.08,2.31 -1.08,3.69l-16.03 0zm8.01 23.77c-2.94,0 -5.37,-0.93 -7.29,-2.79 -1.92,-1.86 -2.88,-4.08 -2.88,-6.66 0,-2.64 0.96,-4.85 2.88,-6.62 1.92,-1.77 4.35,-2.66 7.29,-2.66 3.06,0 5.54,0.89 7.43,2.66 1.89,1.77 2.84,3.98 2.84,6.62 0,2.58 -0.95,4.8 -2.84,6.66 -1.89,1.86 -4.37,2.79 -7.43,2.79z"/>
 </g>
</svg>
