<?xml version="1.0" encoding="UTF-8"?>
<!DOCTYPE svg PUBLIC "-//W3C//DTD SVG 1.1//EN" "http://www.w3.org/Graphics/SVG/1.1/DTD/svg11.dtd">
<!-- Creator: CorelDRAW 2020 (64 Bit) -->
<svg xmlns="http://www.w3.org/2000/svg" xml:space="preserve" width="270.075mm" height="240.503mm" version="1.1" style="shape-rendering:geometricPrecision; text-rendering:geometricPrecision; image-rendering:optimizeQuality; fill-rule:evenodd; clip-rule:evenodd"
viewBox="0 0 9787.72 8716.01"
 xmlns:xlink="http://www.w3.org/1999/xlink"
 xmlns:xodm="http://www.corel.com/coreldraw/odm/2003">
 <defs>
  <style type="text/css">
   <![CDATA[
    .str0 {stroke:#C8C5E2;stroke-width:7.25;stroke-miterlimit:22.9256}
    .fil0 {fill:#7670A1}
   ]]>
  </style>
 </defs>
 <g id="Camada_x0020_1">
  <metadata id="CorelCorpID_0Corel-Layer"/>
  <g id="_2951538633968">
   <g>
    <path class="fil0" d="M375.25 0l9037.22 0c206.39,0 375.25,182.94 375.25,406.5l0 7903.04c0,223.52 -168.9,406.47 -375.25,406.47l-9037.22 0c-206.37,0 -375.25,-182.91 -375.25,-406.47l0 -7903.04c0,-223.58 168.86,-406.5 375.25,-406.5z"/>
   </g>
   <path class="fil0 str0" d="M1140.58 2616.41c13.86,-22.38 37.64,-22.86 49.15,-1.2 -0.85,-0.29 44.6,78.2 44.59,78.09 8.14,10.49 10.86,11.68 18.57,12.29 1.13,0.12 89.23,21.73 89.58,22 25.57,6.26 33.37,28.74 16.33,46.38 0.01,-0.9 -60.6,66.58 -60.49,66.53 -7.46,10.98 -7.76,13.94 -5.95,21.46 0.24,1.11 6.91,91.58 6.76,92 1.94,26.26 -17.02,40.62 -39.06,29.86 0.86,-0.27 -82.05,-37.06 -81.97,-36.97 -12.75,-3.7 -15.66,-3.07 -22.25,0.97 -0.98,0.57 -84.96,34.87 -85.41,34.86 -24.37,9.96 -43.89,-3.63 -40.47,-27.92 0.52,0.74 9.89,-89.48 9.83,-89.38 -0.42,-13.27 -1.92,-15.84 -7.8,-20.86 -0.84,-0.75 -59.42,-70.02 -59.55,-70.45 -17,-20.1 -10.1,-42.87 14.05,-47.12 -0.54,0.72 88.16,-18.24 88.05,-18.27 12.49,-4.5 14.47,-6.72 17.43,-13.86 0.46,-1.03 48.24,-78.15 48.61,-78.4z"/>
   <path class="fil0 str0" d="M1411.38 4034.77l0 -42.04c7.34,-19.47 25.69,-34.34 53.36,-39.21 -1.3,1.75 214.28,-44.35 214.01,-44.41 30.37,-10.93 35.17,-16.33 42.37,-33.69 1.11,-2.52 117.25,-189.96 118.15,-190.56 33.69,-54.4 91.5,-55.56 119.47,-2.91 -2.07,-0.71 108.39,190.08 108.37,189.81 19.79,25.5 26.4,28.4 45.14,29.88 2.74,0.28 216.9,52.81 217.75,53.48 62.15,15.22 81.12,69.85 39.69,112.72 0.03,-2.18 -147.29,161.83 -147.04,161.72 -18.13,26.7 -18.85,33.89 -14.47,52.16 0.58,2.69 16.79,222.61 16.43,223.62 4.71,63.81 -41.37,98.73 -94.95,72.58 2.09,-0.65 -199.42,-90.07 -199.23,-89.86 -31,-9 -38.06,-7.46 -54.08,2.35 -2.38,1.38 -206.51,84.76 -207.6,84.73 -59.23,24.2 -106.68,-8.83 -98.36,-67.87 1.26,1.79 24.03,-217.49 23.9,-217.26 -1.02,-32.26 -4.66,-38.5 -18.95,-50.71 -2.05,-1.83 -144.43,-170.22 -144.73,-171.26 -9.27,-10.96 -15.61,-22.24 -19.21,-33.27z"/>
   <path class="fil0 str0" d="M8300.12 4092.35c19.81,-13.25 39.58,-4.74 40.95,17.42 -0.59,-0.56 7.46,81.15 7.5,81.05 2.78,11.69 4.57,13.7 10.7,17.08 0.89,0.52 65.4,51.32 65.58,51.68 18.73,14.74 16.74,36.18 -3.91,44.34 0.35,-0.74 -74.87,32.17 -74.76,32.17 -10.26,6.26 -11.62,8.59 -12.94,15.46 -0.22,1 -28.6,78.06 -28.88,78.34 -8.23,22.36 -29.24,27.1 -43.38,9.98 0.81,0.1 -53.73,-61.27 -53.7,-61.16 -9.13,-7.82 -11.75,-8.39 -18.7,-7.53 -1.03,0.1 -83.08,-3.08 -83.44,-3.26 -23.81,-0.92 -34.81,-19.43 -22.89,-38.17 0.15,0.8 41.66,-70.03 41.58,-69.97 4.62,-11.09 4.35,-13.77 1.39,-20.11 -0.41,-0.94 -22.74,-79.96 -22.69,-80.36 -6.48,-22.93 7.73,-39.11 29.22,-33.56 -0.71,0.39 79.48,17.98 79.4,17.92 11.98,0.97 14.43,-0.12 19.55,-4.9 0.76,-0.68 69.02,-46.34 69.42,-46.41z"/>
   <path class="fil0 str0" d="M2319.99 401.42c13.86,-22.38 37.64,-22.86 49.15,-1.2 -0.85,-0.29 44.6,78.2 44.59,78.09 8.14,10.49 10.86,11.68 18.57,12.29 1.13,0.12 89.23,21.73 89.58,22 25.57,6.26 33.37,28.74 16.33,46.38 0.01,-0.9 -60.6,66.58 -60.49,66.53 -7.46,10.98 -7.76,13.94 -5.95,21.46 0.24,1.11 6.91,91.58 6.76,92 1.94,26.26 -17.02,40.62 -39.06,29.86 0.86,-0.27 -82.05,-37.06 -81.97,-36.97 -12.75,-3.7 -15.66,-3.07 -22.25,0.97 -0.98,0.57 -84.96,34.87 -85.41,34.86 -24.37,9.96 -43.89,-3.63 -40.47,-27.92 0.52,0.74 9.89,-89.48 9.83,-89.38 -0.42,-13.27 -1.92,-15.84 -7.8,-20.86 -0.84,-0.75 -59.42,-70.02 -59.55,-70.45 -17,-20.1 -10.1,-42.87 14.05,-47.12 -0.54,0.72 88.16,-18.24 88.05,-18.27 12.49,-4.5 14.47,-6.72 17.43,-13.86 0.46,-1.03 48.24,-78.15 48.61,-78.4z"/>
   <path class="fil0 str0" d="M2868.86 1906.07l0 -42.04c7.34,-19.47 25.69,-34.34 53.36,-39.21 -1.3,1.75 214.28,-44.35 214.01,-44.41 30.37,-10.93 35.17,-16.33 42.37,-33.69 1.11,-2.52 117.25,-189.96 118.15,-190.56 33.69,-54.4 91.5,-55.56 119.47,-2.91 -2.07,-0.71 108.39,190.08 108.37,189.81 19.79,25.5 26.4,28.4 45.14,29.88 2.74,0.28 216.9,52.81 217.75,53.48 62.15,15.22 81.12,69.85 39.69,112.72 0.03,-2.18 -147.29,161.83 -147.04,161.72 -18.13,26.7 -18.85,33.89 -14.47,52.16 0.58,2.69 16.79,222.61 16.43,223.62 4.71,63.81 -41.37,98.73 -94.95,72.58 2.09,-0.65 -199.42,-90.07 -199.23,-89.86 -31,-9 -38.06,-7.46 -54.08,2.35 -2.38,1.38 -206.51,84.76 -207.6,84.73 -59.23,24.2 -106.68,-8.83 -98.36,-67.87 1.26,1.79 24.03,-217.49 23.9,-217.26 -1.02,-32.26 -4.66,-38.5 -18.95,-50.71 -2.05,-1.83 -144.43,-170.22 -144.73,-171.26 -9.27,-10.96 -15.61,-22.24 -19.21,-33.27z"/>
   <path class="fil0 str0" d="M383.07 228.82c13.86,-22.38 37.64,-22.86 49.15,-1.2 -0.85,-0.29 44.6,78.2 44.59,78.09 8.14,10.49 10.86,11.68 18.57,12.29 1.13,0.12 89.23,21.73 89.58,22 25.57,6.26 33.37,28.74 16.33,46.38 0.01,-0.9 -60.6,66.58 -60.49,66.53 -7.46,10.98 -7.76,13.94 -5.95,21.46 0.24,1.11 6.91,91.58 6.76,92 1.94,26.26 -17.02,40.62 -39.06,29.86 0.86,-0.27 -82.05,-37.06 -81.97,-36.97 -12.75,-3.7 -15.66,-3.07 -22.25,0.97 -0.98,0.57 -84.96,34.87 -85.41,34.86 -24.37,9.96 -43.89,-3.63 -40.47,-27.92 0.52,0.74 9.89,-89.48 9.83,-89.38 -0.42,-13.27 -1.92,-15.84 -7.8,-20.86 -0.84,-0.75 -59.42,-70.02 -59.55,-70.45 -17,-20.1 -10.1,-42.87 14.05,-47.12 -0.54,0.72 88.16,-18.24 88.05,-18.27 12.49,-4.5 14.47,-6.72 17.43,-13.86 0.46,-1.03 48.24,-78.15 48.61,-78.4z"/>
   <path class="fil0 str0" d="M586.75 1349.93l0 -42.04c7.34,-19.47 25.69,-34.34 53.36,-39.21 -1.3,1.75 214.28,-44.35 214.01,-44.41 30.37,-10.93 35.17,-16.33 42.37,-33.69 1.11,-2.52 117.25,-189.96 118.15,-190.56 33.69,-54.4 91.5,-55.56 119.47,-2.91 -2.07,-0.71 108.39,190.08 108.37,189.81 19.79,25.5 26.4,28.4 45.14,29.88 2.74,0.28 216.9,52.81 217.75,53.48 62.15,15.22 81.12,69.85 39.69,112.72 0.03,-2.18 -147.29,161.83 -147.04,161.72 -18.13,26.7 -18.85,33.89 -14.47,52.16 0.58,2.69 16.79,222.61 16.43,223.62 4.71,63.81 -41.37,98.73 -94.95,72.58 2.09,-0.65 -199.42,-90.07 -199.23,-89.86 -31,-9 -38.06,-7.46 -54.08,2.35 -2.38,1.38 -206.51,84.76 -207.6,84.73 -59.23,24.2 -106.68,-8.83 -98.36,-67.87 1.26,1.79 24.03,-217.49 23.9,-217.26 -1.02,-32.26 -4.66,-38.5 -18.95,-50.71 -2.05,-1.83 -144.43,-170.22 -144.73,-171.26 -9.27,-10.96 -15.61,-22.24 -19.21,-33.27z"/>
   <path class="fil0 str0" d="M8315.25 544.48l0 -42.04c7.34,-19.47 25.69,-34.34 53.36,-39.21 -1.3,1.75 214.28,-44.35 214.01,-44.41 30.37,-10.93 35.17,-16.33 42.37,-33.69 1.11,-2.52 117.25,-189.96 118.15,-190.56 33.69,-54.4 91.5,-55.56 119.47,-2.91 -2.07,-0.71 108.39,190.08 108.37,189.81 19.79,25.5 26.4,28.4 45.14,29.88 2.74,0.28 216.9,52.81 217.75,53.48 62.15,15.22 81.12,69.85 39.69,112.72 0.03,-2.18 -147.29,161.83 -147.04,161.72 -18.13,26.7 -18.85,33.89 -14.47,52.16 0.58,2.69 16.79,222.61 16.43,223.62 4.71,63.81 -41.37,98.73 -94.95,72.58 2.09,-0.65 -199.42,-90.07 -199.23,-89.86 -31,-9 -38.06,-7.46 -54.08,2.35 -2.38,1.38 -206.51,84.76 -207.6,84.73 -59.23,24.2 -106.68,-8.83 -98.36,-67.87 1.26,1.79 24.03,-217.49 23.9,-217.26 -1.02,-32.26 -4.66,-38.5 -18.95,-50.71 -2.05,-1.83 -144.43,-170.22 -144.73,-171.26 -9.27,-10.96 -15.61,-22.24 -19.21,-33.27z"/>
   <path class="fil0 str0" d="M8334.42 2749.88l0 -42.04c7.34,-19.47 25.69,-34.34 53.36,-39.21 -1.3,1.75 214.28,-44.35 214.01,-44.41 30.37,-10.93 35.17,-16.33 42.37,-33.69 1.11,-2.52 117.25,-189.96 118.15,-190.56 33.69,-54.4 91.5,-55.56 119.47,-2.91 -2.07,-0.71 108.39,190.08 108.37,189.81 19.79,25.5 26.4,28.4 45.14,29.88 2.74,0.28 216.9,52.81 217.75,53.48 62.15,15.22 81.12,69.85 39.69,112.72 0.03,-2.18 -147.29,161.83 -147.04,161.72 -18.13,26.7 -18.85,33.89 -14.47,52.16 0.58,2.69 16.79,222.61 16.43,223.62 4.71,63.81 -41.37,98.73 -94.95,72.58 2.09,-0.65 -199.42,-90.07 -199.23,-89.86 -31,-9 -38.06,-7.46 -54.08,2.35 -2.38,1.38 -206.51,84.76 -207.6,84.73 -59.23,24.2 -106.68,-8.83 -98.36,-67.87 1.26,1.79 24.03,-217.49 23.9,-217.26 -1.02,-32.26 -4.66,-38.5 -18.95,-50.71 -2.05,-1.83 -144.43,-170.22 -144.73,-171.26 -9.27,-10.96 -15.61,-22.24 -19.21,-33.27z"/>
   <path class="fil0 str0" d="M7759.1 5645.67l0 -42.04c7.34,-19.47 25.69,-34.34 53.36,-39.21 -1.3,1.75 214.28,-44.35 214.01,-44.41 30.37,-10.93 35.17,-16.33 42.37,-33.69 1.11,-2.52 117.25,-189.96 118.15,-190.56 33.69,-54.4 91.5,-55.56 119.47,-2.91 -2.07,-0.71 108.39,190.08 108.37,189.81 19.79,25.5 26.4,28.4 45.14,29.88 2.74,0.28 216.9,52.81 217.75,53.48 62.15,15.22 81.12,69.85 39.69,112.72 0.03,-2.18 -147.29,161.83 -147.04,161.72 -18.13,26.7 -18.85,33.89 -14.47,52.16 0.58,2.69 16.79,222.61 16.43,223.62 4.71,63.81 -41.37,98.73 -94.95,72.58 2.09,-0.65 -199.42,-90.07 -199.23,-89.86 -31,-9 -38.06,-7.46 -54.08,2.35 -2.38,1.38 -206.51,84.76 -207.6,84.73 -59.23,24.2 -106.68,-8.83 -98.36,-67.87 1.26,1.79 24.03,-217.49 23.9,-217.26 -1.02,-32.26 -4.66,-38.5 -18.95,-50.71 -2.05,-1.83 -144.43,-170.22 -144.73,-171.26 -9.27,-10.96 -15.61,-22.24 -19.21,-33.27z"/>
   <path class="fil0 str0" d="M299.09 5760.74l0 -42.04c7.34,-19.47 25.69,-34.34 53.36,-39.21 -1.3,1.75 214.28,-44.35 214.01,-44.41 30.37,-10.93 35.17,-16.33 42.37,-33.69 1.11,-2.52 117.25,-189.96 118.15,-190.56 33.69,-54.4 91.5,-55.56 119.47,-2.91 -2.07,-0.71 108.39,190.08 108.37,189.81 19.79,25.5 26.4,28.4 45.14,29.88 2.74,0.28 216.9,52.81 217.75,53.48 62.15,15.22 81.12,69.85 39.69,112.72 0.03,-2.18 -147.29,161.83 -147.04,161.72 -18.13,26.7 -18.85,33.89 -14.47,52.16 0.58,2.69 16.79,222.61 16.43,223.62 4.71,63.81 -41.37,98.73 -94.95,72.58 2.09,-0.65 -199.42,-90.07 -199.23,-89.86 -31,-9 -38.06,-7.46 -54.08,2.35 -2.38,1.38 -206.51,84.76 -207.6,84.73 -59.23,24.2 -106.68,-8.83 -98.36,-67.87 1.26,1.79 24.03,-217.49 23.9,-217.26 -1.02,-32.26 -4.66,-38.5 -18.95,-50.71 -2.05,-1.83 -144.43,-170.22 -144.73,-171.26 -9.27,-10.96 -15.61,-22.24 -19.21,-33.27z"/>
   <path class="fil0 str0" d="M910.46 7295.7c13.86,-22.38 37.64,-22.86 49.15,-1.2 -0.85,-0.29 44.6,78.2 44.59,78.09 8.14,10.49 10.86,11.68 18.57,12.29 1.13,0.12 89.23,21.73 89.58,22 25.57,6.26 33.37,28.74 16.33,46.38 0.01,-0.9 -60.6,66.58 -60.49,66.53 -7.46,10.98 -7.76,13.94 -5.95,21.46 0.24,1.11 6.91,91.58 6.76,92 1.94,26.26 -17.02,40.62 -39.06,29.86 0.86,-0.27 -82.05,-37.06 -81.97,-36.97 -12.75,-3.7 -15.66,-3.07 -22.25,0.97 -0.98,0.57 -84.96,34.87 -85.41,34.86 -24.37,9.96 -43.89,-3.63 -40.47,-27.92 0.52,0.74 9.89,-89.48 9.83,-89.38 -0.42,-13.27 -1.92,-15.84 -7.8,-20.86 -0.84,-0.75 -59.42,-70.02 -59.55,-70.45 -17,-20.1 -10.1,-42.87 14.05,-47.12 -0.54,0.72 88.16,-18.24 88.05,-18.27 12.49,-4.5 14.47,-6.72 17.43,-13.86 0.46,-1.03 48.24,-78.15 48.61,-78.4z"/>
   <path class="fil0 str0" d="M8545.38 7908.61l0 -42.04c7.34,-19.47 25.69,-34.34 53.36,-39.21 -1.3,1.75 214.28,-44.35 214.01,-44.41 30.37,-10.93 35.17,-16.33 42.37,-33.69 1.11,-2.52 117.25,-189.96 118.15,-190.56 33.69,-54.4 91.5,-55.56 119.47,-2.91 -2.07,-0.71 108.39,190.08 108.37,189.81 19.79,25.5 26.4,28.4 45.14,29.88 2.74,0.28 216.9,52.81 217.75,53.48 62.15,15.22 81.12,69.85 39.69,112.72 0.03,-2.18 -147.29,161.83 -147.04,161.72 -18.13,26.7 -18.85,33.89 -14.47,52.16 0.58,2.69 16.79,222.61 16.43,223.62 4.71,63.81 -41.37,98.73 -94.95,72.58 2.09,-0.65 -199.42,-90.07 -199.23,-89.86 -31,-9 -38.06,-7.46 -54.08,2.35 -2.38,1.38 -206.51,84.76 -207.6,84.73 -59.23,24.2 -106.68,-8.83 -98.36,-67.87 1.26,1.79 24.03,-217.49 23.9,-217.26 -1.02,-32.26 -4.66,-38.5 -18.95,-50.71 -2.05,-1.83 -144.43,-170.22 -144.73,-171.26 -9.27,-10.96 -15.61,-22.24 -19.21,-33.27z"/>
   <path class="fil0 str0" d="M7763.15 7467.58c19.81,-13.25 39.58,-4.74 40.95,17.42 -0.59,-0.56 7.46,81.15 7.5,81.05 2.78,11.69 4.57,13.7 10.7,17.08 0.89,0.52 65.4,51.32 65.58,51.68 18.73,14.74 16.74,36.18 -3.91,44.34 0.35,-0.74 -74.87,32.17 -74.76,32.17 -10.26,6.26 -11.62,8.59 -12.94,15.46 -0.22,1 -28.6,78.06 -28.88,78.34 -8.23,22.36 -29.24,27.1 -43.38,9.98 0.81,0.1 -53.73,-61.27 -53.7,-61.16 -9.13,-7.82 -11.75,-8.39 -18.7,-7.53 -1.03,0.1 -83.08,-3.08 -83.44,-3.26 -23.81,-0.92 -34.81,-19.43 -22.89,-38.17 0.15,0.8 41.66,-70.03 41.58,-69.97 4.62,-11.09 4.35,-13.77 1.39,-20.11 -0.41,-0.94 -22.74,-79.96 -22.69,-80.36 -6.48,-22.93 7.73,-39.11 29.22,-33.56 -0.71,0.39 79.48,17.98 79.4,17.92 11.98,0.97 14.43,-0.12 19.55,-4.9 0.76,-0.68 69.02,-46.34 69.42,-46.41z"/>
   <path class="fil0 str0" d="M7475.49 180.16c19.81,-13.25 39.58,-4.74 40.95,17.42 -0.59,-0.56 7.46,81.15 7.5,81.05 2.78,11.69 4.57,13.7 10.7,17.08 0.89,0.52 65.4,51.32 65.58,51.68 18.73,14.74 16.74,36.18 -3.91,44.34 0.35,-0.74 -74.87,32.17 -74.76,32.17 -10.26,6.26 -11.62,8.59 -12.94,15.46 -0.22,1 -28.6,78.06 -28.88,78.34 -8.23,22.36 -29.24,27.1 -43.38,9.98 0.81,0.1 -53.73,-61.27 -53.7,-61.16 -9.13,-7.82 -11.75,-8.39 -18.7,-7.53 -1.03,0.1 -83.08,-3.08 -83.44,-3.26 -23.81,-0.92 -34.81,-19.43 -22.89,-38.17 0.15,0.8 41.66,-70.03 41.58,-69.97 4.62,-11.09 4.35,-13.77 1.39,-20.11 -0.41,-0.94 -22.74,-79.96 -22.69,-80.36 -6.48,-22.93 7.73,-39.11 29.22,-33.56 -0.71,0.39 79.48,17.98 79.4,17.92 11.98,0.97 14.43,-0.12 19.55,-4.9 0.76,-0.68 69.02,-46.34 69.42,-46.41z"/>
   <path class="fil0 str0" d="M1833.28 7985.32l0 -42.04c7.34,-19.47 25.69,-34.34 53.36,-39.21 -1.3,1.75 214.28,-44.35 214.01,-44.41 30.37,-10.93 35.17,-16.33 42.37,-33.69 1.11,-2.52 117.25,-189.96 118.15,-190.56 33.69,-54.4 91.5,-55.56 119.47,-2.91 -2.07,-0.71 108.39,190.08 108.37,189.81 19.79,25.5 26.4,28.4 45.14,29.88 2.74,0.28 216.9,52.81 217.75,53.48 62.15,15.22 81.12,69.85 39.69,112.72 0.03,-2.18 -147.29,161.83 -147.04,161.72 -18.13,26.7 -18.85,33.89 -14.47,52.16 0.58,2.69 16.79,222.61 16.43,223.62 4.71,63.81 -41.37,98.73 -94.95,72.58 2.09,-0.65 -199.42,-90.07 -199.23,-89.86 -31,-9 -38.06,-7.46 -54.08,2.35 -2.38,1.38 -206.51,84.76 -207.6,84.73 -59.23,24.2 -106.68,-8.83 -98.36,-67.87 1.26,1.79 24.03,-217.49 23.9,-217.26 -1.02,-32.26 -4.66,-38.5 -18.95,-50.71 -2.05,-1.83 -144.43,-170.22 -144.73,-171.26 -9.27,-10.96 -15.61,-22.24 -19.21,-33.27z"/>
  </g>
 </g>
</svg>
