<?xml version="1.0" encoding="UTF-8"?>
<!DOCTYPE svg PUBLIC "-//W3C//DTD SVG 1.1//EN" "http://www.w3.org/Graphics/SVG/1.1/DTD/svg11.dtd">
<!-- Creator: CorelDRAW 2020 (64 Bit) -->
<svg xmlns="http://www.w3.org/2000/svg" xml:space="preserve" width="90.1621mm" height="21.1423mm" version="1.1" style="shape-rendering:geometricPrecision; text-rendering:geometricPrecision; image-rendering:optimizeQuality; fill-rule:evenodd; clip-rule:evenodd"
viewBox="0 0 4247.21 995.94"
 xmlns:xlink="http://www.w3.org/1999/xlink"
 xmlns:xodm="http://www.corel.com/coreldraw/odm/2003">
 <defs>
  <style type="text/css">
   <![CDATA[
    .fil2 {fill:#FEFEFE}
    .fil3 {fill:#373435}
    .fil4 {fill:#95C949}
    .fil1 {fill:#5C598A}
    .fil0 {fill:#9BB3A0}
    .fil5 {fill:#373435;fill-rule:nonzero}
   ]]>
  </style>
 </defs>
 <g id="Camada_x0020_1">
  <metadata id="CorelCorpID_0Corel-Layer"/>
  <g id="_2717928988480">
   <g>
    <g>
     <circle class="fil0" cx="451.13" cy="544.8" r="451.13"/>
     <path class="fil1" d="M549.36 528.89l-100.42 100.43 73.47 73.47 228.64 -228.64 -0.06 -0.05 0.06 -0.06 -226.47 -226.48 -73.47 73.47 96.91 96.93c-131.98,9 -305.69,112.53 -305.69,311.58l0 112.54 112.54 0 0 -111.07c0,-117.19 81.62,-194.93 194.48,-202.11z"/>
    </g>
    <g>
     <circle class="fil2" cx="455.84" cy="451.13" r="451.13"/>
     <path class="fil3" d="M554.07 435.22l-100.42 100.43 73.47 73.47 228.64 -228.64 -0.06 -0.05 0.06 -0.06 -226.47 -226.48 -73.47 73.47 96.91 96.93c-131.98,9 -305.68,112.53 -305.68,311.58l0 112.54 112.54 0 0 -111.07c0,-117.19 81.62,-194.93 194.48,-202.11z"/>
    </g>
   </g>
   <g>
    <path class="fil0" d="M1816.87 97.54l613.47 0c71.27,0 129.57,58.31 129.57,129.57l0 613.47c0,71.26 -58.3,129.57 -129.57,129.57l-613.47 0c-71.26,0 -129.57,-58.3 -129.57,-129.57l0 -613.47c0,-71.26 58.3,-129.57 129.57,-129.57z"/>
    <path class="fil4" d="M1816.87 25.79l613.47 0c71.26,0 129.57,58.3 129.57,129.57l0 613.47c0,71.27 -58.3,129.57 -129.57,129.57l-613.47 0c-71.26,0 -129.57,-58.3 -129.57,-129.57l0 -613.47c0,-71.26 58.3,-129.57 129.57,-129.57z"/>
   </g>
   <g>
    <g>
     <circle class="fil0" cx="3791.37" cy="544.8" r="451.13"/>
     <path class="fil1" d="M3889.6 528.89l-100.42 100.43 73.47 73.47 228.64 -228.64 -0.06 -0.05 0.06 -0.06 -226.47 -226.48 -73.47 73.47 96.91 96.93c-131.98,9 -305.69,112.53 -305.69,311.58l0 112.54 112.54 0 0 -111.07c0,-117.19 81.62,-194.93 194.48,-202.11z"/>
    </g>
    <g>
     <circle class="fil4" cx="3796.08" cy="451.13" r="451.13"/>
     <path class="fil3" d="M3894.31 435.22l-100.42 100.43 73.47 73.47 228.64 -228.64 -0.06 -0.05 0.06 -0.06 -226.47 -226.48 -73.47 73.47 96.91 96.93c-131.98,9 -305.68,112.53 -305.68,311.58l0 112.54 112.54 0 0 -111.07c0,-117.19 81.62,-194.93 194.48,-202.11z"/>
    </g>
   </g>
   <polygon class="fil5" points="1390.45,538.65 1331.02,538.65 1331.02,599.67 1246.07,599.67 1246.07,538.65 1186.64,538.65 1186.64,457.69 1246.07,457.69 1246.07,396.26 1331.02,396.26 1331.02,457.69 1390.45,457.69 "/>
   <path class="fil5" d="M3075.52 402.05l0 80.17 -233.72 0 0 -80.17 233.72 0zm0 111.68l0 80.17 -233.72 0 0 -80.17 233.72 0z"/>
  </g>
 </g>
</svg>
