<?xml version="1.0" encoding="UTF-8"?>
<!DOCTYPE svg PUBLIC "-//W3C//DTD SVG 1.1//EN" "http://www.w3.org/Graphics/SVG/1.1/DTD/svg11.dtd">
<!-- Creator: CorelDRAW 2020 (64 Bit) -->
<svg xmlns="http://www.w3.org/2000/svg" xml:space="preserve" width="107.156mm" height="27.3205mm" version="1.1" style="shape-rendering:geometricPrecision; text-rendering:geometricPrecision; image-rendering:optimizeQuality; fill-rule:evenodd; clip-rule:evenodd"
viewBox="0 0 6061.16 1545.35"
 xmlns:xlink="http://www.w3.org/1999/xlink"
 xmlns:xodm="http://www.corel.com/coreldraw/odm/2003">
 <defs>
  <style type="text/css">
   <![CDATA[
    .str0 {stroke:#9D98CA;stroke-width:29.93;stroke-miterlimit:22.9256}
    .fil2 {fill:none}
    .fil4 {fill:#FEFEFE}
    .fil5 {fill:#EC268F}
    .fil3 {fill:#95C949}
    .fil1 {fill:#716DB0}
    .fil0 {fill:#5C598A}
    .fil6 {fill:#00AFEF}
   ]]>
  </style>
 </defs>
 <g id="Camada_x0020_1">
  <metadata id="CorelCorpID_0Corel-Layer"/>
  <g id="_2717928246720">
   <path class="fil0" d="M178.61 14.97l5703.93 0c90,0 163.64,73.63 163.64,163.64l0 1188.13c0,90.01 -73.64,163.64 -163.64,163.64l-5703.93 0c-90,0 -163.64,-73.63 -163.64,-163.64l0 -1188.13c0,-90.01 73.64,-163.64 163.64,-163.64z"/>
   <path class="fil1" d="M178.61 14.97l5703.93 0c90,0 163.64,73.63 163.64,163.64l0 1188.13c0,90.01 -73.64,163.64 -163.64,163.64l-5703.93 0c-90,0 -163.64,-73.63 -163.64,-163.64l0 -1188.13c0,-90.01 73.64,-163.64 163.64,-163.64z"/>
   <path class="fil2 str0" d="M178.61 14.97l5703.93 0c90,0 163.64,73.63 163.64,163.64l0 1188.13c0,90.01 -73.64,163.64 -163.64,163.64l-5703.93 0c-90,0 -163.64,-73.63 -163.64,-163.64l0 -1188.13c0,-90.01 73.64,-163.64 163.64,-163.64z"/>
   <path class="fil0" d="M438.27 313.45l736.63 0c85.58,0 155.58,70.01 155.58,155.58l0 736.63c0,85.57 -70.01,155.58 -155.58,155.58l-736.63 0c-85.57,0 -155.58,-70.01 -155.58,-155.58l0 -736.63c0,-85.57 70.01,-155.58 155.58,-155.58z"/>
   <path class="fil0" d="M1922.62 313.45l736.63 0c85.58,0 155.58,70.01 155.58,155.58l0 736.63c0,85.57 -70.01,155.58 -155.58,155.58l-736.63 0c-85.57,0 -155.58,-70.01 -155.58,-155.58l0 -736.63c0,-85.57 70.01,-155.58 155.58,-155.58z"/>
   <path class="fil3" d="M1922.61 227.29l736.63 0c85.57,0 155.58,70.01 155.58,155.58l0 736.63c0,85.58 -70.01,155.58 -155.58,155.58l-736.63 0c-85.57,0 -155.58,-70.01 -155.58,-155.58l0 -736.63c0,-85.57 70.01,-155.58 155.58,-155.58z"/>
   <path class="fil0" d="M3390.46 313.45l736.63 0c85.57,0 155.58,70.01 155.58,155.58l0 736.63c0,85.57 -70.01,155.58 -155.58,155.58l-736.63 0c-85.58,0 -155.58,-70.01 -155.58,-155.58l0 -736.63c0,-85.57 70.01,-155.58 155.58,-155.58z"/>
   <path class="fil0" d="M4858.3 313.45l736.63 0c85.57,0 155.58,70.01 155.58,155.58l0 736.63c0,85.57 -70.01,155.58 -155.58,155.58l-736.63 0c-85.57,0 -155.58,-70.01 -155.58,-155.58l0 -736.63c0,-85.57 70.01,-155.58 155.58,-155.58z"/>
   <path class="fil4" d="M4858.3 227.29l736.63 0c85.57,0 155.58,70.01 155.58,155.58l0 736.63c0,85.58 -70.01,155.58 -155.58,155.58l-736.63 0c-85.57,0 -155.58,-70.01 -155.58,-155.58l0 -736.63c0,-85.57 70.01,-155.58 155.58,-155.58z"/>
   <path class="fil5" d="M4127.09 227.29l-736.63 0c-85.58,0 -155.58,70.01 -155.58,155.58l0 736.63c0,85.58 70.01,155.58 155.58,155.58l736.63 0c85.57,0 155.58,-70.01 155.58,-155.58l0 -736.63c0,-85.57 -70.01,-155.58 -155.58,-155.58z"/>
   <path class="fil6" d="M1174.9 227.29l-736.63 0c-85.57,0 -155.58,70.01 -155.58,155.58l0 736.63c0,85.58 70.01,155.58 155.58,155.58l736.63 0c85.58,0 155.58,-70.01 155.58,-155.58l0 -736.63c0,-85.57 -70.01,-155.58 -155.58,-155.58z"/>
  </g>
 </g>
</svg>
