<?xml version="1.0" encoding="UTF-8"?>
<!DOCTYPE svg PUBLIC "-//W3C//DTD SVG 1.1//EN" "http://www.w3.org/Graphics/SVG/1.1/DTD/svg11.dtd">
<!-- Creator: CorelDRAW 2020 (64 Bit) -->
<svg xmlns="http://www.w3.org/2000/svg" xml:space="preserve" width="120.174mm" height="24.1893mm" version="1.1" style="shape-rendering:geometricPrecision; text-rendering:geometricPrecision; image-rendering:optimizeQuality; fill-rule:evenodd; clip-rule:evenodd"
viewBox="0 0 127775.68 25719.47"
 xmlns:xlink="http://www.w3.org/1999/xlink"
 xmlns:xodm="http://www.corel.com/coreldraw/odm/2003">
 <defs>
  <style type="text/css">
   <![CDATA[
    .str0 {stroke:#727376;stroke-width:212.65;stroke-miterlimit:22.9256}
    .fil4 {fill:none}
    .fil1 {fill:#FEFEFE}
    .fil3 {fill:#DADBDC}
    .fil2 {fill:#C9CBCC}
    .fil0 {fill:#9BB3A0}
    .fil5 {fill:#373435;fill-rule:nonzero}
    .fil6 {fill:#ED3237;fill-rule:nonzero}
   ]]>
  </style>
 </defs>
 <g id="Camada_x0020_1">
  <metadata id="CorelCorpID_0Corel-Layer"/>
  <g id="_2717726090304">
   <rect class="fil0" x="-0.07" y="5653.84" width="127775.7" height="20065.63" rx="13799.77" ry="10032.82"/>
   <rect class="fil1" x="-0.07" y="3879.41" width="127775.7" height="20065.63" rx="13799.77" ry="10032.82"/>
  </g>
  <g id="_2717726089680">
   <g>
    <circle class="fil2" cx="28406.36" cy="13791.96" r="7436.62"/>
   </g>
   <path class="fil3" d="M34349.3 9321.27c937.58,1244.44 1493.67,2792.65 1493.67,4470.68 0,4107.05 -3329.59,7436.64 -7436.64,7436.64 -1677.93,0 -3225.93,-555.98 -4470.26,-1493.45 -937.69,-1244.33 -1493.77,-2792.54 -1493.77,-4470.58 0,-4107.15 3329.59,-7436.75 7436.75,-7436.75 1677.93,0 3225.82,555.98 4470.26,1493.45z"/>
  </g>
  <g id="_2717726091216">
   <g>
    <circle class="fil2" cx="46170.54" cy="13791.96" r="7436.62"/>
   </g>
   <path class="fil3" d="M52113.48 9321.27c937.58,1244.44 1493.67,2792.65 1493.67,4470.68 0,4107.05 -3329.59,7436.64 -7436.64,7436.64 -1677.93,0 -3225.93,-555.98 -4470.26,-1493.45 -937.69,-1244.33 -1493.77,-2792.54 -1493.77,-4470.58 0,-4107.15 3329.59,-7436.75 7436.75,-7436.75 1677.93,0 3225.82,555.98 4470.26,1493.45z"/>
  </g>
  <g id="_2717726091120">
   <g>
    <circle class="fil2" cx="63934.71" cy="13791.96" r="7436.62"/>
   </g>
   <path class="fil3" d="M69877.65 9321.27c937.58,1244.44 1493.67,2792.65 1493.67,4470.68 0,4107.05 -3329.59,7436.64 -7436.64,7436.64 -1677.93,0 -3225.93,-555.98 -4470.26,-1493.45 -937.69,-1244.33 -1493.77,-2792.54 -1493.77,-4470.58 0,-4107.15 3329.59,-7436.75 7436.75,-7436.75 1677.93,0 3225.82,555.98 4470.26,1493.45z"/>
  </g>
  <g id="_2717726089248">
   <g>
    <circle class="fil2" cx="81698.88" cy="13791.96" r="7436.62"/>
   </g>
   <path class="fil3" d="M87641.83 9321.27c937.58,1244.44 1493.67,2792.65 1493.67,4470.68 0,4107.05 -3329.59,7436.64 -7436.64,7436.64 -1677.93,0 -3225.93,-555.98 -4470.26,-1493.45 -937.69,-1244.33 -1493.77,-2792.54 -1493.77,-4470.58 0,-4107.15 3329.59,-7436.75 7436.75,-7436.75 1677.93,0 3225.82,555.98 4470.26,1493.45z"/>
  </g>
  <g id="_2717726089776">
   <g>
    <circle class="fil2" cx="99463.06" cy="13791.96" r="7436.62"/>
   </g>
   <path class="fil3" d="M105406 9321.27c937.58,1244.44 1493.67,2792.65 1493.67,4470.68 0,4107.05 -3329.59,7436.64 -7436.64,7436.64 -1677.93,0 -3225.93,-555.98 -4470.26,-1493.45 -937.69,-1244.33 -1493.77,-2792.54 -1493.77,-4470.58 0,-4107.15 3329.59,-7436.75 7436.75,-7436.75 1677.93,0 3225.82,555.98 4470.26,1493.45z"/>
  </g>
  <g id="_2717726090736">
   <g>
    <circle class="fil2" cx="117227.55" cy="13791.96" r="7436.62"/>
   </g>
   <path class="fil3" d="M123170.49 9321.27c937.58,1244.44 1493.67,2792.65 1493.67,4470.68 0,4107.05 -3329.59,7436.64 -7436.64,7436.64 -1677.93,0 -3225.93,-555.98 -4470.26,-1493.45 -937.69,-1244.33 -1493.77,-2792.54 -1493.77,-4470.58 0,-4107.15 3329.59,-7436.75 7436.75,-7436.75 1677.93,0 3225.82,555.98 4470.26,1493.45z"/>
  </g>
  <g id="_2717726092080">
   <path class="fil4 str0" d="M10473.84 6355.31c4200.08,0 7604.95,3404.77 7604.95,7604.95 0,4200.19 -3404.87,7604.95 -7604.95,7604.95 -4200.08,0 -7604.95,-3404.77 -7604.95,-7604.95 0,-4200.19 3404.87,-7604.95 7604.95,-7604.95z"/>
   <path class="fil5" d="M5654.73 17149.08l0 -5867.27 2824.65 0c547.68,0 1021.26,89.42 1420.73,268.26 399.57,178.84 708.24,434.45 926.2,766.93 217.97,332.48 326.95,725.04 326.95,1177.66 0,452.63 -108.98,843.7 -326.95,1173.41 -217.97,329.72 -526.63,585.32 -926.2,766.93 -399.47,181.6 -873.04,272.41 -1420.73,272.41l-1726.63 0 880.06 -846.57 0 2288.24 -1978.09 0zm1978.09 -2070.27l-880.06 -896.86 1600.95 0c273.79,0 476.34,-61.46 607.65,-184.37 131.31,-123.02 197.02,-290.59 197.02,-502.92 0,-212.33 -65.71,-380.01 -197.02,-502.92 -131.31,-122.91 -333.86,-184.37 -607.65,-184.37l-1600.95 0 880.06 -896.86 0 3168.3z"/>
   <polygon id="1" class="fil5" points="12452.35,17149.08 12452.35,11969.1 13298.92,12773.77 11446.51,12773.77 11446.51,11281.81 14430.43,11281.81 14430.43,17149.08 "/>
  </g>
  <path class="fil6" d="M23777.75 0l1400.52 3071.54 2687.7 -1225.51 -2122.58 6533.19 -6324.37 -2681.54 2687.6 -1225.51 -1400.63 -3071.54 3071.75 -1400.63zm700.26 1535.77m2044.11 923.01m282.51 2653.89m-4223.37 1925.77m-1818.38 -1953.52m643.48 -2148.53m835.61 -2236.14"/>
 </g>
</svg>
