<?xml version="1.0" encoding="UTF-8"?>
<!DOCTYPE svg PUBLIC "-//W3C//DTD SVG 1.1//EN" "http://www.w3.org/Graphics/SVG/1.1/DTD/svg11.dtd">
<!-- Creator: CorelDRAW 2020 (64 Bit) -->
<svg xmlns="http://www.w3.org/2000/svg" xml:space="preserve" width="79.6396mm" height="25.6646mm" version="1.1" style="shape-rendering:geometricPrecision; text-rendering:geometricPrecision; image-rendering:optimizeQuality; fill-rule:evenodd; clip-rule:evenodd"
viewBox="0 0 2910.87 938.05"
 xmlns:xlink="http://www.w3.org/1999/xlink"
 xmlns:xodm="http://www.corel.com/coreldraw/odm/2003">
 <defs>
  <style type="text/css">
   <![CDATA[
    .str0 {stroke:#9D98CA;stroke-width:19.34;stroke-miterlimit:22.9256}
    .fil2 {fill:none}
    .fil3 {fill:#FEFEFE}
    .fil4 {fill:#373435}
    .fil1 {fill:#716DB0}
    .fil0 {fill:#5C598A}
   ]]>
  </style>
 </defs>
 <g id="Camada_x0020_1">
  <metadata id="CorelCorpID_0Corel-Layer"/>
  <g id="_2717729025024">
   <path class="fil0" d="M108.88 9.67l2693.11 0c54.57,0 99.21,44.64 99.21,99.21l0 720.3c0,54.57 -44.64,99.21 -99.21,99.21l-2693.11 0c-54.57,0 -99.21,-44.64 -99.21,-99.21l0 -720.3c0,-54.57 44.64,-99.21 99.21,-99.21z"/>
   <path class="fil1" d="M108.88 9.67l2693.11 0c54.57,0 99.21,44.64 99.21,99.21l0 720.3c0,54.57 -44.64,99.21 -99.21,99.21l-2693.11 0c-54.57,0 -99.21,-44.64 -99.21,-99.21l0 -720.3c0,-54.57 44.64,-99.21 99.21,-99.21z"/>
   <path class="fil2 str0" d="M108.88 9.67l2693.11 0c54.57,0 99.21,44.64 99.21,99.21l0 720.3c0,54.57 -44.64,99.21 -99.21,99.21l-2693.11 0c-54.57,0 -99.21,-44.64 -99.21,-99.21l0 -720.3c0,-54.57 44.64,-99.21 99.21,-99.21z"/>
   <g>
    <path class="fil0" d="M1463.39 172.13c193.32,0 350.04,156.72 350.04,350.04 0,193.32 -156.72,350.04 -350.04,350.04 -193.32,0 -350.04,-156.72 -350.04,-350.04 0,-193.32 156.72,-350.04 350.04,-350.04z"/>
    <polygon class="fil0" points="1418.12,460.32 1418.12,753.76 1506.81,753.76 1506.81,460.32 1594.96,548.47 1657.68,485.75 1462.51,290.58 1462.47,290.63 1462.42,290.58 1269.1,483.9 1331.82,546.61 "/>
   </g>
   <g>
    <path class="fil0" d="M2411.88 168.71c193.32,0 350.04,156.72 350.04,350.04 0,193.32 -156.72,350.04 -350.04,350.04 -193.32,0 -350.04,-156.72 -350.04,-350.04 0,-193.32 156.72,-350.04 350.04,-350.04z"/>
    <path class="fil0" d="M2330.61 506.4l77.92 77.92 -57.01 57.01 -177.41 -177.41 0.04 -0.04 -0.04 -0.04 175.72 -175.73 57.01 57.01 -75.19 75.2c102.41,6.98 237.18,87.32 237.18,241.76l0 87.32 -87.32 0 0 -86.18c0,-90.93 -63.33,-151.25 -150.9,-156.82z"/>
   </g>
   <g>
    <path class="fil0" d="M504.23 173.34c193.32,0 350.04,156.72 350.04,350.04 0,193.32 -156.72,350.04 -350.04,350.04 -193.32,0 -350.04,-156.72 -350.04,-350.04 0,-193.32 156.72,-350.04 350.04,-350.04z"/>
    <path class="fil0" d="M580.44 511.03l-77.91 77.92 57.01 57.01 177.41 -177.41 -0.04 -0.04 0.04 -0.04 -175.72 -175.73 -57.01 57.01 75.2 75.21c-102.41,6.98 -237.19,87.32 -237.19,241.76l0 87.32 87.32 0 0 -86.18c0,-90.93 63.33,-151.25 150.9,-156.82z"/>
   </g>
   <g>
    <path class="fil3" d="M1467.04 99.45c193.32,0 350.04,156.72 350.04,350.04 0,193.32 -156.72,350.04 -350.04,350.04 -193.32,0 -350.04,-156.72 -350.04,-350.04 0,-193.32 156.72,-350.04 350.04,-350.04z"/>
    <polygon class="fil4" points="1421.77,387.64 1421.77,681.07 1510.46,681.07 1510.46,387.64 1598.62,475.79 1661.33,413.07 1466.16,217.9 1466.12,217.95 1466.07,217.9 1272.75,411.22 1335.47,473.93 "/>
   </g>
   <g>
    <path class="fil3" d="M2415.54 96.03c193.32,0 350.04,156.72 350.04,350.04 0,193.32 -156.72,350.04 -350.04,350.04 -193.32,0 -350.04,-156.72 -350.04,-350.04 0,-193.32 156.72,-350.04 350.04,-350.04z"/>
    <path class="fil4" d="M2334.27 433.72l77.91 77.92 -57.01 57.01 -177.41 -177.41 0.04 -0.04 -0.04 -0.04 175.72 -175.73 57.01 57.01 -75.2 75.2c102.41,6.98 237.19,87.32 237.19,241.76l0 87.32 -87.32 0 0 -86.18c0,-90.93 -63.33,-151.25 -150.9,-156.82z"/>
   </g>
   <g>
    <path class="fil3" d="M507.88 100.66c193.32,0 350.04,156.72 350.04,350.04 0,193.32 -156.72,350.04 -350.04,350.04 -193.32,0 -350.04,-156.72 -350.04,-350.04 0,-193.32 156.72,-350.04 350.04,-350.04z"/>
    <path class="fil4" d="M584.1 438.35l-77.91 77.92 57.01 57.01 177.41 -177.41 -0.04 -0.04 0.04 -0.04 -175.72 -175.73 -57.01 57.01 75.19 75.21c-102.41,6.98 -237.18,87.32 -237.18,241.76l0 87.32 87.32 0 0 -86.18c0,-90.93 63.33,-151.25 150.9,-156.82z"/>
   </g>
  </g>
 </g>
</svg>
