<?xml version="1.0" encoding="UTF-8"?>
<!DOCTYPE svg PUBLIC "-//W3C//DTD SVG 1.1//EN" "http://www.w3.org/Graphics/SVG/1.1/DTD/svg11.dtd">
<!-- Creator: CorelDRAW 2020 (64 Bit) -->
<svg xmlns="http://www.w3.org/2000/svg" xml:space="preserve" width="126.055mm" height="114.232mm" version="1.1" style="shape-rendering:geometricPrecision; text-rendering:geometricPrecision; image-rendering:optimizeQuality; fill-rule:evenodd; clip-rule:evenodd"
viewBox="0 0 13565.92 12293.6"
 xmlns:xlink="http://www.w3.org/1999/xlink"
 xmlns:xodm="http://www.corel.com/coreldraw/odm/2003">
 <defs>
  <style type="text/css">
   <![CDATA[
    .str0 {stroke:#9D98CA;stroke-width:56.95;stroke-miterlimit:22.9256}
    .fil2 {fill:none}
    .fil5 {fill:#FEFEFE}
    .fil8 {fill:#373435}
    .fil12 {fill:#FCBB55}
    .fil6 {fill:#EC268F}
    .fil11 {fill:#E09836}
    .fil4 {fill:#95C949}
    .fil1 {fill:#716DB0}
    .fil0 {fill:#5C598A}
    .fil7 {fill:#00AFEF}
    .fil10 {fill:#FEFEFE;fill-rule:nonzero}
    .fil9 {fill:#373435;fill-rule:nonzero}
    .fil13 {fill:#E09836;fill-rule:nonzero}
    .fil14 {fill:#AFD3E4;fill-rule:nonzero}
    .fil3 {fill:#5C598A;fill-rule:nonzero}
   ]]>
  </style>
 </defs>
 <g id="Camada_x0020_1">
  <metadata id="CorelCorpID_0Corel-Layer"/>
  <path class="fil0" d="M520.1 1443.17l12525.7 0c286.07,0 520.11,227.74 520.11,506.05l0 9838.36c0,278.26 -234.09,506.01 -520.11,506.01l-12525.7 0c-286.03,0 -520.1,-227.71 -520.1,-506.01l0 -9838.36c0,-278.34 234.04,-506.05 520.1,-506.05z"/>
  <path class="fil1" d="M520.1 1103.7l12525.7 0c286.07,0 520.11,227.73 520.11,506.05l0 9838.36c0,278.25 -234.09,506 -520.11,506l-12525.7 0c-286.03,0 -520.1,-227.7 -520.1,-506l0 -9838.36c0,-278.35 234.04,-506.05 520.1,-506.05z"/>
  <path class="fil2 str0" d="M840.62 1381.35l11884.67 0c271.43,0 493.49,216.09 493.49,480.15l0 9334.86c0,264.01 -222.12,480.11 -493.49,480.11l-11884.67 0c-271.39,0 -493.49,-216.06 -493.49,-480.11l0 -9334.86c0,-264.1 222.06,-480.15 493.49,-480.15z"/>
  <g id="_2717718204624">
   <circle class="fil0" cx="5479.31" cy="3890.91" r="1030.65"/>
   <polygon class="fil0" points="5346.03,3708.79 5346.03,4572.79 5607.16,4572.79 5607.16,3708.79 5866.72,3968.34 6051.38,3783.69 5476.73,3209.03 5476.61,3209.16 5476.46,3209.03 4907.25,3778.22 5091.92,3962.88 "/>
  </g>
  <g id="_2717718206592">
   <circle class="fil0" cx="8272.06" cy="3880.84" r="1030.65"/>
   <path class="fil0" d="M8032.77 3844.48l229.42 229.42 -167.86 167.85 -522.36 -522.36 0.13 -0.12 -0.13 -0.13 517.4 -517.42 167.85 167.86 -221.39 221.43c301.53,20.56 698.36,257.1 698.36,711.83l0 257.11 -257.11 0 0 -253.74c0,-267.72 -186.47,-445.35 -444.31,-461.73z"/>
  </g>
  <g id="_2717718204768">
   <circle class="fil0" cx="11064.81" cy="3850.63" r="1030.65"/>
   <path class="fil3" d="M11192.59 4340.54c0,19.16 4.28,33.02 12.85,41.58 8.57,8.57 22.43,12.85 41.58,12.85l229.83 0c19.16,0 33.02,-4.28 41.58,-12.85 8.57,-8.57 12.85,-22.43 12.85,-41.58l0 -161.79c0,-46.36 -4.04,-81.14 -12.1,-104.33 -8.06,-23.19 -23.18,-50.41 -45.36,-81.65l-122.48 -164.82 122.48 -164.81c23.18,-31.25 38.56,-58.47 46.11,-81.66 7.57,-23.18 11.34,-57.95 11.34,-104.33l0 -116.43c0,-19.15 -4.28,-33.01 -12.85,-41.57 -8.57,-8.58 -22.43,-12.86 -41.58,-12.86l-232.86 0c-19.16,0 -33.02,4.28 -41.58,12.86 -8.57,8.57 -12.85,22.43 -12.85,41.57l0 104.34c0,10.08 -0.51,20.66 -1.52,31.75 -1,11.1 -5.04,21.67 -12.1,31.76l-66.53 95.25c-5.04,8.07 -10.33,14.37 -15.87,18.91 -5.54,4.53 -12.35,6.8 -20.42,6.8l-18.14 0c-8.06,0 -14.61,-2.27 -19.65,-6.8 -5.05,-4.54 -10.59,-10.84 -16.64,-18.91l-68.04 -95.25c-7.06,-10.08 -11.1,-20.66 -12.1,-31.76 -1.01,-11.08 -1.52,-21.66 -1.52,-31.75l0 -104.34c0,-19.15 -4.28,-33.01 -12.85,-41.57 -8.57,-8.58 -22.43,-12.86 -41.58,-12.86l-229.83 0c-19.16,0 -33.02,4.28 -41.58,12.86 -8.57,8.57 -12.85,22.43 -12.85,41.57l0 116.43c0,46.37 4.02,81.14 12.1,104.33 8.06,23.19 23.18,50.41 45.36,81.66l122.47 166.33 -122.47 163.3c-23.18,31.24 -38.56,58.46 -46.11,81.65 -7.57,23.18 -11.34,57.96 -11.34,104.33l0 161.79c0,19.16 4.28,33.02 12.85,41.58 8.57,8.57 22.43,12.85 41.58,12.85l229.83 0c19.16,0 33.02,-4.28 41.58,-12.85 8.57,-8.57 12.85,-22.43 12.85,-41.58l0 -149.7c0,-10.07 0.51,-20.66 1.52,-31.75 1,-11.08 5.04,-21.67 12.1,-31.76l66.53 -95.25c6.05,-9.07 11.59,-15.63 16.63,-19.66 5.04,-4.02 11.59,-6.05 19.66,-6.05l21.17 0c8.06,0 14.61,2.02 19.65,6.05 5.04,4.04 10.59,10.59 16.64,19.66l68.04 95.25c7.06,10.08 11.1,20.67 12.1,31.76 1.01,11.08 1.52,21.67 1.52,31.75l0 149.7z"/>
  </g>
  <g id="_2717718213024">
   <circle class="fil0" cx="2655.16" cy="3894.47" r="1030.65"/>
   <path class="fil0" d="M2879.58 3858.11l-229.41 229.43 167.85 167.85 522.36 -522.36 -0.13 -0.12 0.13 -0.13 -517.4 -517.42 -167.85 167.85 221.4 221.44c-301.53,20.56 -698.37,257.09 -698.37,711.83l0 257.11 257.11 0 0 -253.76c0,-267.72 186.47,-445.34 444.31,-461.73z"/>
  </g>
  <g id="_2717718211248">
   <circle class="fil0" cx="2655.16" cy="6878.36" r="1145.38"/>
   <path class="fil3" d="M2183.29 7337.29l-197.38 0c-16.13,0 -27.8,-3.61 -35.02,-10.83 -7.21,-7.21 -10.83,-18.89 -10.83,-35.02l0 -825.16c0,-16.13 3.62,-27.81 10.83,-35.02 7.22,-7.22 18.89,-10.83 35.02,-10.83l389.67 0c115.45,0 194.4,22.92 236.85,68.77 42.45,45.84 63.67,105.69 63.67,179.54l0 163c0,73.86 -21.22,133.71 -63.67,179.55 -42.45,45.84 -121.39,68.76 -236.85,68.76l-146.45 0 0 211.39c0,16.13 -3.61,27.81 -10.83,35.02 -7.21,7.22 -18.89,10.83 -35.01,10.83zm43.3 -678.72l0 192.28 114.6 0c24.61,0 40.74,-6.37 48.39,-19.1 7.64,-12.73 11.46,-27.16 11.46,-43.3l0 -67.49c0,-16.13 -3.82,-30.56 -11.46,-43.3 -7.64,-12.74 -23.77,-19.1 -48.39,-19.1l-114.6 0z"/>
   <path id="1" class="fil3" d="M3390.48 7337.29l-562.85 0c-16.12,0 -27.8,-3.61 -35.02,-10.83 -7.21,-7.21 -10.82,-18.89 -10.82,-35.02l0 -154.08c0,-16.13 3.61,-27.8 10.82,-35.02 7.22,-7.21 18.9,-10.83 35.02,-10.83l142.63 0 0 -425.31 -117.15 0c-16.13,0 -27.81,-3.62 -35.02,-10.83 -7.22,-7.22 -10.83,-18.89 -10.83,-35.02l0 -154.08c0,-16.13 3.61,-27.81 10.83,-35.02 7.21,-7.22 18.89,-10.83 35.02,-10.83l369.28 0c16.13,0 27.8,3.61 35.02,10.83 7.21,7.21 10.83,18.89 10.83,35.02l0 625.24 122.24 0c16.13,0 27.8,3.62 35.02,10.83 7.21,7.22 10.83,18.89 10.83,35.02l0 154.08c0,16.13 -3.62,27.81 -10.83,35.02 -7.22,7.22 -18.89,10.83 -35.02,10.83z"/>
  </g>
  <path class="fil0" d="M1954.41 9009.43l1401.52 0c162.82,0 296.02,133.21 296.02,296.02l0 1401.52c0,162.81 -133.2,296.01 -296.02,296.01l-1401.52 0c-162.81,0 -296.01,-133.2 -296.01,-296.01l0 -1401.52c0,-162.81 133.2,-296.02 296.01,-296.02z"/>
  <path class="fil0" d="M4778.55 9009.43l1401.52 0c162.82,0 296.02,133.21 296.02,296.02l0 1401.52c0,162.81 -133.2,296.01 -296.02,296.01l-1401.52 0c-162.81,0 -296.01,-133.2 -296.01,-296.01l0 -1401.52c0,-162.81 133.2,-296.02 296.01,-296.02z"/>
  <path class="fil4" d="M4778.54 8845.5l1401.54 0c162.81,0 296.01,133.2 296.01,296.01l0 1401.52c0,162.82 -133.2,296.02 -296.01,296.02l-1401.54 0c-162.81,0 -296.01,-133.2 -296.01,-296.02l0 -1401.52c0,-162.81 133.2,-296.01 296.01,-296.01z"/>
  <path class="fil0" d="M7571.3 9009.43l1401.52 0c162.81,0 296.01,133.21 296.01,296.02l0 1401.52c0,162.81 -133.2,296.01 -296.01,296.01l-1401.52 0c-162.82,0 -296.02,-133.2 -296.02,-296.01l0 -1401.52c0,-162.81 133.2,-296.02 296.02,-296.02z"/>
  <path class="fil0" d="M10364.04 9009.43l1401.54 0c162.81,0 296.01,133.21 296.01,296.02l0 1401.52c0,162.81 -133.2,296.01 -296.01,296.01l-1401.54 0c-162.81,0 -296.01,-133.2 -296.01,-296.01l0 -1401.52c0,-162.81 133.2,-296.02 296.01,-296.02z"/>
  <path class="fil5" d="M10364.04 8845.5l1401.54 0c162.81,0 296.01,133.2 296.01,296.01l0 1401.52c0,162.82 -133.2,296.02 -296.01,296.02l-1401.54 0c-162.81,0 -296.01,-133.2 -296.01,-296.02l0 -1401.52c0,-162.81 133.2,-296.01 296.01,-296.01z"/>
  <path class="fil6" d="M8972.83 8845.5l-1401.52 0c-162.82,0 -296.02,133.2 -296.02,296.01l0 1401.52c0,162.82 133.2,296.02 296.02,296.02l1401.52 0c162.81,0 296.01,-133.2 296.01,-296.02l0 -1401.52c0,-162.81 -133.2,-296.01 -296.01,-296.01z"/>
  <path class="fil7" d="M3355.92 8845.5l-1401.52 0c-162.81,0 -296.01,133.2 -296.01,296.01l0 1401.52c0,162.82 133.2,296.02 296.01,296.02l1401.52 0c162.82,0 296.02,-133.2 296.02,-296.02l0 -1401.52c0,-162.81 -133.2,-296.01 -296.02,-296.01z"/>
  <g id="_2717718225456">
   <circle class="fil0" cx="5479.31" cy="6878.36" r="1145.38"/>
   <path class="fil3" d="M5007.45 7337.29l-197.38 0c-16.13,0 -27.8,-3.61 -35.02,-10.83 -7.21,-7.21 -10.83,-18.89 -10.83,-35.02l0 -825.16c0,-16.13 3.62,-27.81 10.83,-35.02 7.22,-7.22 18.89,-10.83 35.02,-10.83l389.67 0c115.45,0 194.4,22.92 236.85,68.77 42.45,45.84 63.67,105.69 63.67,179.54l0 163c0,73.86 -21.22,133.71 -63.67,179.55 -42.45,45.84 -121.39,68.76 -236.85,68.76l-146.45 0 0 211.39c0,16.13 -3.61,27.81 -10.83,35.02 -7.21,7.22 -18.89,10.83 -35.01,10.83zm43.3 -678.72l0 192.28 114.6 0c24.61,0 40.74,-6.37 48.39,-19.1 7.64,-12.73 11.46,-27.16 11.46,-43.3l0 -67.49c0,-16.13 -3.82,-30.56 -11.46,-43.3 -7.64,-12.74 -23.77,-19.1 -48.39,-19.1l-114.6 0z"/>
   <path id="1" class="fil3" d="M6247.74 7337.29l-606.13 0c-16.13,0 -27.81,-3.61 -35.02,-10.83 -7.22,-7.21 -10.83,-18.89 -10.83,-35.02l0 -219.03c0,-49.24 4.89,-89.78 14.65,-121.61 9.76,-31.83 23.56,-57.93 41.38,-78.31 17.83,-20.37 39.06,-36.5 63.68,-48.39 24.61,-11.88 51.36,-22.07 80.22,-30.56l170.64 -53.48c13.58,-3.4 22.71,-8.49 27.38,-15.28 4.66,-6.79 7,-16.98 7,-30.56 0,-12.73 -2.54,-21.44 -7.64,-26.11 -5.09,-4.67 -14,-7.01 -26.73,-7.01l-276.33 0c-16.13,0 -27.8,-3.61 -35.02,-10.82 -7.21,-7.22 -10.83,-18.89 -10.83,-35.02l0 -148.99c0,-16.13 3.62,-27.81 10.83,-35.02 7.22,-7.22 18.89,-10.83 35.02,-10.83l375.66 0c72.16,0 127.55,18.04 166.17,54.12 38.64,36.07 57.94,88.5 57.94,157.26l0 119.69c0,63.68 -17.82,112.49 -53.49,146.45 -35.65,33.95 -84.04,60.28 -145.17,78.95l-173.18 54.76c-12.73,3.4 -21.44,7.22 -26.1,11.46 -4.67,4.24 -7.01,13.16 -7.01,26.74l0 26.74 362.91 0c16.13,0 27.81,3.61 35.02,10.82 7.22,7.22 10.83,18.89 10.83,35.02l0 148.99c0,16.13 -3.61,27.81 -10.83,35.02 -7.21,7.22 -18.89,10.83 -35.02,10.83z"/>
  </g>
  <g id="_2717718230592">
   <circle class="fil0" cx="8272.06" cy="6878.36" r="1145.38"/>
   <path class="fil3" d="M7800.2 7337.29l-197.38 0c-16.13,0 -27.8,-3.61 -35.02,-10.83 -7.21,-7.21 -10.83,-18.89 -10.83,-35.02l0 -825.16c0,-16.13 3.62,-27.81 10.83,-35.02 7.22,-7.22 18.89,-10.83 35.02,-10.83l389.67 0c115.45,0 194.4,22.92 236.85,68.77 42.45,45.84 63.67,105.69 63.67,179.54l0 163c0,73.86 -21.22,133.71 -63.67,179.55 -42.45,45.84 -121.39,68.76 -236.85,68.76l-146.45 0 0 211.39c0,16.13 -3.61,27.81 -10.83,35.02 -7.21,7.22 -18.89,10.83 -35.01,10.83zm43.3 -678.72l0 192.28 114.6 0c24.61,0 40.74,-6.37 48.39,-19.1 7.64,-12.73 11.46,-27.16 11.46,-43.3l0 -67.49c0,-16.13 -3.82,-30.56 -11.46,-43.3 -7.64,-12.74 -23.77,-19.1 -48.39,-19.1l-114.6 0z"/>
   <path id="1" class="fil3" d="M8445.81 7096.63l319.62 0c20.37,0 33.53,-3.82 39.47,-11.46 5.94,-7.64 8.92,-16.56 8.92,-26.74l0 -34.38c0,-10.19 -2.98,-18.89 -8.92,-26.11 -5.94,-7.21 -19.1,-10.82 -39.47,-10.82l-216.48 0c-16.13,0 -27.8,-3.62 -35.02,-10.83 -7.21,-7.22 -10.83,-18.89 -10.83,-35.02l0 -136.26c0,-16.13 3.62,-27.8 10.83,-35.02 7.22,-7.21 18.89,-10.83 35.02,-10.83l133.71 0c20.37,0 33.53,-3.82 39.47,-11.45 5.94,-7.64 8.91,-16.56 8.91,-26.74l0 -19.1c0,-10.19 -2.97,-19.1 -8.91,-26.74 -5.94,-7.64 -19.1,-11.46 -39.47,-11.46l-236.85 0c-16.13,0 -27.81,-3.61 -35.02,-10.83 -7.22,-7.21 -10.83,-18.89 -10.83,-35.02l0 -151.53c0,-16.13 3.61,-27.81 10.83,-35.02 7.21,-7.22 18.89,-10.83 35.02,-10.83l355.27 0c70.47,0 122.89,16.35 157.26,49.03 34.38,32.68 51.58,77.03 51.58,133.06l0 73.86c0,32.26 -5.52,60.28 -16.56,84.05 -11.03,23.77 -30.55,41.59 -58.58,53.48 60.28,6.79 102.09,25.26 125.43,55.4 23.35,30.13 35.02,73.21 35.02,129.25l0 127.34c0,65.37 -20.79,116.94 -62.4,154.72 -41.59,37.77 -103.14,56.66 -184.64,56.66l-402.39 0c-16.13,0 -27.81,-3.61 -35.02,-10.83 -7.22,-7.21 -10.83,-18.89 -10.83,-35.02l0 -148.99c0,-16.13 3.61,-27.8 10.83,-35.02 7.21,-7.21 18.89,-10.82 35.02,-10.82z"/>
  </g>
  <g id="_2717718237072">
   <circle class="fil0" cx="11064.81" cy="6878.36" r="1145.38"/>
   <path class="fil3" d="M10592.95 7337.29l-197.38 0c-16.13,0 -27.8,-3.61 -35.02,-10.83 -7.21,-7.21 -10.83,-18.89 -10.83,-35.02l0 -825.16c0,-16.13 3.62,-27.81 10.83,-35.02 7.22,-7.22 18.89,-10.83 35.02,-10.83l389.67 0c115.45,0 194.4,22.92 236.85,68.77 42.45,45.84 63.67,105.69 63.67,179.54l0 163c0,73.86 -21.22,133.71 -63.67,179.55 -42.45,45.84 -121.39,68.76 -236.85,68.76l-146.45 0 0 211.39c0,16.13 -3.61,27.81 -10.83,35.02 -7.21,7.22 -18.89,10.83 -35.01,10.83zm43.3 -678.72l0 192.28 114.6 0c24.61,0 40.74,-6.37 48.39,-19.1 7.64,-12.73 11.46,-27.16 11.46,-43.3l0 -67.49c0,-16.13 -3.82,-30.56 -11.46,-43.3 -7.64,-12.74 -23.77,-19.1 -48.39,-19.1l-114.6 0z"/>
   <path id="1" class="fil3" d="M11657.52 7124.64l-215.21 0c-82.35,0 -141.56,-17.2 -177.65,-51.57 -36.07,-34.38 -54.12,-87.66 -54.12,-159.81l0 -446.96c0,-16.13 3.62,-27.81 10.83,-35.02 7.22,-7.22 18.89,-10.83 35.02,-10.83l197.38 0c16.12,0 27.8,3.61 35.01,10.83 7.22,7.21 10.83,18.89 10.83,35.02l0 348.91c0,13.58 3.62,24.19 10.83,31.83 7.22,7.64 16.77,11.46 28.65,11.46l118.43 0 0 -392.21c0,-16.13 3.61,-27.81 10.82,-35.02 7.22,-7.22 18.89,-10.83 35.02,-10.83l196.1 0c16.13,0 27.81,3.61 35.02,10.83 7.22,7.21 10.83,18.89 10.83,35.02l0 825.16c0,16.13 -3.61,27.81 -10.83,35.02 -7.21,7.22 -18.89,10.83 -35.02,10.83l-196.1 0c-16.13,0 -27.8,-3.61 -35.02,-10.83 -7.21,-7.21 -10.82,-18.89 -10.82,-35.02l0 -166.81z"/>
  </g>
  <g id="_2717718240864">
   <circle class="fil5" cx="5490.07" cy="3676.9" r="1030.65"/>
   <polygon class="fil8" points="5356.78,3494.79 5356.78,4358.79 5617.93,4358.79 5617.93,3494.79 5877.48,3754.34 6062.14,3569.69 5487.49,2995.03 5487.36,2995.16 5487.22,2995.03 4918.01,3564.22 5102.67,3748.88 "/>
  </g>
  <g id="_2717718243792">
   <circle class="fil5" cx="8282.82" cy="3666.84" r="1030.65"/>
   <path class="fil8" d="M8043.53 3630.48l229.41 229.42 -167.85 167.85 -522.36 -522.36 0.13 -0.12 -0.13 -0.13 517.4 -517.42 167.85 167.86 -221.4 221.43c301.53,20.56 698.37,257.1 698.37,711.83l0 257.11 -257.11 0 0 -253.74c0,-267.72 -186.47,-445.35 -444.31,-461.73z"/>
  </g>
  <g id="_2717718242784">
   <circle class="fil5" cx="2665.92" cy="3680.47" r="1030.65"/>
   <path class="fil8" d="M2890.34 3644.1l-229.41 229.43 167.85 167.85 522.36 -522.36 -0.13 -0.12 0.13 -0.13 -517.4 -517.42 -167.85 167.85 221.39 221.44c-301.53,20.56 -698.36,257.09 -698.36,711.83l0 257.11 257.11 0 0 -253.76c0,-267.72 186.47,-445.34 444.31,-461.73z"/>
  </g>
  <circle class="fil5" cx="2665.92" cy="6664.36" r="1145.38"/>
  <path class="fil9" d="M2091.05 7076.67l0 -797.28 383.83 0c74.42,0 138.76,12.15 193.06,36.45 54.29,24.29 96.24,59.03 125.85,104.21 29.62,45.18 44.43,98.53 44.43,160.03 0,61.5 -14.81,114.66 -44.43,159.45 -29.61,44.8 -71.56,79.54 -125.85,104.22 -54.29,24.68 -118.64,37.02 -193.06,37.02l-234.62 0 119.59 -115.03 0 310.93 -268.8 0zm268.8 -281.33l-119.59 -121.87 217.54 0c37.2,0 64.73,-8.35 82.58,-25.05 17.84,-16.7 26.76,-39.49 26.76,-68.34 0,-28.85 -8.92,-51.64 -26.76,-68.34 -17.84,-16.7 -45.37,-25.05 -82.58,-25.05l-217.54 0 119.59 -121.88 0 430.53z"/>
  <polygon id="1" class="fil9" points="3014.76,7076.67 3014.76,6372.79 3129.79,6482.13 2878.08,6482.13 2878.08,6279.4 3283.56,6279.4 3283.56,7076.67 "/>
  <circle class="fil5" cx="5490.07" cy="6664.36" r="1145.38"/>
  <path class="fil9" d="M4798.65 7099.98l0 -797.28 383.83 0c74.42,0 138.76,12.15 193.06,36.45 54.29,24.29 96.24,59.03 125.85,104.21 29.62,45.18 44.43,98.53 44.43,160.03 0,61.5 -14.81,114.66 -44.43,159.45 -29.61,44.8 -71.56,79.54 -125.85,104.22 -54.29,24.68 -118.64,37.02 -193.06,37.02l-234.62 0 119.59 -115.03 0 310.93 -268.8 0zm268.8 -281.33l-119.59 -121.87 217.54 0c37.2,0 64.73,-8.35 82.58,-25.05 17.84,-16.7 26.76,-39.49 26.76,-68.34 0,-28.85 -8.92,-51.64 -26.76,-68.34 -17.84,-16.7 -45.37,-25.05 -82.58,-25.05l-217.54 0 119.59 -121.88 0 430.53z"/>
  <path id="1" class="fil9" d="M5611.88 7099.98l0 -165.15 288.16 -266.52c18.22,-17.46 31.7,-32.65 40.43,-45.56 8.74,-12.9 14.61,-24.48 17.66,-34.74 3.03,-10.25 4.55,-19.93 4.55,-29.05 0,-19.74 -6.46,-35.12 -19.36,-46.13 -12.91,-11.01 -32.27,-16.51 -58.09,-16.51 -23.54,0 -45.93,6.26 -67.2,18.79 -21.25,12.53 -37.97,30.94 -50.12,55.24l-202.73 -101.37c28.85,-54.67 72.14,-99.1 129.84,-133.26 57.71,-34.17 129.47,-51.25 215.27,-51.25 63.02,0 118.82,10.25 167.42,30.75 48.6,20.5 86.56,49.35 113.89,86.56 27.34,37.21 41,81.25 41,132.12 0,25.82 -3.23,51.64 -9.67,77.45 -6.46,25.82 -19.55,52.96 -39.3,81.44 -19.74,28.48 -48.97,60.17 -87.7,95.1l-216.4 197.04 -42.14 -93.39 413.45 0 0 208.43 -638.97 0z"/>
  <circle class="fil5" cx="8282.82" cy="6664.36" r="1145.38"/>
  <path class="fil9" d="M7626.35 7088.33l0 -797.28 383.83 0c74.42,0 138.76,12.15 193.06,36.45 54.29,24.29 96.24,59.03 125.85,104.21 29.62,45.18 44.43,98.53 44.43,160.03 0,61.5 -14.81,114.66 -44.43,159.45 -29.61,44.8 -71.56,79.54 -125.85,104.22 -54.29,24.68 -118.64,37.02 -193.06,37.02l-234.62 0 119.59 -115.03 0 310.93 -268.8 0zm268.8 -281.33l-119.59 -121.87 217.54 0c37.2,0 64.73,-8.35 82.58,-25.05 17.84,-16.7 26.76,-39.49 26.76,-68.34 0,-28.85 -8.92,-51.64 -26.76,-68.34 -17.84,-16.7 -45.37,-25.05 -82.58,-25.05l-217.54 0 119.59 -121.88 0 430.53z"/>
  <path id="1" class="fil9" d="M8715.21 7106.55c-54.67,0 -110.11,-6.07 -166.29,-18.22 -56.19,-12.15 -105.54,-29.99 -148.06,-53.53l91.12 -198.18c34.17,19.74 70.04,34.36 107.63,43.84 37.58,9.49 73.08,14.24 106.49,14.24 30.37,0 55.24,-5.12 74.6,-15.37 19.36,-10.26 29.05,-25.63 29.05,-46.14 0,-17.46 -7.21,-30.94 -21.64,-40.43 -14.42,-9.49 -38.72,-14.24 -72.89,-14.24l-105.93 0 0 -165.14 206.16 -209.58 23.92 89.98 -397.5 0 0 -202.73 594.54 0 0 165.15 -206.16 209.57 -128.7 -72.89 70.62 0c100.23,0 176.54,22.4 228.93,67.2 52.39,44.8 78.58,102.51 78.58,173.12 0,45.57 -12.71,89.23 -38.15,130.98 -25.44,41.77 -64.92,75.94 -118.46,102.51 -53.53,26.58 -122.82,39.86 -207.86,39.86z"/>
  <circle class="fil5" cx="11075.57" cy="6664.36" r="1145.38"/>
  <path class="fil9" d="M10349.18 7088.33l0 -797.28 383.83 0c74.42,0 138.76,12.15 193.06,36.45 54.29,24.29 96.24,59.03 125.85,104.21 29.62,45.18 44.43,98.53 44.43,160.03 0,61.5 -14.81,114.66 -44.43,159.45 -29.61,44.8 -71.56,79.54 -125.85,104.22 -54.29,24.68 -118.64,37.02 -193.06,37.02l-234.62 0 119.59 -115.03 0 310.93 -268.8 0zm268.8 -281.33l-119.59 -121.87 217.54 0c37.2,0 64.73,-8.35 82.58,-25.05 17.84,-16.7 26.76,-39.49 26.76,-68.34 0,-28.85 -8.92,-51.64 -26.76,-68.34 -17.84,-16.7 -45.37,-25.05 -82.58,-25.05l-217.54 0 119.59 -121.88 0 430.53z"/>
  <path id="1" class="fil9" d="M11156.71 6951.65l0 -170.85 338.28 -489.75 275.62 0 -325.74 489.75 -125.29 -37.58 617.33 0 0 208.43 -780.2 0zm413.45 136.68l0 -136.68 7.96 -208.43 0 -121.88 252.85 0 0 466.98 -260.82 0z"/>
  <g id="_2717718184560">
   <circle class="fil8" cx="11075.57" cy="3636.63" r="1030.65"/>
   <path class="fil10" d="M11203.34 4126.54c0,19.16 4.28,33.02 12.85,41.58 8.57,8.57 22.43,12.85 41.58,12.85l229.83 0c19.16,0 33.02,-4.28 41.58,-12.85 8.57,-8.57 12.85,-22.43 12.85,-41.58l0 -161.79c0,-46.36 -4.04,-81.14 -12.1,-104.33 -8.06,-23.19 -23.18,-50.41 -45.36,-81.65l-122.48 -164.82 122.48 -164.81c23.18,-31.25 38.56,-58.47 46.11,-81.66 7.57,-23.18 11.34,-57.95 11.34,-104.33l0 -116.43c0,-19.15 -4.28,-33.01 -12.85,-41.57 -8.57,-8.58 -22.43,-12.86 -41.58,-12.86l-232.86 0c-19.16,0 -33.02,4.28 -41.58,12.86 -8.57,8.57 -12.85,22.43 -12.85,41.57l0 104.34c0,10.08 -0.51,20.66 -1.52,31.75 -1,11.1 -5.04,21.67 -12.1,31.76l-66.53 95.25c-5.04,8.07 -10.33,14.37 -15.87,18.91 -5.54,4.53 -12.35,6.8 -20.42,6.8l-18.14 0c-8.06,0 -14.61,-2.27 -19.65,-6.8 -5.05,-4.54 -10.59,-10.84 -16.64,-18.91l-68.04 -95.25c-7.06,-10.08 -11.1,-20.66 -12.1,-31.76 -1.01,-11.08 -1.52,-21.66 -1.52,-31.75l0 -104.34c0,-19.15 -4.28,-33.01 -12.85,-41.57 -8.57,-8.58 -22.43,-12.86 -41.58,-12.86l-229.83 0c-19.16,0 -33.02,4.28 -41.58,12.86 -8.57,8.57 -12.85,22.43 -12.85,41.57l0 116.43c0,46.37 4.02,81.14 12.1,104.33 8.06,23.19 23.18,50.41 45.36,81.66l122.47 166.33 -122.47 163.3c-23.18,31.24 -38.56,58.46 -46.11,81.65 -7.57,23.18 -11.34,57.96 -11.34,104.33l0 161.79c0,19.16 4.28,33.02 12.85,41.58 8.57,8.57 22.43,12.85 41.58,12.85l229.83 0c19.16,0 33.02,-4.28 41.58,-12.85 8.57,-8.57 12.85,-22.43 12.85,-41.58l0 -149.7c0,-10.07 0.51,-20.66 1.52,-31.75 1,-11.08 5.04,-21.67 12.1,-31.76l66.53 -95.25c6.05,-9.07 11.59,-15.63 16.63,-19.66 5.04,-4.02 11.59,-6.05 19.66,-6.05l21.17 0c8.06,0 14.61,2.02 19.65,6.05 5.04,4.04 10.59,10.59 16.64,19.66l68.04 95.25c7.06,10.08 11.1,20.67 12.1,31.76 1.01,11.08 1.52,21.67 1.52,31.75l0 149.7z"/>
  </g>
  <g id="_2717718186912">
   <path class="fil11" d="M3229.09 185.75l7124.44 0c113.02,0 205.49,99.69 205.49,221.5l0 1397.94c0,121.81 -92.48,221.5 -205.49,221.5l-7124.44 0c-113.01,0 -205.49,-99.68 -205.49,-221.5l0 -1397.94c0,-121.84 92.47,-221.5 205.49,-221.5z"/>
   <path class="fil12" d="M3229.09 0l7124.44 0c113.02,0 205.49,99.68 205.49,221.5l0 1397.94c0,121.81 -92.48,221.5 -205.49,221.5l-7124.44 0c-113.01,0 -205.49,-99.68 -205.49,-221.5l0 -1397.94c0,-121.84 92.47,-221.5 205.49,-221.5z"/>
  </g>
  <path class="fil13" d="M4069.53 1384.11c-54.4,0 -104.76,-8.58 -151.05,-25.74 -46.31,-17.15 -86.46,-41.61 -120.46,-73.34 -34,-31.73 -60.4,-69.3 -79.18,-112.68 -18.78,-43.39 -28.16,-91.31 -28.16,-143.77 0,-52.46 9.38,-100.39 28.16,-143.77 18.78,-43.39 45.18,-80.95 79.18,-112.69 34,-31.74 74.15,-56.18 120.46,-73.34 46.3,-17.17 96.65,-25.74 151.05,-25.74 66.7,0 125.8,11.66 177.28,34.97 51.49,23.32 94.06,57 127.74,101.03l-144.75 129.2c-20.07,-25.26 -42.25,-44.84 -66.54,-58.77 -24.29,-13.93 -51.65,-20.89 -82.08,-20.89 -23.97,0 -45.66,3.89 -65.09,11.67 -19.43,7.77 -36.11,19.1 -50.02,34 -13.93,14.89 -24.77,32.87 -32.54,53.91 -7.77,21.05 -11.67,44.53 -11.67,70.44 0,25.9 3.9,49.38 11.67,70.43 7.77,21.04 18.62,39.01 32.54,53.91 13.92,14.89 30.6,26.24 50.02,34.01 19.43,7.77 41.12,11.66 65.09,11.66 30.43,0 57.79,-6.96 82.08,-20.89 24.29,-13.93 46.47,-33.51 66.54,-58.77l144.75 129.2c-33.68,43.39 -76.26,76.9 -127.74,100.55 -51.49,23.63 -110.58,35.45 -177.28,35.45z"/>
  <path id="1" class="fil13" d="M4783.51 1384.11c-55.69,0 -107.02,-8.74 -153.97,-26.23 -46.94,-17.49 -87.58,-42.25 -121.91,-74.31 -34.32,-32.06 -61.03,-69.78 -80.14,-113.17 -19.1,-43.39 -28.65,-90.66 -28.65,-141.82 0,-51.81 9.55,-99.25 28.65,-142.32 19.11,-43.07 45.82,-80.63 80.14,-112.69 34.33,-32.05 74.97,-56.82 121.91,-74.31 46.95,-17.49 97.95,-26.23 153,-26.23 55.69,0 106.86,8.74 153.49,26.23 46.62,17.49 87.1,42.26 121.43,74.31 34.32,32.06 61.03,69.62 80.13,112.69 19.11,43.07 28.66,90.51 28.66,142.32 0,51.16 -9.55,98.43 -28.66,141.82 -19.1,43.39 -45.81,81.11 -80.13,113.17 -34.33,32.06 -74.81,56.82 -121.43,74.31 -46.63,17.49 -97.47,26.23 -152.52,26.23zm-0.97 -185.54c21.37,0 41.28,-3.89 59.74,-11.66 18.46,-7.77 34.65,-18.95 48.57,-33.51 13.93,-14.57 24.77,-32.38 32.54,-53.43 7.77,-21.05 11.66,-44.84 11.66,-71.39 0,-26.56 -3.89,-50.36 -11.66,-71.41 -7.77,-21.05 -18.62,-38.85 -32.54,-53.42 -13.92,-14.57 -30.11,-25.74 -48.57,-33.51 -18.46,-7.78 -38.37,-11.67 -59.74,-11.67 -21.37,0 -41.28,3.89 -59.74,11.67 -18.46,7.77 -34.65,18.94 -48.57,33.51 -13.93,14.57 -24.77,32.37 -32.54,53.42 -7.77,21.05 -11.67,44.84 -11.67,71.41 0,26.55 3.9,50.34 11.67,71.39 7.77,21.05 18.62,38.86 32.54,53.43 13.92,14.56 30.11,25.74 48.57,33.51 18.46,7.77 38.37,11.66 59.74,11.66z"/>
  <polygon id="2" class="fil13" points="5249.79,1368.57 5249.79,688.58 5438.25,688.58 5710.24,1132.52 5611.16,1132.52 5875.38,688.58 6063.84,688.58 6065.78,1368.57 5856.93,1368.57 5854.99,1003.32 5888.01,1003.32 5707.33,1307.37 5606.3,1307.37 5417.85,1003.32 5458.65,1003.32 5458.65,1368.57 "/>
  <path id="3" class="fil13" d="M6102.7 1368.57l297.25 -679.99 225.37 0 297.25 679.99 -237.03 0 -219.53 -571.19 89.37 0 -219.54 571.19 -233.14 0zm176.8 -118.51l58.29 -165.14 312.8 0 58.29 165.14 -429.37 0z"/>
  <polygon id="4" class="fil13" points="6959.49,1368.57 6959.49,688.58 7147.94,688.58 7493.76,1102.41 7406.33,1102.41 7406.33,688.58 7629.76,688.58 7629.76,1368.57 7441.31,1368.57 7095.48,954.75 7182.91,954.75 7182.91,1368.57 "/>
  <path id="5" class="fil13" d="M7740.5 1368.57l0 -679.99 335.14 0c75.77,0 142.48,13.76 200.12,41.28 57.63,27.53 102.64,66.55 135.02,117.06 32.38,50.52 48.57,110.74 48.57,180.68 0,70.6 -16.19,131.31 -48.57,182.15 -32.38,50.84 -77.39,90.01 -135.02,117.54 -57.64,27.52 -124.34,41.28 -200.12,41.28l-335.14 0zm229.25 -178.74l96.17 0c32.38,0 60.72,-6.15 85.01,-18.46 24.28,-12.3 43.22,-30.6 56.82,-54.89 13.6,-24.28 20.4,-53.91 20.4,-88.88 0,-34.32 -6.8,-63.46 -20.4,-87.42 -13.6,-23.97 -32.54,-42.1 -56.82,-54.4 -24.29,-12.31 -52.63,-18.46 -85.01,-18.46l-96.17 0 0 322.5z"/>
  <path id="6" class="fil13" d="M8900.37 1384.11c-55.69,0 -107.02,-8.74 -153.97,-26.23 -46.94,-17.49 -87.58,-42.25 -121.91,-74.31 -34.32,-32.06 -61.03,-69.78 -80.14,-113.17 -19.1,-43.39 -28.65,-90.66 -28.65,-141.82 0,-51.81 9.55,-99.25 28.65,-142.32 19.11,-43.07 45.82,-80.63 80.14,-112.69 34.33,-32.05 74.97,-56.82 121.91,-74.31 46.95,-17.49 97.95,-26.23 153,-26.23 55.69,0 106.86,8.74 153.49,26.23 46.62,17.49 87.1,42.26 121.43,74.31 34.32,32.06 61.03,69.62 80.13,112.69 19.11,43.07 28.66,90.51 28.66,142.32 0,51.16 -9.55,98.43 -28.66,141.82 -19.1,43.39 -45.81,81.11 -80.13,113.17 -34.33,32.06 -74.81,56.82 -121.43,74.31 -46.63,17.49 -97.47,26.23 -152.52,26.23zm-0.97 -185.54c21.37,0 41.28,-3.89 59.74,-11.66 18.46,-7.77 34.65,-18.95 48.57,-33.51 13.93,-14.57 24.77,-32.38 32.54,-53.43 7.77,-21.05 11.66,-44.84 11.66,-71.39 0,-26.56 -3.89,-50.36 -11.66,-71.41 -7.77,-21.05 -18.62,-38.85 -32.54,-53.42 -13.92,-14.57 -30.11,-25.74 -48.57,-33.51 -18.46,-7.78 -38.37,-11.67 -59.74,-11.67 -21.37,0 -41.28,3.89 -59.74,11.67 -18.46,7.77 -34.65,18.94 -48.57,33.51 -13.93,14.57 -24.77,32.37 -32.54,53.42 -7.77,21.05 -11.67,44.84 -11.67,71.41 0,26.55 3.9,50.34 11.67,71.39 7.77,21.05 18.62,38.86 32.54,53.43 13.92,14.56 30.11,25.74 48.57,33.51 18.46,7.77 38.37,11.66 59.74,11.66z"/>
  <path id="7" class="fil13" d="M9620.19 1384.11c-57,0 -112.03,-6.48 -165.14,-19.43 -53.1,-12.96 -96.81,-29.79 -131.14,-50.52l73.83 -167.08c32.38,18.78 68.49,33.84 108.32,45.17 39.83,11.33 78.52,17 116.08,17 22.02,0 39.35,-1.46 51.98,-4.37 12.62,-2.92 21.86,-7.12 27.68,-12.63 5.83,-5.5 8.75,-12.14 8.75,-19.91 0,-12.31 -6.8,-22.02 -20.4,-29.14 -13.6,-7.12 -31.58,-13.12 -53.92,-17.97 -22.34,-4.85 -46.78,-10.04 -73.34,-15.54 -26.55,-5.51 -53.26,-12.8 -80.13,-21.86 -26.88,-9.07 -51.49,-21.05 -73.83,-35.94 -22.35,-14.89 -40.31,-34.48 -53.92,-58.77 -13.6,-24.29 -20.4,-54.56 -20.4,-90.83 0,-42.09 11.83,-80.47 35.46,-115.11 23.63,-34.64 58.93,-62.33 105.89,-83.06 46.95,-20.72 105.39,-31.08 175.33,-31.08 45.99,0 91.31,4.85 136,14.57 44.69,9.72 84.84,24.61 120.46,44.68l-68.97 166.11c-33.67,-16.83 -66.22,-29.47 -97.62,-37.88 -31.41,-8.42 -62.01,-12.63 -91.8,-12.63 -22.02,0 -39.51,1.95 -52.45,5.83 -12.96,3.89 -22.18,9.07 -27.69,15.54 -5.5,6.48 -8.25,13.6 -8.25,21.37 0,11.66 6.8,20.89 20.39,27.69 13.6,6.79 31.58,12.46 53.92,16.99 22.34,4.53 46.95,9.4 73.83,14.57 26.87,5.19 53.59,12.31 80.14,21.37 26.55,9.06 51,21.05 73.34,35.94 22.34,14.89 40.31,34.32 53.91,58.29 13.6,23.96 20.4,53.75 20.4,89.37 0,41.44 -11.82,79.5 -35.46,114.14 -23.63,34.64 -58.77,62.49 -105.39,83.54 -46.63,21.04 -105.24,31.56 -175.83,31.56z"/>
  <path class="fil14" d="M4069.53 1286.31c-54.4,0 -104.76,-8.58 -151.05,-25.74 -46.31,-17.15 -86.46,-41.61 -120.46,-73.34 -34,-31.73 -60.4,-69.3 -79.18,-112.68 -18.78,-43.39 -28.16,-91.31 -28.16,-143.77 0,-52.46 9.38,-100.39 28.16,-143.77 18.78,-43.39 45.18,-80.95 79.18,-112.69 34,-31.74 74.15,-56.18 120.46,-73.34 46.3,-17.17 96.65,-25.74 151.05,-25.74 66.7,0 125.8,11.66 177.28,34.97 51.49,23.32 94.06,57 127.74,101.03l-144.75 129.2c-20.07,-25.26 -42.25,-44.84 -66.54,-58.77 -24.29,-13.93 -51.65,-20.89 -82.08,-20.89 -23.97,0 -45.66,3.89 -65.09,11.67 -19.43,7.77 -36.11,19.1 -50.02,34 -13.93,14.89 -24.77,32.87 -32.54,53.91 -7.77,21.05 -11.67,44.53 -11.67,70.44 0,25.9 3.9,49.38 11.67,70.43 7.77,21.04 18.62,39.01 32.54,53.91 13.92,14.89 30.6,26.24 50.02,34.01 19.43,7.77 41.12,11.66 65.09,11.66 30.43,0 57.79,-6.96 82.08,-20.89 24.29,-13.93 46.47,-33.51 66.54,-58.77l144.75 129.2c-33.68,43.39 -76.26,76.9 -127.74,100.55 -51.49,23.63 -110.58,35.45 -177.28,35.45z"/>
  <path id="1" class="fil14" d="M4783.51 1286.31c-55.69,0 -107.02,-8.74 -153.97,-26.23 -46.94,-17.49 -87.58,-42.25 -121.91,-74.31 -34.32,-32.06 -61.03,-69.78 -80.14,-113.17 -19.1,-43.39 -28.65,-90.66 -28.65,-141.82 0,-51.81 9.55,-99.25 28.65,-142.32 19.11,-43.07 45.82,-80.63 80.14,-112.69 34.33,-32.05 74.97,-56.82 121.91,-74.31 46.95,-17.49 97.95,-26.23 153,-26.23 55.69,0 106.86,8.74 153.49,26.23 46.62,17.49 87.1,42.26 121.43,74.31 34.32,32.06 61.03,69.62 80.13,112.69 19.11,43.07 28.66,90.51 28.66,142.32 0,51.16 -9.55,98.43 -28.66,141.82 -19.1,43.39 -45.81,81.11 -80.13,113.17 -34.33,32.06 -74.81,56.82 -121.43,74.31 -46.63,17.49 -97.47,26.23 -152.52,26.23zm-0.97 -185.54c21.37,0 41.28,-3.89 59.74,-11.66 18.46,-7.77 34.65,-18.95 48.57,-33.51 13.93,-14.57 24.77,-32.38 32.54,-53.43 7.77,-21.05 11.66,-44.84 11.66,-71.39 0,-26.56 -3.89,-50.36 -11.66,-71.41 -7.77,-21.05 -18.62,-38.85 -32.54,-53.42 -13.92,-14.57 -30.11,-25.74 -48.57,-33.51 -18.46,-7.78 -38.37,-11.67 -59.74,-11.67 -21.37,0 -41.28,3.89 -59.74,11.67 -18.46,7.77 -34.65,18.94 -48.57,33.51 -13.93,14.57 -24.77,32.37 -32.54,53.42 -7.77,21.05 -11.67,44.84 -11.67,71.41 0,26.55 3.9,50.34 11.67,71.39 7.77,21.05 18.62,38.86 32.54,53.43 13.92,14.56 30.11,25.74 48.57,33.51 18.46,7.77 38.37,11.66 59.74,11.66z"/>
  <polygon id="2" class="fil14" points="5249.79,1270.77 5249.79,590.78 5438.25,590.78 5710.24,1034.72 5611.16,1034.72 5875.38,590.78 6063.84,590.78 6065.78,1270.77 5856.93,1270.77 5854.99,905.52 5888.01,905.52 5707.33,1209.56 5606.3,1209.56 5417.85,905.52 5458.65,905.52 5458.65,1270.77 "/>
  <path id="3" class="fil14" d="M6102.7 1270.77l297.25 -679.99 225.37 0 297.25 679.99 -237.03 0 -219.53 -571.19 89.37 0 -219.54 571.19 -233.14 0zm176.8 -118.51l58.29 -165.14 312.8 0 58.29 165.14 -429.37 0z"/>
  <polygon id="4" class="fil14" points="6959.49,1270.77 6959.49,590.78 7147.94,590.78 7493.76,1004.6 7406.33,1004.6 7406.33,590.78 7629.76,590.78 7629.76,1270.77 7441.31,1270.77 7095.48,856.95 7182.91,856.95 7182.91,1270.77 "/>
  <path id="5" class="fil14" d="M7740.5 1270.77l0 -679.99 335.14 0c75.77,0 142.48,13.76 200.12,41.28 57.63,27.53 102.64,66.55 135.02,117.06 32.38,50.52 48.57,110.74 48.57,180.68 0,70.6 -16.19,131.31 -48.57,182.15 -32.38,50.84 -77.39,90.01 -135.02,117.54 -57.64,27.52 -124.34,41.28 -200.12,41.28l-335.14 0zm229.25 -178.74l96.17 0c32.38,0 60.72,-6.15 85.01,-18.46 24.28,-12.3 43.22,-30.6 56.82,-54.89 13.6,-24.28 20.4,-53.91 20.4,-88.88 0,-34.32 -6.8,-63.46 -20.4,-87.42 -13.6,-23.97 -32.54,-42.1 -56.82,-54.4 -24.29,-12.31 -52.63,-18.46 -85.01,-18.46l-96.17 0 0 322.5z"/>
  <path id="6" class="fil14" d="M8900.37 1286.31c-55.69,0 -107.02,-8.74 -153.97,-26.23 -46.94,-17.49 -87.58,-42.25 -121.91,-74.31 -34.32,-32.06 -61.03,-69.78 -80.14,-113.17 -19.1,-43.39 -28.65,-90.66 -28.65,-141.82 0,-51.81 9.55,-99.25 28.65,-142.32 19.11,-43.07 45.82,-80.63 80.14,-112.69 34.33,-32.05 74.97,-56.82 121.91,-74.31 46.95,-17.49 97.95,-26.23 153,-26.23 55.69,0 106.86,8.74 153.49,26.23 46.62,17.49 87.1,42.26 121.43,74.31 34.32,32.06 61.03,69.62 80.13,112.69 19.11,43.07 28.66,90.51 28.66,142.32 0,51.16 -9.55,98.43 -28.66,141.82 -19.1,43.39 -45.81,81.11 -80.13,113.17 -34.33,32.06 -74.81,56.82 -121.43,74.31 -46.63,17.49 -97.47,26.23 -152.52,26.23zm-0.97 -185.54c21.37,0 41.28,-3.89 59.74,-11.66 18.46,-7.77 34.65,-18.95 48.57,-33.51 13.93,-14.57 24.77,-32.38 32.54,-53.43 7.77,-21.05 11.66,-44.84 11.66,-71.39 0,-26.56 -3.89,-50.36 -11.66,-71.41 -7.77,-21.05 -18.62,-38.85 -32.54,-53.42 -13.92,-14.57 -30.11,-25.74 -48.57,-33.51 -18.46,-7.78 -38.37,-11.67 -59.74,-11.67 -21.37,0 -41.28,3.89 -59.74,11.67 -18.46,7.77 -34.65,18.94 -48.57,33.51 -13.93,14.57 -24.77,32.37 -32.54,53.42 -7.77,21.05 -11.67,44.84 -11.67,71.41 0,26.55 3.9,50.34 11.67,71.39 7.77,21.05 18.62,38.86 32.54,53.43 13.92,14.56 30.11,25.74 48.57,33.51 18.46,7.77 38.37,11.66 59.74,11.66z"/>
  <path id="7" class="fil14" d="M9620.19 1286.31c-57,0 -112.03,-6.48 -165.14,-19.43 -53.1,-12.96 -96.81,-29.79 -131.14,-50.52l73.83 -167.08c32.38,18.78 68.49,33.84 108.32,45.17 39.83,11.33 78.52,17 116.08,17 22.02,0 39.35,-1.46 51.98,-4.37 12.62,-2.92 21.86,-7.12 27.68,-12.63 5.83,-5.5 8.75,-12.14 8.75,-19.91 0,-12.31 -6.8,-22.02 -20.4,-29.14 -13.6,-7.12 -31.58,-13.12 -53.92,-17.97 -22.34,-4.85 -46.78,-10.04 -73.34,-15.54 -26.55,-5.51 -53.26,-12.8 -80.13,-21.86 -26.88,-9.07 -51.49,-21.05 -73.83,-35.94 -22.35,-14.89 -40.31,-34.48 -53.92,-58.77 -13.6,-24.29 -20.4,-54.56 -20.4,-90.83 0,-42.09 11.83,-80.47 35.46,-115.11 23.63,-34.64 58.93,-62.33 105.89,-83.06 46.95,-20.72 105.39,-31.08 175.33,-31.08 45.99,0 91.31,4.85 136,14.57 44.69,9.72 84.84,24.61 120.46,44.68l-68.97 166.11c-33.67,-16.83 -66.22,-29.47 -97.62,-37.88 -31.41,-8.42 -62.01,-12.63 -91.8,-12.63 -22.02,0 -39.51,1.95 -52.45,5.83 -12.96,3.89 -22.18,9.07 -27.69,15.54 -5.5,6.48 -8.25,13.6 -8.25,21.37 0,11.66 6.8,20.89 20.39,27.69 13.6,6.79 31.58,12.46 53.92,16.99 22.34,4.53 46.95,9.4 73.83,14.57 26.87,5.19 53.59,12.31 80.14,21.37 26.55,9.06 51,21.05 73.34,35.94 22.34,14.89 40.31,34.32 53.91,58.29 13.6,23.96 20.4,53.75 20.4,89.37 0,41.44 -11.82,79.5 -35.46,114.14 -23.63,34.64 -58.77,62.49 -105.39,83.54 -46.63,21.04 -105.24,31.56 -175.83,31.56z"/>
  <path class="fil10" d="M4069.53 1208.07c-54.4,0 -104.76,-8.58 -151.05,-25.74 -46.31,-17.15 -86.46,-41.61 -120.46,-73.34 -34,-31.73 -60.4,-69.3 -79.18,-112.68 -18.78,-43.39 -28.16,-91.31 -28.16,-143.77 0,-52.46 9.38,-100.39 28.16,-143.77 18.78,-43.39 45.18,-80.95 79.18,-112.69 34,-31.74 74.15,-56.18 120.46,-73.34 46.3,-17.17 96.65,-25.74 151.05,-25.74 66.7,0 125.8,11.66 177.28,34.97 51.49,23.32 94.06,57 127.74,101.03l-144.75 129.2c-20.07,-25.26 -42.25,-44.84 -66.54,-58.77 -24.29,-13.93 -51.65,-20.89 -82.08,-20.89 -23.97,0 -45.66,3.89 -65.09,11.67 -19.43,7.77 -36.11,19.1 -50.02,34 -13.93,14.89 -24.77,32.87 -32.54,53.91 -7.77,21.05 -11.67,44.53 -11.67,70.44 0,25.9 3.9,49.38 11.67,70.43 7.77,21.04 18.62,39.01 32.54,53.91 13.92,14.89 30.6,26.24 50.02,34.01 19.43,7.77 41.12,11.66 65.09,11.66 30.43,0 57.79,-6.96 82.08,-20.89 24.29,-13.93 46.47,-33.51 66.54,-58.77l144.75 129.2c-33.68,43.39 -76.26,76.9 -127.74,100.55 -51.49,23.63 -110.58,35.45 -177.28,35.45z"/>
  <path id="1" class="fil10" d="M4783.51 1208.07c-55.69,0 -107.02,-8.74 -153.97,-26.23 -46.94,-17.49 -87.58,-42.25 -121.91,-74.31 -34.32,-32.06 -61.03,-69.78 -80.14,-113.17 -19.1,-43.39 -28.65,-90.66 -28.65,-141.82 0,-51.81 9.55,-99.25 28.65,-142.32 19.11,-43.07 45.82,-80.63 80.14,-112.69 34.33,-32.05 74.97,-56.82 121.91,-74.31 46.95,-17.49 97.95,-26.23 153,-26.23 55.69,0 106.86,8.74 153.49,26.23 46.62,17.49 87.1,42.26 121.43,74.31 34.32,32.06 61.03,69.62 80.13,112.69 19.11,43.07 28.66,90.51 28.66,142.32 0,51.16 -9.55,98.43 -28.66,141.82 -19.1,43.39 -45.81,81.11 -80.13,113.17 -34.33,32.06 -74.81,56.82 -121.43,74.31 -46.63,17.49 -97.47,26.23 -152.52,26.23zm-0.97 -185.54c21.37,0 41.28,-3.89 59.74,-11.66 18.46,-7.77 34.65,-18.95 48.57,-33.51 13.93,-14.57 24.77,-32.38 32.54,-53.43 7.77,-21.05 11.66,-44.84 11.66,-71.39 0,-26.56 -3.89,-50.36 -11.66,-71.41 -7.77,-21.05 -18.62,-38.85 -32.54,-53.42 -13.92,-14.57 -30.11,-25.74 -48.57,-33.51 -18.46,-7.78 -38.37,-11.67 -59.74,-11.67 -21.37,0 -41.28,3.89 -59.74,11.67 -18.46,7.77 -34.65,18.94 -48.57,33.51 -13.93,14.57 -24.77,32.37 -32.54,53.42 -7.77,21.05 -11.67,44.84 -11.67,71.41 0,26.55 3.9,50.34 11.67,71.39 7.77,21.05 18.62,38.86 32.54,53.43 13.92,14.56 30.11,25.74 48.57,33.51 18.46,7.77 38.37,11.66 59.74,11.66z"/>
  <polygon id="2" class="fil10" points="5249.79,1192.53 5249.79,512.54 5438.25,512.54 5710.24,956.48 5611.16,956.48 5875.38,512.54 6063.84,512.54 6065.78,1192.53 5856.93,1192.53 5854.99,827.28 5888.01,827.28 5707.33,1131.33 5606.3,1131.33 5417.85,827.28 5458.65,827.28 5458.65,1192.53 "/>
  <path id="3" class="fil10" d="M6102.7 1192.53l297.25 -679.99 225.37 0 297.25 679.99 -237.03 0 -219.53 -571.19 89.37 0 -219.54 571.19 -233.14 0zm176.8 -118.51l58.29 -165.14 312.8 0 58.29 165.14 -429.37 0z"/>
  <polygon id="4" class="fil10" points="6959.49,1192.53 6959.49,512.54 7147.94,512.54 7493.76,926.36 7406.33,926.36 7406.33,512.54 7629.76,512.54 7629.76,1192.53 7441.31,1192.53 7095.48,778.71 7182.91,778.71 7182.91,1192.53 "/>
  <path id="5" class="fil10" d="M7740.5 1192.53l0 -679.99 335.14 0c75.77,0 142.48,13.76 200.12,41.28 57.63,27.53 102.64,66.55 135.02,117.06 32.38,50.52 48.57,110.74 48.57,180.68 0,70.6 -16.19,131.31 -48.57,182.15 -32.38,50.84 -77.39,90.01 -135.02,117.54 -57.64,27.52 -124.34,41.28 -200.12,41.28l-335.14 0zm229.25 -178.74l96.17 0c32.38,0 60.72,-6.15 85.01,-18.46 24.28,-12.3 43.22,-30.6 56.82,-54.89 13.6,-24.28 20.4,-53.91 20.4,-88.88 0,-34.32 -6.8,-63.46 -20.4,-87.42 -13.6,-23.97 -32.54,-42.1 -56.82,-54.4 -24.29,-12.31 -52.63,-18.46 -85.01,-18.46l-96.17 0 0 322.5z"/>
  <path id="6" class="fil10" d="M8900.37 1208.07c-55.69,0 -107.02,-8.74 -153.97,-26.23 -46.94,-17.49 -87.58,-42.25 -121.91,-74.31 -34.32,-32.06 -61.03,-69.78 -80.14,-113.17 -19.1,-43.39 -28.65,-90.66 -28.65,-141.82 0,-51.81 9.55,-99.25 28.65,-142.32 19.11,-43.07 45.82,-80.63 80.14,-112.69 34.33,-32.05 74.97,-56.82 121.91,-74.31 46.95,-17.49 97.95,-26.23 153,-26.23 55.69,0 106.86,8.74 153.49,26.23 46.62,17.49 87.1,42.26 121.43,74.31 34.32,32.06 61.03,69.62 80.13,112.69 19.11,43.07 28.66,90.51 28.66,142.32 0,51.16 -9.55,98.43 -28.66,141.82 -19.1,43.39 -45.81,81.11 -80.13,113.17 -34.33,32.06 -74.81,56.82 -121.43,74.31 -46.63,17.49 -97.47,26.23 -152.52,26.23zm-0.97 -185.54c21.37,0 41.28,-3.89 59.74,-11.66 18.46,-7.77 34.65,-18.95 48.57,-33.51 13.93,-14.57 24.77,-32.38 32.54,-53.43 7.77,-21.05 11.66,-44.84 11.66,-71.39 0,-26.56 -3.89,-50.36 -11.66,-71.41 -7.77,-21.05 -18.62,-38.85 -32.54,-53.42 -13.92,-14.57 -30.11,-25.74 -48.57,-33.51 -18.46,-7.78 -38.37,-11.67 -59.74,-11.67 -21.37,0 -41.28,3.89 -59.74,11.67 -18.46,7.77 -34.65,18.94 -48.57,33.51 -13.93,14.57 -24.77,32.37 -32.54,53.42 -7.77,21.05 -11.67,44.84 -11.67,71.41 0,26.55 3.9,50.34 11.67,71.39 7.77,21.05 18.62,38.86 32.54,53.43 13.92,14.56 30.11,25.74 48.57,33.51 18.46,7.77 38.37,11.66 59.74,11.66z"/>
  <path id="7" class="fil10" d="M9620.19 1208.07c-57,0 -112.03,-6.48 -165.14,-19.43 -53.1,-12.96 -96.81,-29.79 -131.14,-50.52l73.83 -167.08c32.38,18.78 68.49,33.84 108.32,45.17 39.83,11.33 78.52,17 116.08,17 22.02,0 39.35,-1.46 51.98,-4.37 12.62,-2.92 21.86,-7.12 27.68,-12.63 5.83,-5.5 8.75,-12.14 8.75,-19.91 0,-12.31 -6.8,-22.02 -20.4,-29.14 -13.6,-7.12 -31.58,-13.12 -53.92,-17.97 -22.34,-4.85 -46.78,-10.04 -73.34,-15.54 -26.55,-5.51 -53.26,-12.8 -80.13,-21.86 -26.88,-9.07 -51.49,-21.05 -73.83,-35.94 -22.35,-14.89 -40.31,-34.48 -53.92,-58.77 -13.6,-24.29 -20.4,-54.56 -20.4,-90.83 0,-42.09 11.83,-80.47 35.46,-115.11 23.63,-34.64 58.93,-62.33 105.89,-83.06 46.95,-20.72 105.39,-31.08 175.33,-31.08 45.99,0 91.31,4.85 136,14.57 44.69,9.72 84.84,24.61 120.46,44.68l-68.97 166.11c-33.67,-16.83 -66.22,-29.47 -97.62,-37.88 -31.41,-8.42 -62.01,-12.63 -91.8,-12.63 -22.02,0 -39.51,1.95 -52.45,5.83 -12.96,3.89 -22.18,9.07 -27.69,15.54 -5.5,6.48 -8.25,13.6 -8.25,21.37 0,11.66 6.8,20.89 20.39,27.69 13.6,6.79 31.58,12.46 53.92,16.99 22.34,4.53 46.95,9.4 73.83,14.57 26.87,5.19 53.59,12.31 80.14,21.37 26.55,9.06 51,21.05 73.34,35.94 22.34,14.89 40.31,34.32 53.91,58.29 13.6,23.96 20.4,53.75 20.4,89.37 0,41.44 -11.82,79.5 -35.46,114.14 -23.63,34.64 -58.77,62.49 -105.39,83.54 -46.63,21.04 -105.24,31.56 -175.83,31.56z"/>
 </g>
</svg>
