<?xml version="1.0" encoding="UTF-8"?>
<!DOCTYPE svg PUBLIC "-//W3C//DTD SVG 1.1//EN" "http://www.w3.org/Graphics/SVG/1.1/DTD/svg11.dtd">
<!-- Creator: CorelDRAW 2020 (64 Bit) -->
<svg xmlns="http://www.w3.org/2000/svg" xml:space="preserve" width="107.156mm" height="27.3205mm" version="1.1" style="shape-rendering:geometricPrecision; text-rendering:geometricPrecision; image-rendering:optimizeQuality; fill-rule:evenodd; clip-rule:evenodd"
viewBox="0 0 5726.98 1460.15"
 xmlns:xlink="http://www.w3.org/1999/xlink"
 xmlns:xodm="http://www.corel.com/coreldraw/odm/2003">
 <defs>
  <style type="text/css">
   <![CDATA[
    .str0 {stroke:#9D98CA;stroke-width:28.28;stroke-miterlimit:22.9256}
    .fil2 {fill:none}
    .fil3 {fill:#FEFEFE}
    .fil1 {fill:#716DB0}
    .fil0 {fill:#5C598A}
    .fil4 {fill:#373435;fill-rule:nonzero}
   ]]>
  </style>
 </defs>
 <g id="Camada_x0020_1">
  <metadata id="CorelCorpID_0Corel-Layer"/>
  <g id="_2717726053632">
   <path class="fil0" d="M168.76 14.14l5389.45 0c85.04,0 154.62,69.57 154.62,154.62l0 1122.62c0,85.05 -69.58,154.62 -154.62,154.62l-5389.45 0c-85.04,0 -154.62,-69.57 -154.62,-154.62l0 -1122.62c0,-85.05 69.58,-154.62 154.62,-154.62z"/>
   <path class="fil1" d="M168.76 14.14l5389.45 0c85.04,0 154.62,69.57 154.62,154.62l0 1122.62c0,85.05 -69.58,154.62 -154.62,154.62l-5389.45 0c-85.04,0 -154.62,-69.57 -154.62,-154.62l0 -1122.62c0,-85.05 69.58,-154.62 154.62,-154.62z"/>
   <path class="fil2 str0" d="M168.76 14.14l5389.45 0c85.04,0 154.62,69.57 154.62,154.62l0 1122.62c0,85.05 -69.58,154.62 -154.62,154.62l-5389.45 0c-85.04,0 -154.62,-69.57 -154.62,-154.62l0 -1122.62c0,-85.05 69.58,-154.62 154.62,-154.62z"/>
   <g>
    <path class="fil0" d="M777.81 213.83c314.15,0 568.82,254.67 568.82,568.81 0,314.14 -254.67,568.82 -568.82,568.82 -314.14,0 -568.81,-254.67 -568.81,-568.82 0,-314.14 254.67,-568.81 568.81,-568.81z"/>
    <path class="fil0" d="M543.47 1010.55l-98.02 0c-8.01,0 -13.8,-1.79 -17.39,-5.38 -3.58,-3.58 -5.38,-9.38 -5.38,-17.39l0 -409.78c0,-8.01 1.8,-13.81 5.38,-17.39 3.59,-3.59 9.38,-5.38 17.39,-5.38l193.51 0c57.34,0 96.54,11.38 117.62,34.15 21.08,22.76 31.62,52.49 31.62,89.16l0 80.95c0,36.68 -10.54,66.4 -31.62,89.17 -21.08,22.76 -60.29,34.15 -117.62,34.15l-72.73 0 0 104.98c0,8.01 -1.79,13.81 -5.38,17.39 -3.58,3.59 -9.38,5.38 -17.39,5.38zm21.5 -337.06l0 95.49 56.91 0c12.22,0 20.23,-3.16 24.03,-9.49 3.79,-6.32 5.69,-13.49 5.69,-21.5l0 -33.52c0,-8.01 -1.9,-15.18 -5.69,-21.5 -3.79,-6.33 -11.81,-9.49 -24.03,-9.49l-56.91 0zm578 337.06l-279.52 0c-8.01,0 -13.8,-1.79 -17.39,-5.38 -3.58,-3.58 -5.37,-9.38 -5.37,-17.39l0 -76.52c0,-8.01 1.79,-13.8 5.37,-17.39 3.59,-3.58 9.38,-5.38 17.39,-5.38l70.83 0 0 -211.21 -58.18 0c-8.01,0 -13.81,-1.8 -17.39,-5.38 -3.59,-3.59 -5.38,-9.38 -5.38,-17.39l0 -76.52c0,-8.01 1.79,-13.81 5.38,-17.39 3.58,-3.59 9.38,-5.38 17.39,-5.38l183.39 0c8.01,0 13.8,1.79 17.39,5.38 3.58,3.58 5.38,9.38 5.38,17.39l0 310.5 60.71 0c8.01,0 13.8,1.8 17.39,5.38 3.58,3.59 5.38,9.38 5.38,17.39l0 76.52c0,8.01 -1.8,13.81 -5.38,17.39 -3.59,3.59 -9.38,5.38 -17.39,5.38z"/>
   </g>
   <g>
    <path class="fil0" d="M2180.32 213.83c314.14,0 568.81,254.67 568.81,568.81 0,314.14 -254.67,568.82 -568.81,568.82 -314.15,0 -568.82,-254.67 -568.82,-568.82 0,-314.14 254.67,-568.81 568.82,-568.81z"/>
    <path class="fil0" d="M1945.98 1010.55l-98.02 0c-8.01,0 -13.8,-1.79 -17.39,-5.38 -3.58,-3.58 -5.38,-9.38 -5.38,-17.39l0 -409.78c0,-8.01 1.8,-13.81 5.38,-17.39 3.59,-3.59 9.38,-5.38 17.39,-5.38l193.51 0c57.34,0 96.54,11.38 117.62,34.15 21.08,22.76 31.62,52.49 31.62,89.16l0 80.95c0,36.68 -10.54,66.4 -31.62,89.17 -21.08,22.76 -60.29,34.15 -117.62,34.15l-72.73 0 0 104.98c0,8.01 -1.79,13.81 -5.38,17.39 -3.58,3.59 -9.38,5.38 -17.39,5.38zm21.5 -337.06l0 95.49 56.91 0c12.22,0 20.23,-3.16 24.03,-9.49 3.79,-6.32 5.69,-13.49 5.69,-21.5l0 -33.52c0,-8.01 -1.9,-15.18 -5.69,-21.5 -3.79,-6.33 -11.81,-9.49 -24.03,-9.49l-56.91 0zm594.44 337.06l-301.01 0c-8.01,0 -13.81,-1.79 -17.39,-5.38 -3.59,-3.58 -5.38,-9.38 -5.38,-17.39l0 -108.77c0,-24.45 2.43,-44.58 7.27,-60.39 4.85,-15.81 11.7,-28.77 20.55,-38.89 8.86,-10.12 19.4,-18.13 31.62,-24.03 12.22,-5.9 25.5,-10.96 39.84,-15.18l84.74 -26.56c6.74,-1.69 11.28,-4.22 13.6,-7.59 2.31,-3.37 3.47,-8.43 3.47,-15.18 0,-6.32 -1.26,-10.65 -3.79,-12.97 -2.53,-2.32 -6.95,-3.48 -13.28,-3.48l-137.23 0c-8.01,0 -13.8,-1.79 -17.39,-5.37 -3.58,-3.59 -5.38,-9.38 -5.38,-17.39l0 -73.99c0,-8.01 1.8,-13.81 5.38,-17.39 3.59,-3.59 9.38,-5.38 17.39,-5.38l186.56 0c35.83,0 63.34,8.96 82.52,26.88 19.19,17.91 28.77,43.95 28.77,78.1l0 59.44c0,31.62 -8.85,55.87 -26.56,72.73 -17.71,16.86 -41.74,29.93 -72.09,39.21l-86 27.19c-6.32,1.69 -10.65,3.59 -12.96,5.69 -2.32,2.11 -3.48,6.54 -3.48,13.28l0 13.28 180.23 0c8.01,0 13.81,1.79 17.39,5.37 3.59,3.59 5.38,9.38 5.38,17.39l0 73.99c0,8.01 -1.79,13.81 -5.38,17.39 -3.58,3.59 -9.38,5.38 -17.39,5.38z"/>
   </g>
   <g>
    <path class="fil0" d="M3567.23 213.83c314.14,0 568.81,254.67 568.81,568.81 0,314.14 -254.67,568.82 -568.81,568.82 -314.15,0 -568.82,-254.67 -568.82,-568.82 0,-314.14 254.67,-568.81 568.82,-568.81z"/>
    <path class="fil0" d="M3332.9 1010.55l-98.02 0c-8.01,0 -13.8,-1.79 -17.39,-5.38 -3.58,-3.58 -5.38,-9.38 -5.38,-17.39l0 -409.78c0,-8.01 1.8,-13.81 5.38,-17.39 3.59,-3.59 9.38,-5.38 17.39,-5.38l193.51 0c57.34,0 96.54,11.38 117.62,34.15 21.08,22.76 31.62,52.49 31.62,89.16l0 80.95c0,36.68 -10.54,66.4 -31.62,89.17 -21.08,22.76 -60.29,34.15 -117.62,34.15l-72.73 0 0 104.98c0,8.01 -1.79,13.81 -5.38,17.39 -3.58,3.59 -9.38,5.38 -17.39,5.38zm21.5 -337.06l0 95.49 56.91 0c12.22,0 20.23,-3.16 24.03,-9.49 3.79,-6.32 5.69,-13.49 5.69,-21.5l0 -33.52c0,-8.01 -1.9,-15.18 -5.69,-21.5 -3.79,-6.33 -11.81,-9.49 -24.03,-9.49l-56.91 0zm299.12 217.54l158.73 0c10.12,0 16.65,-1.9 19.6,-5.69 2.95,-3.79 4.43,-8.23 4.43,-13.28l0 -17.08c0,-5.06 -1.48,-9.38 -4.43,-12.97 -2.95,-3.58 -9.49,-5.37 -19.6,-5.37l-107.5 0c-8.01,0 -13.8,-1.8 -17.39,-5.38 -3.58,-3.59 -5.38,-9.38 -5.38,-17.39l0 -67.67c0,-8.01 1.8,-13.8 5.38,-17.39 3.59,-3.58 9.38,-5.38 17.39,-5.38l66.4 0c10.12,0 16.65,-1.9 19.6,-5.69 2.95,-3.79 4.43,-8.23 4.43,-13.28l0 -9.49c0,-5.06 -1.48,-9.49 -4.43,-13.28 -2.95,-3.79 -9.49,-5.69 -19.6,-5.69l-117.62 0c-8.01,0 -13.81,-1.79 -17.39,-5.38 -3.59,-3.58 -5.38,-9.38 -5.38,-17.39l0 -75.25c0,-8.01 1.79,-13.81 5.38,-17.39 3.58,-3.59 9.38,-5.38 17.39,-5.38l176.43 0c35,0 61.03,8.12 78.1,24.35 17.08,16.23 25.62,38.26 25.62,66.08l0 36.68c0,16.02 -2.74,29.93 -8.23,41.74 -5.48,11.81 -15.17,20.66 -29.09,26.56 29.93,3.37 50.7,12.54 62.29,27.51 11.6,14.96 17.39,36.36 17.39,64.19l0 63.24c0,32.46 -10.33,58.07 -30.99,76.84 -20.66,18.76 -51.22,28.14 -91.7,28.14l-199.83 0c-8.01,0 -13.81,-1.79 -17.39,-5.38 -3.59,-3.58 -5.38,-9.38 -5.38,-17.39l0 -73.99c0,-8.01 1.79,-13.8 5.38,-17.39 3.58,-3.58 9.38,-5.37 17.39,-5.37z"/>
   </g>
   <g>
    <path class="fil0" d="M4954.14 213.83c314.15,0 568.82,254.67 568.82,568.81 0,314.14 -254.67,568.82 -568.82,568.82 -314.14,0 -568.81,-254.67 -568.81,-568.82 0,-314.14 254.67,-568.81 568.81,-568.81z"/>
    <path class="fil0" d="M4719.81 1010.55l-98.02 0c-8.01,0 -13.8,-1.79 -17.39,-5.38 -3.58,-3.58 -5.38,-9.38 -5.38,-17.39l0 -409.78c0,-8.01 1.8,-13.81 5.38,-17.39 3.59,-3.59 9.38,-5.38 17.39,-5.38l193.51 0c57.34,0 96.54,11.38 117.62,34.15 21.08,22.76 31.62,52.49 31.62,89.16l0 80.95c0,36.68 -10.54,66.4 -31.62,89.17 -21.08,22.76 -60.29,34.15 -117.62,34.15l-72.73 0 0 104.98c0,8.01 -1.79,13.81 -5.38,17.39 -3.58,3.59 -9.38,5.38 -17.39,5.38zm21.5 -337.06l0 95.49 56.91 0c12.22,0 20.23,-3.16 24.03,-9.49 3.79,-6.32 5.69,-13.49 5.69,-21.5l0 -33.52c0,-8.01 -1.9,-15.18 -5.69,-21.5 -3.79,-6.33 -11.81,-9.49 -24.03,-9.49l-56.91 0zm507.18 231.45l-106.87 0c-40.9,0 -70.3,-8.54 -88.22,-25.61 -17.91,-17.08 -26.88,-43.53 -26.88,-79.37l0 -221.97c0,-8.01 1.8,-13.81 5.38,-17.39 3.59,-3.59 9.38,-5.38 17.39,-5.38l98.02 0c8.01,0 13.8,1.79 17.39,5.38 3.59,3.58 5.38,9.38 5.38,17.39l0 173.27c0,6.74 1.8,12.01 5.38,15.81 3.59,3.79 8.33,5.69 14.23,5.69l58.82 0 0 -194.78c0,-8.01 1.79,-13.81 5.37,-17.39 3.59,-3.59 9.38,-5.38 17.39,-5.38l97.39 0c8.01,0 13.81,1.79 17.39,5.38 3.59,3.58 5.38,9.38 5.38,17.39l0 409.78c0,8.01 -1.79,13.81 -5.38,17.39 -3.58,3.59 -9.38,5.38 -17.39,5.38l-97.39 0c-8.01,0 -13.8,-1.79 -17.39,-5.38 -3.58,-3.58 -5.37,-9.38 -5.37,-17.39l0 -82.84z"/>
   </g>
   <path class="fil3" d="M783.15 107.55c314.14,0 568.81,254.67 568.81,568.81 0,314.14 -254.67,568.82 -568.81,568.82 -314.14,0 -568.81,-254.67 -568.81,-568.82 0,-314.14 254.67,-568.81 568.81,-568.81z"/>
   <path class="fil4" d="M497.66 881.12l0 -395.94 190.62 0c36.96,0 68.91,6.03 95.88,18.1 26.96,12.06 47.8,29.31 62.5,51.75 14.71,22.44 22.06,48.93 22.06,79.47 0,30.54 -7.35,56.94 -22.06,79.18 -14.7,22.25 -35.54,39.5 -62.5,51.76 -26.96,12.25 -58.92,18.39 -95.88,18.39l-116.52 0 59.39 -57.13 0 154.41 -133.49 0zm133.49 -139.71l-59.39 -60.52 108.03 0c18.48,0 32.15,-4.15 41.01,-12.44 8.86,-8.29 13.29,-19.61 13.29,-33.94 0,-14.33 -4.43,-25.64 -13.29,-33.94 -8.86,-8.29 -22.53,-12.44 -41.01,-12.44l-108.03 0 59.39 -60.53 0 213.81zm325.23 139.71l0 -349.56 57.13 54.3 -125 0 0 -100.68 201.36 0 0 395.94 -133.49 0z"/>
   <path class="fil3" d="M2185.66 107.55c314.15,0 568.82,254.67 568.82,568.81 0,314.14 -254.67,568.82 -568.82,568.82 -314.14,0 -568.81,-254.67 -568.81,-568.82 0,-314.14 254.67,-568.81 568.81,-568.81z"/>
   <path class="fil4" d="M1842.29 892.7l0 -395.94 190.62 0c36.96,0 68.91,6.03 95.88,18.1 26.96,12.06 47.8,29.31 62.5,51.75 14.71,22.44 22.06,48.93 22.06,79.47 0,30.54 -7.35,56.94 -22.06,79.18 -14.7,22.25 -35.54,39.5 -62.5,51.76 -26.96,12.25 -58.92,18.39 -95.88,18.39l-116.52 0 59.39 -57.13 0 154.41 -133.49 0zm133.49 -139.71l-59.39 -60.52 108.03 0c18.48,0 32.15,-4.15 41.01,-12.44 8.86,-8.29 13.29,-19.61 13.29,-33.94 0,-14.33 -4.43,-25.64 -13.29,-33.94 -8.86,-8.29 -22.53,-12.44 -41.01,-12.44l-108.03 0 59.39 -60.53 0 213.81zm270.37 139.71l0 -82.02 143.1 -132.36c9.05,-8.67 15.74,-16.22 20.08,-22.62 4.34,-6.41 7.26,-12.16 8.77,-17.25 1.51,-5.09 2.26,-9.9 2.26,-14.42 0,-9.8 -3.21,-17.44 -9.61,-22.91 -6.41,-5.47 -16.03,-8.2 -28.85,-8.2 -11.69,0 -22.81,3.11 -33.37,9.33 -10.56,6.22 -18.86,15.37 -24.89,27.43l-100.68 -50.34c14.33,-27.15 35.82,-49.21 64.48,-66.18 28.66,-16.97 64.29,-25.45 106.91,-25.45 31.3,0 59.01,5.09 83.14,15.27 24.14,10.18 42.99,24.51 56.56,42.99 13.58,18.48 20.36,40.35 20.36,65.61 0,12.82 -1.6,25.64 -4.8,38.46 -3.21,12.82 -9.71,26.3 -19.52,40.44 -9.8,14.14 -24.32,29.88 -43.55,47.23l-107.47 97.85 -20.93 -46.38 205.33 0 0 103.51 -317.32 0z"/>
   <path class="fil3" d="M3572.57 107.55c314.15,0 568.82,254.67 568.82,568.81 0,314.14 -254.67,568.82 -568.82,568.82 -314.14,0 -568.81,-254.67 -568.81,-568.82 0,-314.14 254.67,-568.81 568.81,-568.81z"/>
   <path class="fil4" d="M3246.56 886.91l0 -395.94 190.62 0c36.96,0 68.91,6.03 95.88,18.1 26.96,12.06 47.8,29.31 62.5,51.75 14.71,22.44 22.06,48.93 22.06,79.47 0,30.54 -7.35,56.94 -22.06,79.18 -14.7,22.25 -35.54,39.5 -62.5,51.76 -26.96,12.25 -58.92,18.39 -95.88,18.39l-116.52 0 59.39 -57.13 0 154.41 -133.49 0zm133.49 -139.71l-59.39 -60.52 108.03 0c18.48,0 32.15,-4.15 41.01,-12.44 8.86,-8.29 13.29,-19.61 13.29,-33.94 0,-14.33 -4.43,-25.64 -13.29,-33.94 -8.86,-8.29 -22.53,-12.44 -41.01,-12.44l-108.03 0 59.39 -60.53 0 213.81zm407.25 148.76c-27.15,0 -54.68,-3.01 -82.58,-9.05 -27.9,-6.03 -52.41,-14.9 -73.53,-26.58l45.25 -98.42c16.97,9.8 34.78,17.07 53.45,21.77 18.66,4.71 36.29,7.07 52.88,7.07 15.08,0 27.43,-2.54 37.05,-7.63 9.61,-5.09 14.42,-12.73 14.42,-22.91 0,-8.67 -3.58,-15.37 -10.75,-20.08 -7.16,-4.71 -19.23,-7.07 -36.2,-7.07l-52.61 0 0 -82.01 102.38 -104.08 11.88 44.69 -197.4 0 0 -100.68 295.26 0 0 82.02 -102.38 104.07 -63.91 -36.2 35.07 0c49.77,0 87.67,11.12 113.69,33.37 26.02,22.25 39.03,50.91 39.03,85.97 0,22.63 -6.31,44.31 -18.95,65.05 -12.63,20.74 -32.24,37.71 -58.83,50.91 -26.58,13.2 -60.99,19.8 -103.22,19.8z"/>
   <path class="fil3" d="M4959.49 107.55c314.14,0 568.82,254.67 568.82,568.81 0,314.14 -254.67,568.82 -568.82,568.82 -314.14,0 -568.81,-254.67 -568.81,-568.82 0,-314.14 254.67,-568.81 568.81,-568.81z"/>
   <path class="fil4" d="M4598.76 886.91l0 -395.94 190.62 0c36.96,0 68.91,6.03 95.88,18.1 26.96,12.06 47.8,29.31 62.5,51.75 14.71,22.44 22.06,48.93 22.06,79.47 0,30.54 -7.35,56.94 -22.06,79.18 -14.7,22.25 -35.54,39.5 -62.5,51.76 -26.96,12.25 -58.92,18.39 -95.88,18.39l-116.52 0 59.39 -57.13 0 154.41 -133.49 0zm133.49 -139.71l-59.39 -60.52 108.03 0c18.48,0 32.15,-4.15 41.01,-12.44 8.86,-8.29 13.29,-19.61 13.29,-33.94 0,-14.33 -4.43,-25.64 -13.29,-33.94 -8.86,-8.29 -22.53,-12.44 -41.01,-12.44l-108.03 0 59.39 -60.53 0 213.81zm267.54 71.84l0 -84.84 167.99 -243.22 136.88 0 -161.77 243.22 -62.22 -18.66 306.57 0 0 103.51 -387.46 0zm205.33 67.88l0 -67.88 3.95 -103.51 0 -60.53 125.57 0 0 231.91 -129.52 0z"/>
  </g>
 </g>
</svg>
