<?xml version="1.0" encoding="UTF-8"?>
<!DOCTYPE svg PUBLIC "-//W3C//DTD SVG 1.1//EN" "http://www.w3.org/Graphics/SVG/1.1/DTD/svg11.dtd">
<!-- Creator: CorelDRAW 2020 (64 Bit) -->
<svg xmlns="http://www.w3.org/2000/svg" xml:space="preserve" width="11.91mm" height="13.1373mm" version="1.1" style="shape-rendering:geometricPrecision; text-rendering:geometricPrecision; image-rendering:optimizeQuality; fill-rule:evenodd; clip-rule:evenodd"
viewBox="0 0 2080.37 2294.75"
 xmlns:xlink="http://www.w3.org/1999/xlink"
 xmlns:xodm="http://www.corel.com/coreldraw/odm/2003">
 <defs>
  <style type="text/css">
   <![CDATA[
    .fil1 {fill:#FEFEFE}
    .fil2 {fill:#F397BF}
    .fil3 {fill:#C8518A}
    .fil0 {fill:#3E4095}
   ]]>
  </style>
 </defs>
 <g id="Camada_x0020_1">
  <metadata id="CorelCorpID_0Corel-Layer"/>
  <path class="fil0" d="M655.22 86.27l0 0c29.73,0 54.01,24.3 54.01,54.01l0 1956.11 360.88 0c54.57,0 99.18,44.61 99.18,99.18l0 0.02c0,54.55 -44.61,99.16 -99.18,99.16l-829.76 0c-54.55,0 -99.18,-44.61 -99.18,-99.16l0 -0.02c0,-54.57 44.63,-99.18 99.18,-99.18l360.86 0 0 -1956.11c0,-29.71 24.31,-54.01 54.01,-54.01zm473.77 129.15c149.38,0 291.37,23.93 419.74,66.95l0 4.24 1.14 -1.8 0 274.92c36.4,2.92 73.35,4.44 110.76,4.44 149.36,0 291.36,-23.93 419.74,-66.95l0 979.45c-128.39,43.02 -270.38,66.97 -419.74,66.97 -149.4,0 -291.37,-23.95 -419.74,-66.97l0 -277.3c-36.75,-2.99 -74.1,-4.52 -111.9,-4.52 -149.4,0 -291.37,23.95 -419.74,66.97l0 -979.45c128.37,-43.02 270.34,-66.95 419.74,-66.95z"/>
  <g id="_1904535014848">
   <rect class="fil1" x="460.05" y="-0.01" width="108.02" height="2091.58" rx="54.02" ry="118.85"/>
   <rect class="fil1" transform="matrix(7.05453E-15 0.726407 -0.427797 3.08983E-14 1028.13 2010.11)" width="273.1" height="2403.29" rx="136.56" ry="136.56"/>
   <path class="fil2" d="M1519.44 1457.36c149.4,0 291.39,-23.95 419.76,-66.97l0 -979.45c-128.37,43.02 -270.36,66.97 -419.76,66.97 -149.38,0 -291.36,-23.95 -419.74,-66.97l0 979.45c128.39,43.02 270.36,66.97 419.74,66.97z"/>
   <path class="fil3" d="M1254.2 1351.18c54.99,-37.78 107.25,-97.64 154.5,-173.15l0 -979.43c-47.25,75.49 -99.51,135.36 -154.5,173.14 -54.99,37.8 -107.25,49.76 -154.5,39.21l0 979.45c47.25,10.55 99.51,-1.41 154.5,-39.21z"/>
   <path class="fil2" d="M987.82 129.15c149.38,0 291.37,23.93 419.74,66.95l0 979.45c-128.37,-43.02 -270.36,-66.97 -419.74,-66.97 -149.4,0 -291.37,23.95 -419.74,66.97l0 -979.45c128.37,-43.02 270.34,-66.95 419.74,-66.95z"/>
  </g>
 </g>
</svg>
