<?xml version="1.0" encoding="UTF-8"?>
<!DOCTYPE svg PUBLIC "-//W3C//DTD SVG 1.1//EN" "http://www.w3.org/Graphics/SVG/1.1/DTD/svg11.dtd">
<!-- Creator: CorelDRAW 2020 (64 Bit) -->
<svg xmlns="http://www.w3.org/2000/svg" xml:space="preserve" width="85.0239mm" height="15.9576mm" version="1.1" style="shape-rendering:geometricPrecision; text-rendering:geometricPrecision; image-rendering:optimizeQuality; fill-rule:evenodd; clip-rule:evenodd"
viewBox="0 0 6748.31 1266.55"
 xmlns:xlink="http://www.w3.org/1999/xlink"
 xmlns:xodm="http://www.corel.com/coreldraw/odm/2003">
 <defs>
  <style type="text/css">
   <![CDATA[
    .fil0 {fill:#FEFEFE;fill-rule:nonzero}
    .fil2 {fill:#5D9AD2;fill-rule:nonzero}
    .fil1 {fill:#32366D;fill-rule:nonzero}
   ]]>
  </style>
 </defs>
 <g id="Camada_x0020_1">
  <metadata id="CorelCorpID_0Corel-Layer"/>
  <path class="fil0" d="M-0 1260.54l0 -467.47 213.7 0c42.74,0 79.58,6.9 110.52,20.7 30.94,13.8 54.87,33.72 71.79,59.77 16.91,26.04 25.37,56.88 25.37,92.49 0,35.18 -8.46,65.67 -25.37,91.49 -16.92,25.83 -40.85,45.75 -71.79,59.77 -30.95,14.02 -67.78,21.03 -110.52,21.03l-140.25 0 58.77 -57.43 0 179.65 -132.23 0zm132.23 -165.62l-58.77 -60.77 132.23 0c27.6,0 48.19,-6.02 61.77,-18.03 13.58,-12.02 20.37,-28.72 20.37,-50.09 0,-21.81 -6.79,-38.73 -20.37,-50.75 -13.58,-12.02 -34.17,-18.03 -61.77,-18.03l-132.23 0 58.77 -60.77 0 258.44z"/>
  <path id="1" class="fil0" d="M616.67 1266.55c-29.38,0 -55.76,-5.79 -79.13,-17.36 -23.37,-11.58 -41.63,-29.72 -54.77,-54.43 -13.13,-24.71 -19.7,-55.99 -19.7,-93.82l0 -202.35 126.89 0 0 181.65c0,28.05 5.23,48.08 15.69,60.11 10.46,12.02 25.26,18.03 44.41,18.03 12.47,0 23.82,-2.9 34.07,-8.68 10.24,-5.79 18.47,-15.02 24.71,-27.72 6.23,-12.69 9.35,-29.05 9.35,-49.08l0 -174.3 126.88 0 0 361.96 -120.87 0 0 -102.17 23.37 28.72c-12.47,26.71 -30.49,46.63 -54.09,59.77 -23.6,13.14 -49.2,19.7 -76.81,19.7zm-28.04 -411.37l89.48 -101.51 126.89 0 -125.55 101.51 -90.82 0z"/>
  <path id="2" class="fil0" d="M1132.51 1266.55c-32.5,0 -59.54,-6.67 -81.14,-20.03 -21.59,-13.36 -37.73,-33.84 -48.42,-61.44 -10.68,-27.6 -16.02,-63 -16.02,-106.18 0,-42.3 5.67,-77.24 17.02,-104.85 11.36,-27.6 27.94,-48.08 49.76,-61.44 21.81,-13.36 48.08,-20.03 78.8,-20.03 32.95,0 62.88,7.56 89.82,22.71 26.94,15.14 48.3,36.61 64.11,64.44 15.8,27.83 23.71,60.88 23.71,99.17 0,38.73 -7.91,72.01 -23.71,99.84 -15.81,27.83 -37.18,49.42 -64.11,64.77 -26.94,15.37 -56.88,23.04 -89.82,23.04zm-227.72 -6.01l0 -495.52 126.88 0 0 194.34 -6.67 119.54 0.67 119.54 0 62.11 -120.87 0zm201.01 -94.83c14.25,0 27.04,-3.34 38.4,-10.02 11.35,-6.67 20.48,-16.58 27.37,-29.72 6.91,-13.14 10.36,-28.83 10.36,-47.08 0,-18.26 -3.45,-33.72 -10.36,-46.42 -6.9,-12.68 -16.02,-22.37 -27.37,-29.05 -11.36,-6.67 -24.15,-10.02 -38.4,-10.02 -14.25,0 -27.05,3.34 -38.4,10.02 -11.36,6.68 -20.49,16.37 -27.38,29.05 -6.91,12.69 -10.35,28.16 -10.35,46.42 0,18.26 3.44,33.95 10.35,47.08 6.9,13.14 16.02,23.04 27.38,29.72 11.35,6.67 24.15,10.02 38.4,10.02z"/>
  <polygon id="3" class="fil0" points="1347.16,1260.54 1347.16,765.02 1474.04,765.02 1474.04,1260.54 "/>
  <path id="4" class="fil0" d="M1534.44 1260.54l0 -361.96 126.88 0 0 361.96 -126.88 0zm63.44 -402.02c-23.15,0 -41.85,-6.46 -56.1,-19.37 -14.25,-12.91 -21.37,-28.94 -21.37,-48.08 0,-19.14 7.12,-35.18 21.37,-48.08 14.25,-12.91 32.95,-19.37 56.1,-19.37 23.15,0 41.85,6.13 56.1,18.37 14.25,12.25 21.37,27.94 21.37,47.08 0,20.03 -7.01,36.62 -21.03,49.76 -14.02,13.13 -32.84,19.7 -56.43,19.7z"/>
  <path id="5" class="fil0" d="M1906.69 1266.55c-40.07,0 -75.8,-8.01 -107.18,-24.04 -31.39,-16.02 -55.99,-38.18 -73.8,-66.45 -17.8,-28.27 -26.71,-60.65 -26.71,-97.16 0,-36.51 8.91,-68.78 26.71,-96.83 17.81,-28.05 42.41,-49.98 73.8,-65.78 31.38,-15.8 67.11,-23.71 107.18,-23.71 40.96,0 76.35,8.68 106.19,26.04 29.83,17.37 50.97,41.85 63.44,73.46l-98.17 50.08c-8.45,-16.91 -18.92,-29.27 -31.38,-37.07 -12.47,-7.79 -26.05,-11.68 -40.74,-11.68 -14.69,0 -28.05,3.34 -40.07,10.02 -12.02,6.68 -21.49,16.37 -28.38,29.05 -6.91,12.69 -10.35,28.16 -10.35,46.42 0,18.7 3.44,34.5 10.35,47.42 6.9,12.91 16.36,22.71 28.38,29.38 12.02,6.67 25.37,10.02 40.07,10.02 14.69,0 28.27,-3.9 40.74,-11.68 12.46,-7.79 22.93,-20.15 31.38,-37.07l98.17 50.08c-12.47,31.61 -33.61,56.1 -63.44,73.46 -29.84,17.36 -65.23,26.04 -106.19,26.04z"/>
  <path id="6" class="fil0" d="M2280.29 1266.55c-39.63,0 -74.8,-8.01 -105.52,-24.04 -30.72,-16.02 -54.87,-38.18 -72.46,-66.45 -17.58,-28.27 -26.37,-60.65 -26.37,-97.16 0,-36.51 8.79,-68.78 26.37,-96.83 17.59,-28.05 41.74,-49.98 72.46,-65.78 30.72,-15.8 65.89,-23.71 105.52,-23.71 39.62,0 74.9,7.91 105.85,23.71 30.94,15.8 55.09,37.73 72.46,65.78 17.37,28.05 26.04,60.32 26.04,96.83 0,36.51 -8.68,68.89 -26.04,97.16 -17.37,28.27 -41.52,50.42 -72.46,66.45 -30.95,16.03 -66.23,24.04 -105.85,24.04zm0 -100.84c14.69,0 27.71,-3.34 39.07,-10.02 11.35,-6.67 20.37,-16.58 27.04,-29.72 6.68,-13.14 10.02,-28.83 10.02,-47.08 0,-18.26 -3.34,-33.72 -10.02,-46.42 -6.67,-12.68 -15.69,-22.37 -27.04,-29.05 -11.36,-6.67 -24.37,-10.02 -39.07,-10.02 -14.25,0 -27.05,3.34 -38.4,10.02 -11.36,6.68 -20.49,16.37 -27.38,29.05 -6.91,12.69 -10.35,28.16 -10.35,46.42 0,18.26 3.44,33.95 10.35,47.08 6.9,13.14 16.02,23.04 27.38,29.72 11.35,6.67 24.15,10.02 38.4,10.02z"/>
  <path class="fil0" d="M2665.9 1260.54l206.35 -467.47 130.23 0 207.02 467.47 -137.57 0 -161.61 -402.69 52.09 0 -161.61 402.69 -134.9 0zm112.86 -90.82l34.06 -97.5 228.39 0 34.06 97.5 -296.51 0z"/>
  <polygon id="1" class="fil0" points="3219.14,1260.54 3219.14,765.02 3346.02,765.02 3346.02,1260.54 "/>
  <polygon id="2" class="fil0" points="3507.25,1260.54 3358.32,898.58 3488.55,898.58 3607.42,1201.11 3541.97,1201.11 3666.85,898.58 3787.72,898.58 3638.14,1260.54 "/>
  <path id="3" class="fil0" d="M3970.33 1266.55c-39.63,0 -74.8,-8.01 -105.52,-24.04 -30.72,-16.02 -54.87,-38.18 -72.46,-66.45 -17.58,-28.27 -26.37,-60.65 -26.37,-97.16 0,-36.51 8.79,-68.78 26.37,-96.83 17.59,-28.05 41.74,-49.98 72.46,-65.78 30.72,-15.8 65.89,-23.71 105.52,-23.71 39.62,0 74.9,7.91 105.85,23.71 30.94,15.8 55.09,37.73 72.46,65.78 17.37,28.05 26.04,60.32 26.04,96.83 0,36.51 -8.68,68.89 -26.04,97.16 -17.37,28.27 -41.52,50.42 -72.46,66.45 -30.95,16.03 -66.23,24.04 -105.85,24.04zm0 -100.84c14.69,0 27.71,-3.34 39.07,-10.02 11.35,-6.67 20.37,-16.58 27.04,-29.72 6.68,-13.14 10.02,-28.83 10.02,-47.08 0,-18.26 -3.34,-33.72 -10.02,-46.42 -6.67,-12.68 -15.69,-22.37 -27.04,-29.05 -11.36,-6.67 -24.37,-10.02 -39.07,-10.02 -14.25,0 -27.05,3.34 -38.4,10.02 -11.36,6.68 -20.49,16.37 -27.38,29.05 -6.91,12.69 -10.35,28.16 -10.35,46.42 0,18.26 3.44,33.95 10.35,47.08 6.9,13.14 16.02,23.04 27.38,29.72 11.35,6.67 24.15,10.02 38.4,10.02z"/>
  <polygon class="fil0" points="4412.04,1076.23 4412.04,1006.77 4745.95,1006.77 4745.95,1076.23 "/>
  <path class="fil1" d="M2200.14 464.83c-27.53,0 -52.84,-5.14 -75.92,-15.42 -23.08,-10.28 -41.99,-24.91 -56.73,-43.92l52.36 -62.83c11.25,14.74 23.07,25.89 35.49,33.45 12.41,7.56 25.8,11.34 40.15,11.34 38.39,0 57.59,-22.49 57.59,-67.48l0 -193.73 -143.11 0 0 -75.63 236.78 0 0 264.12c0,50.42 -12.41,88.04 -37.23,112.86 -24.83,24.82 -61.28,37.23 -109.37,37.23z"/>
  <path id="1" class="fil1" d="M2582.35 462.49c-33.35,0 -62.92,-6.98 -88.71,-20.94 -25.8,-13.96 -46.15,-33.07 -61.09,-57.3 -14.93,-24.24 -22.39,-51.88 -22.39,-82.9 0,-31.41 7.46,-59.24 22.39,-83.48 14.94,-24.24 35.3,-43.24 61.09,-57.01 25.79,-13.77 55.36,-20.65 88.71,-20.65 32.97,0 62.45,6.88 88.43,20.65 25.98,13.77 46.34,32.68 61.08,56.72 14.74,24.05 22.1,51.97 22.1,83.77 0,31.03 -7.37,58.66 -22.1,82.9 -14.74,24.24 -35.11,43.34 -61.08,57.3 -25.99,13.96 -55.46,20.94 -88.43,20.94zm0 -74.46c15.13,0 28.7,-3.48 40.72,-10.47 12.02,-6.98 21.53,-16.97 28.51,-29.96 6.98,-12.99 10.47,-28.41 10.47,-46.25 0,-18.23 -3.49,-33.74 -10.47,-46.54 -6.98,-12.79 -16.49,-22.68 -28.51,-29.67 -12.02,-6.98 -25.6,-10.47 -40.72,-10.47 -15.12,0 -28.7,3.49 -40.72,10.47 -12.02,6.98 -21.63,16.87 -28.8,29.67 -7.18,12.8 -10.76,28.31 -10.76,46.54 0,17.84 3.59,33.26 10.76,46.25 7.18,12.99 16.78,22.98 28.8,29.96 12.02,6.98 25.6,10.47 40.72,10.47z"/>
  <path id="2" class="fil1" d="M2961.67 575.36c-29.48,0 -57.89,-3.59 -85.23,-10.76 -27.34,-7.18 -50.13,-17.94 -68.36,-32.29l36.07 -65.15c13.18,10.86 29.95,19.49 50.32,25.88 20.36,6.41 40.43,9.6 60.21,9.6 32.19,0 55.56,-7.18 70.1,-21.53 14.55,-14.35 21.82,-35.68 21.82,-64l0 -47.12 5.82 -78.54 -1.17 -79.12 0 -67.49 86.1 0 0 260.63c0,58.18 -15.13,101.04 -45.38,128.57 -30.25,27.53 -73.69,41.3 -130.31,41.3zm-13.97 -132.64c-29.08,0 -55.36,-6.3 -78.82,-18.91 -23.47,-12.6 -42.28,-30.25 -56.43,-52.94 -14.16,-22.68 -21.23,-49.15 -21.23,-79.41 0,-30.64 7.07,-57.3 21.23,-79.99 14.15,-22.69 32.96,-40.24 56.43,-52.65 23.46,-12.41 49.74,-18.61 78.82,-18.61 26.37,0 49.65,5.33 69.81,16 20.17,10.66 35.88,27.14 47.12,49.45 11.25,22.29 16.87,50.9 16.87,85.81 0,34.52 -5.63,62.92 -16.87,85.23 -11.25,22.3 -26.95,38.88 -47.12,49.74 -20.17,10.86 -43.44,16.29 -69.81,16.29zm18.04 -74.46c15.9,0 30.06,-3.2 42.46,-9.6 12.41,-6.4 22.11,-15.42 29.09,-27.05 6.98,-11.64 10.47,-25.02 10.47,-40.15 0,-15.52 -3.48,-28.99 -10.47,-40.43 -6.98,-11.45 -16.68,-20.36 -29.09,-26.76 -12.41,-6.4 -26.57,-9.6 -42.46,-9.6 -15.91,0 -30.06,3.2 -42.47,9.6 -12.41,6.41 -22.21,15.32 -29.38,26.76 -7.18,11.44 -10.76,24.91 -10.76,40.43 0,15.13 3.59,28.51 10.76,40.15 7.18,11.63 16.97,20.65 29.38,27.05 12.41,6.4 26.57,9.6 42.47,9.6z"/>
  <path id="3" class="fil1" d="M3370.64 462.49c-33.35,0 -62.92,-6.98 -88.71,-20.94 -25.8,-13.96 -46.15,-33.07 -61.09,-57.3 -14.93,-24.24 -22.39,-51.88 -22.39,-82.9 0,-31.41 7.46,-59.24 22.39,-83.48 14.94,-24.24 35.3,-43.24 61.09,-57.01 25.79,-13.77 55.36,-20.65 88.71,-20.65 32.97,0 62.45,6.88 88.43,20.65 25.98,13.77 46.34,32.68 61.08,56.72 14.74,24.05 22.1,51.97 22.1,83.77 0,31.03 -7.37,58.66 -22.1,82.9 -14.74,24.24 -35.11,43.34 -61.08,57.3 -25.99,13.96 -55.46,20.94 -88.43,20.94zm0 -74.46c15.13,0 28.7,-3.48 40.72,-10.47 12.02,-6.98 21.53,-16.97 28.51,-29.96 6.98,-12.99 10.47,-28.41 10.47,-46.25 0,-18.23 -3.49,-33.74 -10.47,-46.54 -6.98,-12.79 -16.49,-22.68 -28.51,-29.67 -12.02,-6.98 -25.6,-10.47 -40.72,-10.47 -15.12,0 -28.7,3.49 -40.72,10.47 -12.02,6.98 -21.63,16.87 -28.8,29.67 -7.18,12.8 -10.76,28.31 -10.76,46.54 0,17.84 3.59,33.26 10.76,46.25 7.18,12.99 16.78,22.98 28.8,29.96 12.02,6.98 25.6,10.47 40.72,10.47z"/>
  <path id="4" class="fil1" d="M3860.48 214.67l196.05 0 0 73.3 -196.05 0 0 -73.3zm6.98 167.54l221.66 0 0 75.63 -315.31 0 0 -407.23 307.75 0 0 75.63 -214.09 0 0 255.97z"/>
  <path id="5" class="fil1" d="M4289.82 462.49c-29.48,0 -56.04,-6.69 -79.7,-20.06 -23.65,-13.38 -42.37,-32.1 -56.14,-56.15 -13.77,-24.04 -20.65,-52.35 -20.65,-84.93 0,-32.96 6.88,-61.47 20.65,-85.52 13.77,-24.04 32.49,-42.66 56.14,-55.84 23.66,-13.18 50.23,-19.78 79.7,-19.78 26.37,0 49.45,5.82 69.23,17.45 19.78,11.64 35.11,29.28 45.96,52.94 10.86,23.66 16.29,53.91 16.29,90.75 0,36.45 -5.24,66.61 -15.71,90.47 -10.47,23.85 -25.5,41.6 -45.08,53.23 -19.59,11.64 -43.15,17.45 -70.69,17.45zm15.71 -74.46c14.74,0 28.12,-3.48 40.15,-10.47 12.02,-6.98 21.62,-16.97 28.8,-29.96 7.18,-12.99 10.76,-28.41 10.76,-46.25 0,-18.23 -3.59,-33.74 -10.76,-46.54 -7.18,-12.79 -16.78,-22.68 -28.8,-29.67 -12.02,-6.98 -25.41,-10.47 -40.15,-10.47 -15.13,0 -28.7,3.49 -40.72,10.47 -12.02,6.98 -21.62,16.87 -28.8,29.67 -7.18,12.8 -10.76,28.31 -10.76,46.54 0,17.84 3.59,33.26 10.76,46.25 7.18,12.99 16.77,22.98 28.8,29.96 12.02,6.98 25.6,10.47 40.72,10.47zm82.03 69.81l0 -64 1.75 -93.08 -5.82 -92.5 0 -182.09 90.75 0 0 431.66 -86.68 0z"/>
  <path id="6" class="fil1" d="M4690.07 462.49c-25.99,0 -49.16,-5.04 -69.52,-15.12 -20.37,-10.09 -36.17,-25.5 -47.42,-46.25 -11.25,-20.76 -16.87,-47.22 -16.87,-79.41l0 -176.86 90.76 0 0 163.48c0,25.99 5.52,45.08 16.58,57.3 11.05,12.22 26.66,18.33 46.83,18.33 13.96,0 26.37,-3 37.23,-9.02 10.86,-6.01 19.39,-15.32 25.6,-27.92 6.21,-12.6 9.31,-28.41 9.31,-47.42l0 -154.75 90.75 0 0 312.99 -86.1 0 0 -86.1 15.71 25.02c-10.47,21.72 -25.88,38.11 -46.25,49.15 -20.36,11.06 -42.57,16.58 -66.61,16.58z"/>
  <path id="7" class="fil1" d="M5108.93 462.49c-33.75,0 -63.81,-6.88 -90.17,-20.65 -26.37,-13.76 -47.03,-32.87 -61.96,-57.3 -14.93,-24.44 -22.39,-52.17 -22.39,-83.2 0,-31.41 7.46,-59.24 22.39,-83.48 14.94,-24.24 35.59,-43.24 61.96,-57.01 26.37,-13.77 56.42,-20.65 90.17,-20.65 32.96,0 61.66,6.88 86.1,20.65 24.43,13.77 42.46,33.45 54.1,59.05l-70.39 37.81c-8.14,-14.74 -18.33,-25.6 -30.54,-32.58 -12.21,-6.98 -25.5,-10.47 -39.85,-10.47 -15.51,0 -29.47,3.49 -41.88,10.47 -12.41,6.98 -22.21,16.87 -29.38,29.67 -7.18,12.8 -10.76,28.31 -10.76,46.54 0,18.23 3.59,33.74 10.76,46.54 7.18,12.79 16.97,22.68 29.38,29.67 12.41,6.98 26.37,10.47 41.88,10.47 14.35,0 27.64,-3.39 39.85,-10.18 12.21,-6.79 22.4,-17.75 30.54,-32.87l70.39 38.4c-11.64,25.21 -29.67,44.7 -54.1,58.46 -24.44,13.77 -53.14,20.65 -86.1,20.65z"/>
  <path id="8" class="fil1" d="M5493.47 457.84l0 -61.08 -5.82 -13.38 0 -109.37c0,-19.39 -5.91,-34.52 -17.74,-45.38 -11.83,-10.86 -29.96,-16.29 -54.39,-16.29 -16.68,0 -33.07,2.62 -49.16,7.85 -16.1,5.24 -29.76,12.32 -41.01,21.24l-32.58 -63.42c17.06,-12.02 37.62,-21.33 61.66,-27.92 24.05,-6.6 48.48,-9.89 73.31,-9.89 47.7,0 84.74,11.25 111.12,33.74 26.37,22.49 39.56,57.59 39.56,105.3l0 178.6 -84.94 0zm-95.4 4.65c-24.44,0 -45.38,-4.17 -62.83,-12.51 -17.45,-8.33 -30.84,-19.68 -40.15,-34.03 -9.31,-14.35 -13.96,-30.45 -13.96,-48.29 0,-18.62 4.56,-34.91 13.67,-48.87 9.12,-13.96 23.56,-24.92 43.34,-32.87 19.78,-7.95 45.57,-11.93 77.38,-11.93l83.19 0 0 52.94 -73.3 0c-21.33,0 -35.98,3.49 -43.92,10.48 -7.95,6.98 -11.93,15.71 -11.93,26.18 0,11.64 4.56,20.84 13.68,27.63 9.11,6.79 21.62,10.18 37.52,10.18 15.13,0 28.7,-3.59 40.72,-10.76 12.02,-7.18 20.75,-17.74 26.18,-31.7l13.97 41.88c-6.6,20.17 -18.62,35.49 -36.07,45.96 -17.45,10.48 -39.95,15.71 -67.48,15.71z"/>
  <path id="9" class="fil1" d="M5788.43 462.49c-36.84,0 -65.54,-9.41 -86.1,-28.22 -20.56,-18.8 -30.84,-46.83 -30.84,-84.06l0 -274.59 90.75 0 0 273.42c0,13.19 3.49,23.37 10.48,30.55 6.98,7.18 16.48,10.76 28.5,10.76 14.35,0 26.57,-3.88 36.65,-11.64l24.43 63.99c-9.3,6.6 -20.45,11.54 -33.45,14.83 -12.99,3.3 -26.47,4.94 -40.43,4.94zm-165.22 -240.85l0 -69.81 217 0 0 69.81 -217 0z"/>
  <path id="10" class="fil1" d="M5913.5 457.84l0 -312.99 90.76 0 0 312.99 -90.76 0zm45.38 -356.62c-16.68,0 -30.26,-4.85 -40.72,-14.54 -10.48,-9.7 -15.71,-21.72 -15.71,-36.07 0,-14.35 5.23,-26.37 15.71,-36.07 10.47,-9.7 24.04,-14.55 40.72,-14.55 16.68,0 30.25,4.56 40.72,13.68 10.48,9.11 15.71,20.84 15.71,35.19 0,15.13 -5.14,27.64 -15.41,37.53 -10.28,9.89 -23.95,14.83 -41.01,14.83z"/>
  <polygon id="11" class="fil1" points="6173.54,457.84 6042.07,144.86 6135.72,144.86 6245.09,414.21 6198.56,414.21 6312,144.86 6399.26,144.86 6267.21,457.84 "/>
  <path id="12" class="fil1" d="M6576.69 462.49c-33.35,0 -62.92,-6.98 -88.71,-20.94 -25.8,-13.96 -46.15,-33.07 -61.09,-57.3 -14.93,-24.24 -22.39,-51.88 -22.39,-82.9 0,-31.41 7.46,-59.24 22.39,-83.48 14.94,-24.24 35.3,-43.24 61.09,-57.01 25.79,-13.77 55.36,-20.65 88.71,-20.65 32.97,0 62.45,6.88 88.43,20.65 25.98,13.77 46.34,32.68 61.08,56.72 14.74,24.05 22.1,51.97 22.1,83.77 0,31.03 -7.37,58.66 -22.1,82.9 -14.74,24.24 -35.11,43.34 -61.08,57.3 -25.99,13.96 -55.46,20.94 -88.43,20.94zm0 -74.46c15.13,0 28.7,-3.48 40.72,-10.47 12.02,-6.98 21.53,-16.97 28.51,-29.96 6.98,-12.99 10.47,-28.41 10.47,-46.25 0,-18.23 -3.49,-33.74 -10.47,-46.54 -6.98,-12.79 -16.49,-22.68 -28.51,-29.67 -12.02,-6.98 -25.6,-10.47 -40.72,-10.47 -15.12,0 -28.7,3.49 -40.72,10.47 -12.02,6.98 -21.63,16.87 -28.8,29.67 -7.18,12.8 -10.76,28.31 -10.76,46.54 0,17.84 3.59,33.26 10.76,46.25 7.18,12.99 16.78,22.98 28.8,29.96 12.02,6.98 25.6,10.47 40.72,10.47z"/>
  <path class="fil2" d="M5140.46 1262.74c-32.06,0 -64.33,-4.01 -96.83,-12.02 -32.5,-8.01 -60.55,-19.37 -84.15,-34.06l47.42 -99.51c19.14,12.47 39.95,22.04 62.44,28.72 22.49,6.68 44.86,10.02 67.11,10.02 22.26,0 40.3,-4.34 54.1,-13.02 13.79,-8.68 20.7,-20.82 20.7,-36.4 0,-9.35 -2.67,-17.7 -8.02,-25.04 -5.34,-7.35 -14.47,-12.91 -27.38,-16.7 -12.91,-3.78 -31.38,-5.67 -55.42,-5.67l-126.89 0 23.37 -273.13 297.85 0 0 102.17 -251.1 0 67.45 -58.1 -15.36 184.32 -67.45 -58.1 103.51 0c46.3,0 83.48,6.56 111.53,19.7 28.05,13.14 48.53,30.72 61.44,52.76 12.91,22.04 19.37,46.86 19.37,74.46 0,27.6 -7.24,53.53 -21.71,77.8 -14.47,24.26 -36.61,43.96 -66.45,59.1 -29.83,15.14 -68.34,22.71 -115.53,22.71z"/>
  <path id="1" class="fil2" d="M5738.02 1253.39l0 -67.45 -8.68 -16.7 0 -124.21c0,-20.03 -6.12,-35.5 -18.37,-46.41 -12.24,-10.91 -31.72,-16.37 -58.43,-16.37 -17.37,0 -34.95,2.79 -52.76,8.35 -17.81,5.56 -32.95,13.25 -45.42,23.04l-42.74 -86.15c20.49,-13.36 45.08,-23.71 73.8,-31.06 28.72,-7.34 57.32,-11.02 85.81,-11.02 58.77,0 104.29,13.47 136.57,40.4 32.27,26.94 48.42,69.12 48.42,126.55l0 201.01 -118.21 0zm-106.86 6.01c-28.94,0 -53.42,-4.9 -73.46,-14.69 -20.03,-9.79 -35.28,-23.15 -45.75,-40.07 -10.46,-16.92 -15.69,-35.84 -15.69,-56.77 0,-22.26 5.67,-41.52 17.03,-57.77 11.35,-16.25 28.83,-28.72 52.42,-37.4 23.6,-8.68 54.09,-13.02 91.49,-13.02l85.48 0 0 66.11 -68.11 0c-20.49,0 -34.84,3.34 -43.07,10.02 -8.24,6.68 -12.36,15.58 -12.36,26.72 0,11.13 4.23,20.03 12.69,26.71 8.45,6.68 20.03,10.02 34.72,10.02 13.8,0 26.37,-3.44 37.73,-10.35 11.35,-6.9 19.7,-17.47 25.04,-31.72l17.37 46.74c-6.68,24.94 -19.7,43.75 -39.07,56.43 -19.37,12.69 -44.86,19.03 -76.47,19.03z"/>
  <path id="2" class="fil2" d="M6150.34 885.42c28.05,0 53.42,5.67 76.13,17.02 22.71,11.36 40.62,28.83 53.76,52.42 13.14,23.6 19.7,54.1 19.7,91.5l0 207.02 -126.88 0 0 -186.32c0,-25.82 -5.23,-44.63 -15.7,-56.43 -10.46,-11.79 -25.04,-17.7 -43.74,-17.7 -13.36,0 -25.6,3.01 -36.72,9.02 -11.14,6.02 -19.82,15.25 -26.05,27.72 -6.23,12.47 -9.35,28.72 -9.35,48.75l0 174.97 -126.88 0 0 -361.96 120.87 0 0 102.85 -23.37 -30.06c13.8,-26.26 32.72,-45.96 56.77,-59.1 24.04,-13.14 51.2,-19.7 81.47,-19.7z"/>
  <path id="3" class="fil2" d="M6543.97 1259.4c-39.63,0 -74.8,-8.01 -105.52,-24.04 -30.72,-16.02 -54.87,-38.18 -72.46,-66.45 -17.58,-28.27 -26.37,-60.65 -26.37,-97.16 0,-36.51 8.79,-68.78 26.37,-96.83 17.59,-28.05 41.74,-49.98 72.46,-65.78 30.72,-15.8 65.89,-23.71 105.52,-23.71 39.62,0 74.9,7.91 105.85,23.71 30.94,15.8 55.09,37.73 72.46,65.78 17.37,28.05 26.04,60.32 26.04,96.83 0,36.51 -8.68,68.89 -26.04,97.16 -17.37,28.27 -41.52,50.42 -72.46,66.45 -30.95,16.03 -66.23,24.04 -105.85,24.04zm0 -100.84c14.69,0 27.71,-3.34 39.07,-10.02 11.35,-6.67 20.37,-16.58 27.04,-29.72 6.68,-13.14 10.02,-28.83 10.02,-47.08 0,-18.26 -3.34,-33.72 -10.02,-46.42 -6.67,-12.68 -15.69,-22.37 -27.04,-29.05 -11.36,-6.67 -24.37,-10.02 -39.07,-10.02 -14.25,0 -27.05,3.34 -38.4,10.02 -11.36,6.68 -20.49,16.37 -27.38,29.05 -6.91,12.69 -10.35,28.16 -10.35,46.42 0,18.26 3.44,33.95 10.35,47.08 6.9,13.14 16.02,23.04 27.38,29.72 11.35,6.67 24.15,10.02 38.4,10.02z"/>
  <path id="4" class="fil2" d="M5419.05 935.85c-12.74,0 -24.03,-3.04 -33.86,-9.13 -9.83,-6.08 -17.58,-14.86 -23.24,-26.32 -5.66,-11.46 -8.49,-25.4 -8.49,-41.81 0,-16.41 2.83,-30.35 8.49,-41.81 5.66,-11.47 13.41,-20.24 23.24,-26.33 9.83,-6.08 21.12,-9.13 33.86,-9.13 12.6,0 23.81,3.05 33.64,9.13 9.83,6.09 17.58,14.86 23.24,26.33 5.66,11.46 8.49,25.4 8.49,41.81 0,16.41 -2.83,30.35 -8.49,41.81 -5.66,11.46 -13.41,20.24 -23.24,26.32 -9.83,6.09 -21.05,9.13 -33.64,9.13zm0 -34.38c4.52,0 8.52,-1.41 11.99,-4.25 3.47,-2.83 6.19,-7.39 8.17,-13.69 1.98,-6.29 2.98,-14.61 2.98,-24.94 0,-10.47 -0.99,-18.82 -2.98,-25.05 -1.98,-6.22 -4.7,-10.75 -8.17,-13.58 -3.47,-2.83 -7.47,-4.25 -11.99,-4.25 -4.53,0 -8.52,1.41 -11.99,4.25 -3.47,2.83 -6.23,7.36 -8.28,13.58 -2.06,6.23 -3.08,14.58 -3.08,25.05 0,10.33 1.02,18.64 3.08,24.94 2.05,6.3 4.81,10.87 8.28,13.69 3.47,2.83 7.46,4.25 11.99,4.25z"/>
 </g>
</svg>
