<?xml version="1.0" encoding="UTF-8"?>
<!DOCTYPE svg PUBLIC "-//W3C//DTD SVG 1.1//EN" "http://www.w3.org/Graphics/SVG/1.1/DTD/svg11.dtd">
<!-- Creator: CorelDRAW 2020 (64 Bit) -->
<svg xmlns="http://www.w3.org/2000/svg" xml:space="preserve" width="11.3598mm" height="11.3598mm" version="1.1" style="shape-rendering:geometricPrecision; text-rendering:geometricPrecision; image-rendering:optimizeQuality; fill-rule:evenodd; clip-rule:evenodd"
viewBox="0 0 62.67 62.67"
 xmlns:xlink="http://www.w3.org/1999/xlink"
 xmlns:xodm="http://www.corel.com/coreldraw/odm/2003">
 <defs>
  <style type="text/css">
   <![CDATA[
    .fil0 {fill:none}
    .fil5 {fill:#FEFEFE}
    .fil2 {fill:#FFFBD8}
    .fil10 {fill:#EAEAE9}
    .fil19 {fill:#C9C8DB}
    .fil6 {fill:#282828}
    .fil9 {fill:#404040}
    .fil13 {fill:#5179A3}
    .fil14 {fill:#737373}
    .fil12 {fill:#8DA0C4}
    .fil11 {fill:#A6B4D3}
    .fil20 {fill:#C60A54}
    .fil7 {fill:#D8491A}
    .fil17 {fill:#F20255}
    .fil4 {fill:#F2A64E}
    .fil15 {fill:#F3004C}
    .fil8 {fill:#F68B20}
    .fil3 {fill:#F7561F}
    .fil16 {fill:#FF0B57}
    .fil18 {fill:#FF246F}
    .fil1 {fill:#373435;fill-opacity:0.301961}
   ]]>
  </style>
 </defs>
 <g id="Camada_x0020_1">
  <metadata id="CorelCorpID_0Corel-Layer"/>
  <rect class="fil0" x="0" y="0" width="62.67" height="62.67"/>
  <g id="_2717961069120">
   <path class="fil1" d="M42.21 41.89l0 0 0 0 0 0 0 0.01 0 0 0 0.01 0 0.01 0 0.01 0.01 0.01 0.01 0.01 0.01 0.01 0.01 0.01 0.01 0.01 0.01 0.01 0.01 0.01 0.01 0.01 0 0 0.01 0.01 0.01 0.01 0 0 0.01 0.01 0.01 0.01 0 0 0.01 0.01 0 0 0.01 0.01 0 0 0.01 0.01 0.01 0.01 0.01 0.01 0.01 0.01 0.01 0.01 0.01 0.01 0.01 0.01 0.01 0.01 0 0 0.01 0.01 0 0 0.01 0.01 0 0 0.01 0.01 0.01 0.01 0 0 0.01 0.01 0.01 0.01 0 0 0.01 0.01 0.01 0.01 0.01 0.01 0.01 0.01 0 0 0.01 0.01 0.01 0.01 0.01 0.01 0 0 0.01 0.01 0.01 0.01 0 0 0.01 0.01 0.01 0.01 0.01 0.01 0.01 0.01 0.01 0.01 0.01 0.01 0.01 0.01 0.01 0.01 0.01 0.01 0.01 0.01 0.01 0.01 0.01 0.01 0.01 0.01 0.01 0.01 0.01 0.01 0.01 0.01 0.01 0.01 0.01 0.01 0.01 0.01 0 0.01c0.2,0.23 0.39,0.47 0.56,0.72 0.51,0.7 0.88,1.38 1.22,2.14 0.11,0.25 0.18,0.48 0.36,0.72 0.43,0.56 1.09,0.7 1.54,0.66 1.42,-0.11 1.65,-1.3 1.9,-2.29 0.24,-0.94 0.37,-1.84 0.43,-2.79 0.01,-0.09 0.02,-0.02 -0.01,-0.11l0.01 -0.15c0.04,-1.91 -0.16,-3.5 -0.85,-5.41 -0.65,-1.8 -1.95,-3.94 -3.62,-5.54l-0.41 -0.39 0 -0 0 -0.01 0.41 0.39c-0.06,-0.11 -0.31,-0.36 -0.44,-0.44 0.02,-0.09 0,-0.35 0.01,-0.44l0 -0.1 0 -0.1 0 -0.1 0 -0.1 0 -0.1 -0 -0.1 -0 -0.1 -0 -0.1 -0 -0.1 -0 -0.1 -0 -0.1 -0 -0.1 -0.01 -0.11 0 0 -0.01 -0.11 -0.01 -0.11 -0.01 -0.11 -0.01 -0.11 -0.01 -0.11 0 0 -0.01 -0.11 -0.01 -0.11 -0.01 -0.11 -0.01 -0.11 -0.01 -0.11 0 0 -0.01 -0.11 -0 0 -0.01 -0.11 -0.01 -0.11 -0.01 -0.11 -0 0 -0.01 -0.11 -0.01 -0.11 -0 0 -0.01 -0.11 -0.01 -0.11 -0.01 -0.11 -0 0 -0.01 -0.11 -0.02 -0.11 -0.02 -0.11 0 0 -0.02 -0.11 -0.02 -0.11 0 0 -0.02 -0.11 -0 0 -0.02 -0.11 -0.02 -0.11 -0.02 -0.11 -0.02 -0.11 -0.02 -0.11 -0.02 -0.11 -0.02 -0.11 -0.02 -0.11 -0.02 -0.11 -0.02 -0.11 -0.02 -0.11 -0 0 -0.02 -0.1 -0.02 -0.1 -0.02 -0.1 0 0 -0.02 -0.1 -0.02 -0.1 0 0 -0.02 -0.1 -0.02 -0.1 -0 0 -0.02 -0.1 -0.02 -0.1 -0 0 -0.02 -0.1 -0.02 -0.1 -0.02 -0.1 -0.02 -0.1 -0 0 -0.02 -0.09 -0.02 -0.09c-0.32,-1.22 -0.72,-2.37 -1.22,-3.58l-0.02 -0.04 -0.02 -0.04 -0.02 -0.04 -0.02 -0.04 -0.02 -0.04 -0.02 -0.04 -0.02 -0.04 -0.02 -0.04 -0.02 -0.04 -0.02 -0.04 -0.02 -0.04 -0.02 -0.04 -0.02 -0.04 -0.02 -0.04 -0.02 -0.04 -0.02 -0.04 -0.02 -0.04 0 0 -0.02 -0.04 -0.02 -0.04 -0.02 -0.04 -0.02 -0.04 -0.02 -0.04 -0.02 -0.04 -0.02 -0.04 0 0 -0.02 -0.04 0 0 -0.02 -0.04 -0.02 -0.04 -0.02 -0.04 -0.02 -0.04 0 0 -0.02 -0.04 -0.02 -0.04 -0.02 -0.04 0 -0 -0.02 -0.04 -0.02 -0.05 -0.02 -0.04 -0.02 -0.04 0 0 -0.02 -0.04 -0.02 -0.04 0 0 -0.02 -0.04 -0.02 -0.04 -0.02 -0.04 -0.02 -0.04 0 -0 -0.02 -0.04 -0.02 -0.04 -0.02 -0.04 -0.02 -0.04 -0.02 -0.04 -0.02 -0.04 -0.02 -0.04 0 0 -0.02 -0.04 0 -0 -0.02 -0.04 -0.02 -0.04 -0.02 -0.04 0 0 -0.02 -0.04 -0.02 -0.04 0 0 -0.02 -0.04 0 -0 -0.02 -0.04 -0.02 -0.04 -0.02 -0.04 -0.02 -0.04 -0.02 -0.04 -0.02 -0.04 -0.02 -0.04 -0.02 -0.04c-0.16,-0.29 -0.34,-0.64 -0.52,-0.9 -1.36,-2.14 -2.08,-3.21 -3.86,-5.18 -0.52,-0.57 -2.04,-2.15 -2.64,-2.52 -0.45,-0.28 -1.01,-0.44 -1.42,-0.45 -0.33,-0 -1.18,0.05 -1.4,0.27 -0.77,0.07 -3.59,3.47 -3.92,3.9 -0.54,0.68 -1.03,1.35 -1.5,2.05l-1.29 2.06c-0.08,0.09 -0.41,0.74 -0.49,0.9 -0.46,0.87 -0.87,1.83 -1.23,2.72 -0.39,0.95 -0.91,2.63 -1.13,3.62 -0.42,1.88 -0.68,3.48 -0.72,5.42l0 1.79 -0.22 0.21c-1.67,1.6 -2.97,3.74 -3.63,5.54 -0.69,1.91 -0.89,3.49 -0.85,5.41l0.01 0.15c-0.03,0.09 -0.02,0.02 -0.01,0.11 0.06,0.95 0.19,1.85 0.43,2.79 0.26,0.99 0.48,2.18 1.9,2.29 0.46,0.04 1.12,-0.1 1.54,-0.66 0.18,-0.23 0.25,-0.47 0.36,-0.72 0.34,-0.76 0.72,-1.44 1.22,-2.14 0.18,-0.24 0.36,-0.49 0.56,-0.72l0 -0.01 0 -0.01 0.01 -0.01 0.01 -0.01 0.01 -0.01 0.01 -0.01 0.01 -0.01 0.01 -0.01 0.01 -0.01 0.01 -0.01 0.01 -0.01 0.01 -0.01 0.01 -0.01 0.01 -0.01 0.01 -0.01 0.01 -0.01 0.01 -0.01 0.01 -0.01 0.01 -0.01 0.01 -0.01 0 0 0.01 -0.01 0.01 -0.01 0 -0 0.01 -0.01 0.01 -0.01 0.01 -0.01 0 0 0.01 -0.01 0.01 -0.01 0.01 -0.01 0.01 -0.01 0 -0 0.01 -0.01 0.01 -0.01 0 -0 0.01 -0.01 0.01 -0.01 0 -0 0.01 -0.01 0 0 0.01 -0.01 0 0 0.01 -0.01 0.01 -0.01 0.01 -0.01 0.01 -0.01 0.01 -0.01 0.01 -0.01 0.01 -0.01 0.01 -0.01 0 0 0.01 -0.01 0 0 0.01 -0.01 0 0 0.01 -0.01 0.01 -0.01 0 0 0.01 -0.01 0.01 -0.01 0 -0 0.01 -0.01 0.01 -0.01 0.01 -0.01 0.01 -0.01 0.01 -0.01 0.01 -0.01 0.01 -0.01 0.01 -0.01 0.01 -0.01 0 -0.01 0 -0.01 0 0 0 -0.01 0 -0 0 -0 0 -0 0.29 -0.25c0.06,-0.13 0.39,-0.39 0.55,-0.52 0.04,0.08 0.09,0.16 0.07,0.22 0.1,0.08 0.51,0.9 0.6,1.07 0.11,0.21 0.48,0.9 0.63,1.07 0.29,0.33 0.86,1.64 1.61,2.21 0.53,0.4 1.19,0.59 1.82,0.61 0.13,0 0.52,-0.03 0.62,0 -0.51,0.88 -0.76,2.56 -0.7,3.52 0.03,0.59 0.11,1.13 0.29,1.75 0.08,0.28 0.53,1.54 0.76,1.75 -0,0.22 0.99,1.46 1.23,1.73 0.38,0.42 1.3,1.35 1.8,1.55 0.32,0.13 0.65,0.13 0.94,0.07 0.39,-0.09 0.6,-0.29 0.92,-0.58 1.87,-1.69 3.12,-3.79 3.24,-6.11 0.04,-0.75 -0.08,-1.98 -0.35,-2.62 -0.04,-0.21 -0.32,-0.9 -0.45,-1.13 0.08,-0.03 0.48,-0.03 0.57,-0.02l0.03 0 0.03 0 0.03 0 0.03 0 0.03 -0 0.03 -0 0.03 -0 0.03 -0 0.03 -0 0.03 -0 0.03 -0 0.03 -0 0.03 -0 0.03 -0 0 0 0.03 -0 0.03 -0 0.03 -0 0.03 -0.01 0 -0 0.03 -0.01 0 -0 0.03 -0.01 0.03 -0.01 0.03 -0.01 0.03 -0.01 0.03 -0.01 0.03 -0.01 0.03 -0.01 0.03 -0.01 0.03 -0.01 0 0 0.03 -0.01 0 0 0.03 -0.01 0.03 -0.01 0 -0 0.03 -0.01 0 0 0.03 -0.01 0.03 -0.01 0.03 -0.01 0 0 0.03 -0.01 0.03 -0.01 0.03 -0.01 0.03 -0.01 0 -0 0.03 -0.01 0 0 0.03 -0.01 0 0 0.03 -0.01 0 -0 0.03 -0.01 0 0 0.03 -0.01 0.03 -0.01 0.03 -0.01 0 -0 0.03 -0.01 0 0 0.03 -0.01 0.03 -0.01 0.03 -0.01 0.03 -0.01 0.03 -0.01 0.03 -0.02 0 0 0.03 -0.02 0.03 -0.02 0.03 -0.02 0 0 0.02 -0.02 0.03 -0.02 0.02 -0.02 0.02 -0.02 0.02 -0.02 0 -0 0.02 -0.02 0.02 -0.02 0.02 -0.02c0.41,-0.31 0.67,-0.73 0.92,-1.12 0.12,-0.2 0.59,-1.02 0.7,-1.12 0.15,-0.35 0.41,-0.75 0.58,-1.09l0.55 -1.11 0.55 0.49 0.01 0.02 0.29 0.25zm-4.55 1.43l0 0 -0 0 0 -0zm-0.01 0l0 0 -0 0 0 -0zm-0 0l0 0 -0 0 0 -0zm-0.01 0l0 0 -0 0 0 -0z"/>
   <g>
    <g>
     <path class="fil2" d="M35.8 41.68c0.13,0.04 1.63,-0 1.9,-0l0.48 -0.01c0.09,-0 0.09,-0.02 0.14,0.05 0.15,-0.35 0.41,-0.75 0.58,-1.09l0.55 -1.11 0.56 0.5c-0.07,-0.14 -0.42,-0.41 -0.56,-0.53 0.1,-0.15 0.53,-1.16 0.61,-1.37 0.17,-0.46 0.35,-0.91 0.51,-1.37 0.82,-2.35 1.27,-4.71 1.43,-7.17 0.01,-0.19 0.02,-0.95 0.06,-1.06l0.41 0.39c-0.06,-0.11 -0.31,-0.36 -0.44,-0.44 0.02,-0.09 0,-0.35 0.01,-0.44 0.05,-2.05 -0.36,-4.75 -0.88,-6.73 -0.32,-1.22 -0.72,-2.37 -1.22,-3.58 -0.32,-0.79 -0.86,-1.91 -1.3,-2.69 -0.16,-0.29 -0.34,-0.64 -0.52,-0.9 -0.07,0.04 -0.49,0.02 -0.6,0.02 -0.21,-0 -0.4,0.01 -0.62,0.01 -0.21,0 -1.1,0.04 -1.21,-0 -0.05,0.02 -0.08,0.02 -0.12,0.04l-13.47 0.14c0,-0.01 -0.01,-0.07 -0.01,-0.08 -0.08,0.09 -0.4,0.74 -0.49,0.9 -0.46,0.87 -0.87,1.83 -1.23,2.72 -0.39,0.95 -0.92,2.63 -1.13,3.62 -0.42,1.88 -0.68,3.48 -0.72,5.42l0 1.8c-0.03,0.07 -0.27,0.2 -0.3,0.34l0.3 -0.29 0.11 1.37c0.05,0.94 0.48,3.25 0.72,4.11 0.13,0.45 0.25,0.9 0.39,1.36 0.14,0.46 0.3,0.92 0.47,1.37 0.36,0.95 0.61,1.51 1.03,2.4 0.05,0.1 0.16,0.25 0.13,0.33 0.09,0.08 0.51,0.9 0.6,1.07 0.11,0.21 0.48,0.9 0.63,1.07 0.12,-0.04 1.38,-0.03 1.62,-0.04l11.5 -0.12c0.01,-0 0.03,-0.01 0.03,-0.01 0.05,-0.02 0.01,-0 0.04,-0.02z"/>
     <path class="fil3" d="M27 51.69c-0,0.22 0.99,1.46 1.23,1.73 0.38,0.42 1.3,1.35 1.8,1.55 0.32,0.13 0.65,0.13 0.94,0.07 0.39,-0.09 0.6,-0.29 0.92,-0.58 1.87,-1.69 3.12,-3.79 3.24,-6.11 0.04,-0.75 -0.08,-1.98 -0.35,-2.62 -0.11,0.05 -1.28,0.04 -1.44,0.04 -0.1,0 -0.4,0.03 -0.46,-0.03l-0.03 0.03c0.13,0.39 -0.09,1.35 -0.27,1.78 -0.25,0.62 -0.68,1.23 -1.26,1.78 -0.34,0.32 -0.58,0.5 -0.96,0.41 -0.33,-0.08 -0.7,-0.47 -0.95,-0.73 -0.27,-0.28 -0.49,-0.57 -0.68,-0.88 -0.26,-0.42 -0.25,-0.52 -0.41,-0.87 -0.88,0.94 -1.31,1.69 -1.45,2.79 -0.03,0.21 -0.02,0.36 -0.02,0.54 -0,0.19 0.01,0.37 0.04,0.56 0.02,0.13 0.06,0.42 0.13,0.55l-0.03 0.01z"/>
     <path class="fil4" d="M32.86 45.75c-0.49,0.08 -0.96,-0.11 -2.27,0.23 -0.57,0.15 -1.2,0.46 -1.69,0.8 -0.2,0.15 -0.37,0.31 -0.57,0.45 0.16,0.35 0.16,0.45 0.41,0.87 0.19,0.31 0.41,0.6 0.68,0.88 0.25,0.26 0.62,0.65 0.95,0.73 0.38,0.09 0.62,-0.1 0.96,-0.41 0.58,-0.55 1.01,-1.16 1.26,-1.78 0.18,-0.43 0.39,-1.39 0.27,-1.78z"/>
     <path class="fil5" d="M21.47 33.67c-0.22,0.37 -0.17,0.53 -0.04,0.9 0.11,0.31 0.2,0.57 0.32,0.9 0.36,0.98 1.12,2.65 1.69,3.59 0.19,0.32 0.35,0.64 0.8,0.71 0.7,0.11 1.36,-0.51 0.9,-1.29 -0.17,-0.29 -0.35,-0.61 -0.5,-0.9 -0.39,-0.76 -0.74,-1.47 -1.04,-2.24l-0.48 -1.36c-0.12,-0.35 -0.3,-0.61 -0.73,-0.69 -0.28,-0.05 -0.71,0.03 -0.91,0.37z"/>
     <path class="fil6" d="M35.64 19.46c-0.11,-0.06 -0.19,-0.16 -0.29,-0.24 0.19,0.11 0.69,0.92 0.81,1.12 0.53,0.94 0.89,2.35 0.8,3.39 -0.01,0.17 -0.03,0.39 -0.06,0.57 -0.18,1.45 -0.97,2.92 -2.15,3.98 -1.96,1.76 -4.76,2.32 -7.32,1.57 -0.85,-0.25 -1.62,-0.65 -2.31,-1.18 -0.08,-0.06 -0.09,-0.06 -0.16,-0.06 0.91,0.81 1.53,1.2 2.58,1.62 0.79,0.31 1.9,0.49 2.55,0.47 0.11,-0 0.2,0 0.32,-0 0.42,-0.02 0.51,-0.02 0.95,-0.08 3.16,-0.41 5.74,-2.93 6.09,-5.86 0.04,-0.35 0.07,-0.84 0.04,-1.18 -0.11,-1.09 -0.31,-1.94 -0.93,-2.94 -0.16,-0.26 -0.66,-1 -0.93,-1.17z"/>
     <path class="fil7" d="M27 51.69l0.03 -0.01c-0.07,-0.13 -0.11,-0.42 -0.13,-0.55 -0.03,-0.19 -0.04,-0.37 -0.04,-0.56 0,-0.19 -0,-0.34 0.02,-0.54 0.15,-1.1 0.57,-1.86 1.45,-2.79 -0.02,-0.11 -0.11,-0.37 -0.15,-0.63 -0.08,-0.49 -0.04,-1.59 0.22,-1.97 -0.15,-0.02 -1.67,-0 -1.76,0.03 -0.51,0.88 -0.76,2.56 -0.7,3.52 0.03,0.59 0.11,1.13 0.29,1.75 0.08,0.28 0.53,1.54 0.76,1.75z"/>
     <path class="fil8" d="M28.33 47.24c0.19,-0.14 0.37,-0.31 0.57,-0.45 0.48,-0.35 1.12,-0.66 1.69,-0.8 1.31,-0.34 1.79,-0.15 2.27,-0.23l0.03 -0.03c-0.03,-0.05 -0.03,-0.19 -0.05,-0.27 -0.02,-0.1 -0.04,-0.19 -0.06,-0.3 -0.03,-0.14 -0.11,-0.47 -0.21,-0.57l-3.12 0.02c-0.07,0 -0.08,0.01 -0.14,0.01l-0.27 0c-0.14,-0 -0.53,-0.02 -0.63,0.01 -0.26,0.37 -0.3,1.48 -0.22,1.97 0.04,0.26 0.13,0.52 0.15,0.63z"/>
     <path class="fil5" d="M20.48 28.35c-0.19,0.31 -0.13,0.57 -0.09,0.96 0.03,0.32 0.05,0.63 0.09,0.97 0.11,0.95 1.25,1.05 1.67,0.41 0.19,-0.29 0.1,-0.65 0.07,-0.95 -0.08,-0.71 0.06,-1.59 -0.74,-1.77 -0.31,-0.07 -0.76,-0 -1,0.39z"/>
     <path class="fil7" d="M32.89 45.73c0.06,0.06 0.36,0.03 0.46,0.03 0.16,-0 1.32,0.01 1.44,-0.04 -0.03,-0.21 -0.32,-0.9 -0.45,-1.13 -0.14,-0.03 -0.3,-0.01 -0.42,-0.01 -0.15,0 -0.27,0 -0.42,0 -0.28,0 -0.58,0.02 -0.85,0.01l-0.07 0.01c0.11,0.09 0.18,0.43 0.21,0.57 0.03,0.11 0.04,0.19 0.06,0.3 0.01,0.07 0.01,0.22 0.05,0.27z"/>
     <path class="fil9" d="M24.96 28.6c0.07,0 0.07,0 0.16,0.06 0.7,0.53 1.46,0.93 2.31,1.18 2.56,0.75 5.36,0.19 7.32,-1.57 1.18,-1.06 1.97,-2.52 2.15,-3.98 0.02,-0.19 0.04,-0.41 0.06,-0.57 0.09,-1.03 -0.27,-2.45 -0.8,-3.39 -0.11,-0.2 -0.62,-1.01 -0.81,-1.12 0.1,0.08 0.18,0.19 0.29,0.24 -0.06,-0.21 -1.02,-0.9 -1.26,-1.05 -0.42,-0.27 -0.87,-0.49 -1.3,-0.67 -0.42,-0.17 -0.89,-0.3 -1.3,-0.38 -0.23,-0.05 -0.44,-0.08 -0.66,-0.1 -3.25,-0.36 -6.34,1.27 -7.62,4.14 -0.35,0.78 -0.56,1.75 -0.54,2.42 0,0.1 -0.01,0.19 -0,0.3 0.03,0.75 0.12,1.34 0.41,2.1 0.3,0.78 0.86,1.71 1.58,2.39z"/>
     <path class="fil10" d="M28.85 27.6c1.54,0.48 3.19,0.19 4.33,-0.83 0.69,-0.61 1.13,-1.47 1.22,-2.34 0.01,-0.11 0.02,-0.24 0.02,-0.34 0.04,-0.61 -0.2,-1.46 -0.53,-2.03 -0.49,-0.83 -1.22,-1.51 -2.65,-1.83 -0.14,-0.03 -0.26,-0.05 -0.39,-0.07 -1.94,-0.26 -3.75,0.67 -4.47,2.36 -0.2,0.46 -0.3,1.04 -0.28,1.43 0,0.06 -0,0.11 0,0.18 0.03,0.45 0.09,0.8 0.28,1.25 0.46,1.12 1.26,1.84 2.47,2.22z"/>
     <path class="fil11" d="M28.79 27.6c0.16,0.13 0.78,0.22 0.95,0.23 0.21,0.02 0.83,0.06 0.97,-0.02 0.11,-0.08 2.55,-3.83 3.02,-4.55 0.13,-0.21 0.32,-0.46 0.44,-0.67 0,-0.1 -0.24,-0.55 -0.33,-0.66 -0.16,-0.23 -0.71,-0.55 -0.95,-0.68l-4.17 6.31 0.08 0.03z"/>
     <path class="fil12" d="M27.68 27.06c0.32,0.24 0.59,0.37 0.96,0.51l0.15 0.04 -0.08 -0.03 4.17 -6.31c-0.26,-0.13 -0.92,-0.4 -1.15,-0.37 0.02,0.1 -0.16,0.28 -0.22,0.39 -0.61,0.94 -3.73,5.72 -3.83,5.78z"/>
     <path class="fil13" d="M27.29 26.74c-0,-0.12 -0.27,-0.46 -0.3,-0.64 -0.12,-0.2 -0.21,-0.6 -0.24,-0.81 -0.02,-0.13 -0.05,-0.26 -0.05,-0.41 0,-0.13 -0.02,-0.29 -0,-0.41 0.08,-0.6 0.14,-1.04 0.5,-1.63 0.56,-0.94 1.34,-1.51 2.39,-1.86 0.27,-0.09 0.55,-0.14 0.83,-0.17 0.01,-0 0.01,-0 0.02,-0l0.04 -0c0.19,-0.04 1.08,-0.03 1.27,0.08 0.23,-0.03 0.88,0.24 1.15,0.37 0.24,0.13 0.8,0.45 0.95,0.68 -0.02,-0.15 -0.46,-0.59 -0.59,-0.72 -1.45,-1.38 -3.88,-1.61 -5.59,-0.36 -1.52,1.11 -1.96,2.88 -1.38,4.4 0.15,0.39 0.6,1.17 1.02,1.49z"/>
     <path class="fil11" d="M26.99 26.11c0.03,0.18 0.3,0.52 0.3,0.64l0.4 0.31c0.1,-0.06 3.22,-4.84 3.83,-5.78 0.06,-0.1 0.24,-0.29 0.22,-0.39 -0.19,-0.1 -1.08,-0.11 -1.27,-0.08 -0.15,0.16 -2.36,3.58 -2.62,3.96 -0.14,0.21 -0.79,1.17 -0.86,1.33z"/>
     <path class="fil12" d="M26.99 26.11c0.07,-0.15 0.72,-1.12 0.86,-1.33 0.26,-0.39 2.47,-3.8 2.62,-3.96l-0.04 0c-0,0 -0.01,0 -0.02,0 -0.28,0.03 -0.56,0.08 -0.83,0.17 -1.05,0.35 -1.83,0.92 -2.39,1.86 -0.35,0.59 -0.41,1.03 -0.5,1.63 -0.02,0.12 0,0.28 0,0.41 -0,0.15 0.02,0.28 0.05,0.41 0.03,0.21 0.12,0.61 0.24,0.81z"/>
     <path class="fil12" d="M30.71 27.82c0.15,0.04 0.67,-0.1 0.87,-0.16 0.28,-0.08 0.59,-0.22 0.86,-0.38 1.13,-0.65 1.95,-1.88 2,-3.07 0.02,-0.4 -0,-1.15 -0.27,-1.62 -0.11,0.21 -0.3,0.47 -0.44,0.67 -0.47,0.72 -2.92,4.47 -3.02,4.55z"/>
     <path class="fil14" d="M25.68 20.21c-0.74,0.78 -1.13,1.6 -1.36,2.45 -0.04,0.14 -0.14,0.49 -0.06,0.61 0.14,0.24 0.5,0.19 0.57,-0.09 0.12,-0.51 0.13,-0.69 0.37,-1.22 1,-2.22 2.75,-2.28 2.39,-2.8 -0.18,-0.26 -0.43,-0.09 -0.65,0.04 -0.45,0.27 -0.89,0.62 -1.26,1.01z"/>
     <path class="fil14" d="M28.82 18.59c-0.05,0.14 0.01,0.35 0.24,0.37 0.1,0.01 0.71,-0.11 0.95,-0.1 0.61,0.03 0.53,-0.48 0.21,-0.56 -0.14,-0.03 -0.78,0.04 -0.95,0.07 -0.15,0.02 -0.37,0.03 -0.44,0.22z"/>
     <g>
      <path class="fil15" d="M35.69 14.16c0.11,0.04 1.01,0 1.21,0 0.21,-0 0.4,-0.01 0.62,-0.01 0.11,0 0.54,0.02 0.6,-0.02 -1.36,-2.14 -2.08,-3.21 -3.86,-5.18 -0.52,-0.57 -2.04,-2.15 -2.64,-2.52 -0.45,-0.28 -1.01,-0.44 -1.42,-0.45 -0.33,-0 -1.18,0.05 -1.4,0.27 -0.77,0.07 -3.59,3.47 -3.92,3.9 -0.54,0.68 -1.03,1.35 -1.5,2.05l-1.29 2.06c0,0.01 0.01,0.07 0.01,0.08l13.47 -0.14c0.04,-0.01 0.07,-0.02 0.12,-0.04z"/>
      <path class="fil16" d="M34.33 44.59c0.08,-0.03 0.48,-0.03 0.57,-0.02 0.56,0.03 1.31,-0.24 1.8,-0.61 0.41,-0.31 0.67,-0.73 0.92,-1.12 0.12,-0.2 0.59,-1.02 0.7,-1.12 -0.04,-0.06 -0.05,-0.05 -0.14,-0.05l-0.48 0.01c-0.27,0 -1.77,0.04 -1.9,0 -0.04,0.01 0.01,-0 -0.04,0.02 -0,0 -0.02,0.01 -0.03,0.01l-11.5 0.12c-0.24,0 -1.5,-0.01 -1.62,0.04 0.29,0.33 0.86,1.64 1.61,2.21 0.53,0.4 1.19,0.59 1.82,0.61 0.13,0 0.52,-0.03 0.62,0 0.09,-0.03 1.61,-0.05 1.76,-0.03 0.11,-0.03 0.49,-0.01 0.63,-0.01l0.27 -0c0.06,0 0.08,-0 0.14,-0.01l3.12 -0.02 0.07 -0.01c0.28,0.01 0.57,-0.01 0.85,-0.01 0.15,-0 0.28,-0 0.42,-0 0.12,-0 0.28,-0.02 0.42,0.01z"/>
      <g>
       <path class="fil17" d="M20.46 40.27c-0.02,0.07 -0.52,0.59 -0.62,0.7 -0.2,0.23 -0.39,0.47 -0.56,0.72 -0.51,0.7 -0.88,1.38 -1.22,2.14 -0.11,0.25 -0.18,0.48 -0.36,0.72 -0.43,0.56 -1.09,0.7 -1.54,0.66 -1.42,-0.11 -1.65,-1.3 -1.9,-2.29 -0.24,-0.94 -0.37,-1.84 -0.43,-2.79 -0.01,-0.09 -0.02,-0.02 0.01,-0.11l-0.01 -0.15c-0.04,-1.91 0.16,-3.5 0.85,-5.41 0.65,-1.8 1.95,-3.94 3.62,-5.54l0.41 -0.39c0.03,0.11 0.05,0.86 0.06,1.06 0.17,2.46 0.61,4.82 1.43,7.17 0.16,0.46 0.34,0.91 0.51,1.37 0.08,0.21 0.5,1.22 0.61,1.37 -0.14,0.13 -0.5,0.4 -0.56,0.53l-0.29 0.25z"/>
       <path class="fil18" d="M20.46 40.27c-0.02,0.07 -0.52,0.59 -0.62,0.7 -0.2,0.23 -0.39,0.47 -0.56,0.72 -0.51,0.7 -0.88,1.38 -1.22,2.14 -0.11,0.25 -0.18,0.48 -0.36,0.72 -0.43,0.56 -1.09,0.7 -1.54,0.66 -1.42,-0.11 -1.65,-1.3 -1.9,-2.29 -0.24,-0.94 -0.37,-1.84 -0.43,-2.79 -0.01,-0.09 -0.02,-0.02 0.01,-0.11l0.1 -0.69c0.03,-0.22 0.07,-0.43 0.13,-0.67 0.11,-0.44 0.27,-0.89 0.45,-1.34 0.2,-0.51 0.45,-0.93 1.03,-1.29 0.42,-0.26 0.99,-0.35 1.45,-0.32 0.46,0.03 1.03,0.21 1.45,0.59 0.52,0.47 0.6,0.84 0.79,1.35 0.16,0.44 0.35,0.92 0.53,1.35l0.6 1.33 0.08 -0.05z"/>
      </g>
      <g>
       <path class="fil19" d="M35.8 41.68c0.13,0.04 1.63,-0 1.9,-0l0.48 -0.01c0.09,-0 0.09,-0.02 0.14,0.05 0.15,-0.35 0.41,-0.75 0.58,-1.09l0.55 -1.11 0.56 0.5c-0.07,-0.14 -0.42,-0.41 -0.56,-0.53 0.1,-0.15 0.53,-1.16 0.61,-1.37 0.17,-0.46 0.35,-0.91 0.51,-1.37 0.82,-2.35 1.27,-4.71 1.43,-7.17 0.01,-0.19 0.02,-0.95 0.06,-1.06l0.41 0.39c-0.06,-0.11 -0.31,-0.36 -0.44,-0.44 0.02,-0.09 0,-0.35 0.01,-0.44 0.05,-2.05 -0.36,-4.75 -0.88,-6.73 -0.32,-1.22 -0.72,-2.37 -1.22,-3.58 -0.32,-0.79 -0.86,-1.91 -1.3,-2.69 -0.16,-0.29 -0.34,-0.64 -0.52,-0.9 -0.06,0.04 -0.49,0.02 -0.6,0.02 -0.21,-0 -0.4,0.01 -0.62,0.01 -0.21,0 -1.1,0.04 -1.21,-0 -0.05,0.02 -0.08,0.02 -0.12,0.04 0.09,0.03 0.05,-0 0.11,0.09 0.02,0.03 0.04,0.08 0.06,0.11 0.04,0.07 0.08,0.14 0.12,0.21 0.64,1.19 0.9,1.69 1.48,2.99 0.35,0.8 0.97,2.51 1.2,3.43 0.07,0.28 0.15,0.56 0.23,0.87 0.27,1.07 0.55,2.78 0.63,3.87l0.09 1.28c0.02,0.33 0.01,0.57 0.01,0.85l-0.02 1.3c0.01,0.25 -0.09,1.42 -0.13,1.72 -0.02,0.16 -0.03,0.27 -0.05,0.43l-0.2 1.3c-0.01,0.07 -0.01,0.14 -0.03,0.22 -0.01,0.07 -0.03,0.14 -0.05,0.21l-0.39 1.71c-0.22,0.93 -0.78,2.55 -1.16,3.46 -0.46,1.1 -1.02,2.35 -1.69,3.44z"/>
       <path class="fil20" d="M35.69 14.16c0.11,0.04 1.01,0 1.21,0 0.21,-0 0.4,-0.01 0.62,-0.01 0.11,0 0.54,0.02 0.6,-0.02 -1.36,-2.14 -2.08,-3.21 -3.86,-5.18 -0.52,-0.57 -2.04,-2.15 -2.64,-2.52 -0.45,-0.28 -1.01,-0.44 -1.42,-0.45 -0.33,-0 -1.18,0.05 -1.4,0.27 0.01,0.07 -0.08,-0.01 0.22,0.14 0.09,0.05 0.19,0.11 0.28,0.18 0.21,0.16 0.37,0.31 0.56,0.48 1.08,1 1.98,1.94 2.91,3.06 0.56,0.67 1.06,1.33 1.56,2.04 0.23,0.32 0.47,0.67 0.69,1.01 0.11,0.17 0.55,0.95 0.66,1.01z"/>
       <path class="fil20" d="M34.33 44.59c0.08,-0.03 0.48,-0.03 0.57,-0.02 0.56,0.03 1.31,-0.24 1.8,-0.61 0.41,-0.31 0.67,-0.73 0.92,-1.12 0.12,-0.2 0.59,-1.02 0.7,-1.12 -0.04,-0.06 -0.05,-0.05 -0.14,-0.05l-0.48 0.01c-0.27,0 -1.77,0.04 -1.9,0 -0.04,0.01 0.01,-0 -0.04,0.02 -0,0 -0.02,0.01 -0.03,0.01 -0.12,0.09 -0.47,0.74 -0.58,0.92 -0.56,0.91 -1.04,1.66 -2.3,1.9l-0.17 0.04c-0.04,0.02 -0.02,0.01 -0.03,0.02 0.28,0.01 0.57,-0.01 0.85,-0.01 0.15,-0 0.28,-0 0.42,-0 0.12,-0 0.28,-0.02 0.42,0.01z"/>
      </g>
      <g>
       <path class="fil17" d="M40.29 40.27c0.02,0.07 0.52,0.59 0.62,0.7 0.2,0.23 0.39,0.47 0.56,0.72 0.51,0.7 0.88,1.38 1.22,2.14 0.11,0.25 0.18,0.48 0.36,0.72 0.43,0.56 1.09,0.7 1.54,0.66 1.42,-0.11 1.65,-1.3 1.9,-2.29 0.24,-0.94 0.37,-1.84 0.43,-2.79 0.01,-0.09 0.02,-0.02 -0.01,-0.11l0.01 -0.15c0.04,-1.91 -0.16,-3.5 -0.85,-5.41 -0.65,-1.8 -1.95,-3.94 -3.63,-5.54l-0.41 -0.39c-0.03,0.11 -0.05,0.86 -0.06,1.06 -0.16,2.46 -0.61,4.82 -1.43,7.17 -0.16,0.46 -0.34,0.91 -0.51,1.37 -0.08,0.21 -0.5,1.22 -0.6,1.37 0.14,0.13 0.5,0.4 0.56,0.53l0.29 0.25z"/>
       <path class="fil18" d="M40.29 40.27c0.02,0.07 0.52,0.59 0.62,0.7 0.2,0.23 0.39,0.47 0.56,0.72 0.51,0.7 0.88,1.38 1.22,2.14 0.11,0.25 0.18,0.48 0.36,0.72 0.43,0.56 1.09,0.7 1.54,0.66 1.42,-0.11 1.65,-1.3 1.9,-2.29 0.24,-0.94 0.37,-1.84 0.43,-2.79 0.01,-0.09 0.02,-0.02 -0.01,-0.11l-0.11 -0.69c-0.03,-0.22 -0.07,-0.43 -0.13,-0.67 -0.11,-0.44 -0.27,-0.89 -0.45,-1.34 -0.2,-0.51 -0.45,-0.93 -1.03,-1.29 -0.42,-0.26 -0.99,-0.35 -1.45,-0.32 -0.46,0.03 -1.03,0.21 -1.45,0.59 -0.52,0.47 -0.6,0.84 -0.79,1.35 -0.16,0.44 -0.35,0.92 -0.53,1.35l-0.6 1.33 -0.08 -0.05z"/>
      </g>
     </g>
    </g>
   </g>
  </g>
 </g>
</svg>
