<?xml version="1.0" encoding="UTF-8"?>
<!DOCTYPE svg PUBLIC "-//W3C//DTD SVG 1.1//EN" "http://www.w3.org/Graphics/SVG/1.1/DTD/svg11.dtd">
<!-- Creator: CorelDRAW 2020 (64 Bit) -->
<svg xmlns="http://www.w3.org/2000/svg" xml:space="preserve" width="126.055mm" height="114.232mm" version="1.1" style="shape-rendering:geometricPrecision; text-rendering:geometricPrecision; image-rendering:optimizeQuality; fill-rule:evenodd; clip-rule:evenodd"
viewBox="0 0 13565.92 12293.6"
 xmlns:xlink="http://www.w3.org/1999/xlink"
 xmlns:xodm="http://www.corel.com/coreldraw/odm/2003">
 <defs>
  <style type="text/css">
   <![CDATA[
    .str0 {stroke:#9D98CA;stroke-width:56.95;stroke-miterlimit:22.9256}
    .fil2 {fill:none}
    .fil4 {fill:#FCBB55}
    .fil3 {fill:#E09836}
    .fil1 {fill:#716DB0}
    .fil0 {fill:#5C598A}
    .fil7 {fill:#FEFEFE;fill-rule:nonzero}
    .fil5 {fill:#E09836;fill-rule:nonzero}
    .fil6 {fill:#AFD3E4;fill-rule:nonzero}
   ]]>
  </style>
 </defs>
 <g id="Camada_x0020_1">
  <metadata id="CorelCorpID_0Corel-Layer"/>
  <path class="fil0" d="M520.1 1443.17l12525.7 0c286.07,0 520.11,227.74 520.11,506.05l0 9838.36c0,278.26 -234.09,506.01 -520.11,506.01l-12525.7 0c-286.03,0 -520.1,-227.71 -520.1,-506.01l0 -9838.36c0,-278.34 234.04,-506.05 520.1,-506.05z"/>
  <path class="fil1" d="M520.1 1103.7l12525.7 0c286.07,0 520.11,227.73 520.11,506.05l0 9838.36c0,278.25 -234.09,506 -520.11,506l-12525.7 0c-286.03,0 -520.1,-227.7 -520.1,-506l0 -9838.36c0,-278.35 234.04,-506.05 520.1,-506.05z"/>
  <path class="fil2 str0" d="M840.62 1381.35l11884.67 0c271.43,0 493.49,216.09 493.49,480.15l0 9334.86c0,264.01 -222.12,480.11 -493.49,480.11l-11884.67 0c-271.39,0 -493.49,-216.06 -493.49,-480.11l0 -9334.86c0,-264.1 222.06,-480.15 493.49,-480.15z"/>
  <g id="_1903220489216">
   <path class="fil3" d="M3229.09 185.75l7124.44 0c113.02,0 205.49,99.69 205.49,221.5l0 1397.94c0,121.81 -92.48,221.5 -205.49,221.5l-7124.44 0c-113.01,0 -205.49,-99.68 -205.49,-221.5l0 -1397.94c0,-121.84 92.47,-221.5 205.49,-221.5z"/>
   <path class="fil4" d="M3229.09 0l7124.44 0c113.02,0 205.49,99.68 205.49,221.5l0 1397.94c0,121.81 -92.48,221.5 -205.49,221.5l-7124.44 0c-113.01,0 -205.49,-99.68 -205.49,-221.5l0 -1397.94c0,-121.84 92.47,-221.5 205.49,-221.5z"/>
  </g>
  <path class="fil5" d="M4069.53 1384.11c-54.4,0 -104.76,-8.58 -151.05,-25.74 -46.31,-17.15 -86.46,-41.61 -120.46,-73.34 -34,-31.73 -60.4,-69.3 -79.18,-112.68 -18.78,-43.39 -28.16,-91.31 -28.16,-143.77 0,-52.46 9.38,-100.39 28.16,-143.77 18.78,-43.39 45.18,-80.95 79.18,-112.69 34,-31.74 74.15,-56.18 120.46,-73.34 46.3,-17.17 96.65,-25.74 151.05,-25.74 66.7,0 125.8,11.66 177.28,34.97 51.49,23.32 94.06,57 127.74,101.03l-144.75 129.2c-20.07,-25.26 -42.25,-44.84 -66.54,-58.77 -24.29,-13.93 -51.65,-20.89 -82.08,-20.89 -23.97,0 -45.66,3.89 -65.09,11.67 -19.43,7.77 -36.11,19.1 -50.02,34 -13.93,14.89 -24.77,32.87 -32.54,53.91 -7.77,21.05 -11.67,44.53 -11.67,70.44 0,25.9 3.9,49.38 11.67,70.43 7.77,21.04 18.62,39.01 32.54,53.91 13.92,14.89 30.6,26.24 50.02,34.01 19.43,7.77 41.12,11.66 65.09,11.66 30.43,0 57.79,-6.96 82.08,-20.89 24.29,-13.93 46.47,-33.51 66.54,-58.77l144.75 129.2c-33.68,43.39 -76.26,76.9 -127.74,100.55 -51.49,23.63 -110.58,35.45 -177.28,35.45z"/>
  <path id="1" class="fil5" d="M4783.51 1384.11c-55.69,0 -107.02,-8.74 -153.97,-26.23 -46.94,-17.49 -87.58,-42.25 -121.91,-74.31 -34.32,-32.06 -61.03,-69.78 -80.14,-113.17 -19.1,-43.39 -28.65,-90.66 -28.65,-141.82 0,-51.81 9.55,-99.25 28.65,-142.32 19.11,-43.07 45.82,-80.63 80.14,-112.69 34.33,-32.05 74.97,-56.82 121.91,-74.31 46.95,-17.49 97.95,-26.23 153,-26.23 55.69,0 106.86,8.74 153.49,26.23 46.62,17.49 87.1,42.26 121.43,74.31 34.32,32.06 61.03,69.62 80.13,112.69 19.11,43.07 28.66,90.51 28.66,142.32 0,51.16 -9.55,98.43 -28.66,141.82 -19.1,43.39 -45.81,81.11 -80.13,113.17 -34.33,32.06 -74.81,56.82 -121.43,74.31 -46.63,17.49 -97.47,26.23 -152.52,26.23zm-0.97 -185.54c21.37,0 41.28,-3.89 59.74,-11.66 18.46,-7.77 34.65,-18.95 48.57,-33.51 13.93,-14.57 24.77,-32.38 32.54,-53.43 7.77,-21.05 11.66,-44.84 11.66,-71.39 0,-26.56 -3.89,-50.36 -11.66,-71.41 -7.77,-21.05 -18.62,-38.85 -32.54,-53.42 -13.92,-14.57 -30.11,-25.74 -48.57,-33.51 -18.46,-7.78 -38.37,-11.67 -59.74,-11.67 -21.37,0 -41.28,3.89 -59.74,11.67 -18.46,7.77 -34.65,18.94 -48.57,33.51 -13.93,14.57 -24.77,32.37 -32.54,53.42 -7.77,21.05 -11.67,44.84 -11.67,71.41 0,26.55 3.9,50.34 11.67,71.39 7.77,21.05 18.62,38.86 32.54,53.43 13.92,14.56 30.11,25.74 48.57,33.51 18.46,7.77 38.37,11.66 59.74,11.66z"/>
  <polygon id="2" class="fil5" points="5249.79,1368.57 5249.79,688.58 5438.25,688.58 5710.24,1132.52 5611.16,1132.52 5875.38,688.58 6063.84,688.58 6065.78,1368.57 5856.93,1368.57 5854.99,1003.32 5888.01,1003.32 5707.33,1307.37 5606.3,1307.37 5417.85,1003.32 5458.65,1003.32 5458.65,1368.57 "/>
  <path id="3" class="fil5" d="M6102.7 1368.57l297.25 -679.99 225.37 0 297.25 679.99 -237.03 0 -219.53 -571.19 89.37 0 -219.54 571.19 -233.14 0zm176.8 -118.51l58.29 -165.14 312.8 0 58.29 165.14 -429.37 0z"/>
  <polygon id="4" class="fil5" points="6959.49,1368.57 6959.49,688.58 7147.94,688.58 7493.76,1102.41 7406.33,1102.41 7406.33,688.58 7629.76,688.58 7629.76,1368.57 7441.31,1368.57 7095.48,954.75 7182.91,954.75 7182.91,1368.57 "/>
  <path id="5" class="fil5" d="M7740.5 1368.57l0 -679.99 335.14 0c75.77,0 142.48,13.76 200.12,41.28 57.63,27.53 102.64,66.55 135.02,117.06 32.38,50.52 48.57,110.74 48.57,180.68 0,70.6 -16.19,131.31 -48.57,182.15 -32.38,50.84 -77.39,90.01 -135.02,117.54 -57.64,27.52 -124.34,41.28 -200.12,41.28l-335.14 0zm229.25 -178.74l96.17 0c32.38,0 60.72,-6.15 85.01,-18.46 24.28,-12.3 43.22,-30.6 56.82,-54.89 13.6,-24.28 20.4,-53.91 20.4,-88.88 0,-34.32 -6.8,-63.46 -20.4,-87.42 -13.6,-23.97 -32.54,-42.1 -56.82,-54.4 -24.29,-12.31 -52.63,-18.46 -85.01,-18.46l-96.17 0 0 322.5z"/>
  <path id="6" class="fil5" d="M8900.37 1384.11c-55.69,0 -107.02,-8.74 -153.97,-26.23 -46.94,-17.49 -87.58,-42.25 -121.91,-74.31 -34.32,-32.06 -61.03,-69.78 -80.14,-113.17 -19.1,-43.39 -28.65,-90.66 -28.65,-141.82 0,-51.81 9.55,-99.25 28.65,-142.32 19.11,-43.07 45.82,-80.63 80.14,-112.69 34.33,-32.05 74.97,-56.82 121.91,-74.31 46.95,-17.49 97.95,-26.23 153,-26.23 55.69,0 106.86,8.74 153.49,26.23 46.62,17.49 87.1,42.26 121.43,74.31 34.32,32.06 61.03,69.62 80.13,112.69 19.11,43.07 28.66,90.51 28.66,142.32 0,51.16 -9.55,98.43 -28.66,141.82 -19.1,43.39 -45.81,81.11 -80.13,113.17 -34.33,32.06 -74.81,56.82 -121.43,74.31 -46.63,17.49 -97.47,26.23 -152.52,26.23zm-0.97 -185.54c21.37,0 41.28,-3.89 59.74,-11.66 18.46,-7.77 34.65,-18.95 48.57,-33.51 13.93,-14.57 24.77,-32.38 32.54,-53.43 7.77,-21.05 11.66,-44.84 11.66,-71.39 0,-26.56 -3.89,-50.36 -11.66,-71.41 -7.77,-21.05 -18.62,-38.85 -32.54,-53.42 -13.92,-14.57 -30.11,-25.74 -48.57,-33.51 -18.46,-7.78 -38.37,-11.67 -59.74,-11.67 -21.37,0 -41.28,3.89 -59.74,11.67 -18.46,7.77 -34.65,18.94 -48.57,33.51 -13.93,14.57 -24.77,32.37 -32.54,53.42 -7.77,21.05 -11.67,44.84 -11.67,71.41 0,26.55 3.9,50.34 11.67,71.39 7.77,21.05 18.62,38.86 32.54,53.43 13.92,14.56 30.11,25.74 48.57,33.51 18.46,7.77 38.37,11.66 59.74,11.66z"/>
  <path id="7" class="fil5" d="M9620.19 1384.11c-57,0 -112.03,-6.48 -165.14,-19.43 -53.1,-12.96 -96.81,-29.79 -131.14,-50.52l73.83 -167.08c32.38,18.78 68.49,33.84 108.32,45.17 39.83,11.33 78.52,17 116.08,17 22.02,0 39.35,-1.46 51.98,-4.37 12.62,-2.92 21.86,-7.12 27.68,-12.63 5.83,-5.5 8.75,-12.14 8.75,-19.91 0,-12.31 -6.8,-22.02 -20.4,-29.14 -13.6,-7.12 -31.58,-13.12 -53.92,-17.97 -22.34,-4.85 -46.78,-10.04 -73.34,-15.54 -26.55,-5.51 -53.26,-12.8 -80.13,-21.86 -26.88,-9.07 -51.49,-21.05 -73.83,-35.94 -22.35,-14.89 -40.31,-34.48 -53.92,-58.77 -13.6,-24.29 -20.4,-54.56 -20.4,-90.83 0,-42.09 11.83,-80.47 35.46,-115.11 23.63,-34.64 58.93,-62.33 105.89,-83.06 46.95,-20.72 105.39,-31.08 175.33,-31.08 45.99,0 91.31,4.85 136,14.57 44.69,9.72 84.84,24.61 120.46,44.68l-68.97 166.11c-33.67,-16.83 -66.22,-29.47 -97.62,-37.88 -31.41,-8.42 -62.01,-12.63 -91.8,-12.63 -22.02,0 -39.51,1.95 -52.45,5.83 -12.96,3.89 -22.18,9.07 -27.69,15.54 -5.5,6.48 -8.25,13.6 -8.25,21.37 0,11.66 6.8,20.89 20.39,27.69 13.6,6.79 31.58,12.46 53.92,16.99 22.34,4.53 46.95,9.4 73.83,14.57 26.87,5.19 53.59,12.31 80.14,21.37 26.55,9.06 51,21.05 73.34,35.94 22.34,14.89 40.31,34.32 53.91,58.29 13.6,23.96 20.4,53.75 20.4,89.37 0,41.44 -11.82,79.5 -35.46,114.14 -23.63,34.64 -58.77,62.49 -105.39,83.54 -46.63,21.04 -105.24,31.56 -175.83,31.56z"/>
  <path class="fil6" d="M4069.53 1286.31c-54.4,0 -104.76,-8.58 -151.05,-25.74 -46.31,-17.15 -86.46,-41.61 -120.46,-73.34 -34,-31.73 -60.4,-69.3 -79.18,-112.68 -18.78,-43.39 -28.16,-91.31 -28.16,-143.77 0,-52.46 9.38,-100.39 28.16,-143.77 18.78,-43.39 45.18,-80.95 79.18,-112.69 34,-31.74 74.15,-56.18 120.46,-73.34 46.3,-17.17 96.65,-25.74 151.05,-25.74 66.7,0 125.8,11.66 177.28,34.97 51.49,23.32 94.06,57 127.74,101.03l-144.75 129.2c-20.07,-25.26 -42.25,-44.84 -66.54,-58.77 -24.29,-13.93 -51.65,-20.89 -82.08,-20.89 -23.97,0 -45.66,3.89 -65.09,11.67 -19.43,7.77 -36.11,19.1 -50.02,34 -13.93,14.89 -24.77,32.87 -32.54,53.91 -7.77,21.05 -11.67,44.53 -11.67,70.44 0,25.9 3.9,49.38 11.67,70.43 7.77,21.04 18.62,39.01 32.54,53.91 13.92,14.89 30.6,26.24 50.02,34.01 19.43,7.77 41.12,11.66 65.09,11.66 30.43,0 57.79,-6.96 82.08,-20.89 24.29,-13.93 46.47,-33.51 66.54,-58.77l144.75 129.2c-33.68,43.39 -76.26,76.9 -127.74,100.55 -51.49,23.63 -110.58,35.45 -177.28,35.45z"/>
  <path id="1" class="fil6" d="M4783.51 1286.31c-55.69,0 -107.02,-8.74 -153.97,-26.23 -46.94,-17.49 -87.58,-42.25 -121.91,-74.31 -34.32,-32.06 -61.03,-69.78 -80.14,-113.17 -19.1,-43.39 -28.65,-90.66 -28.65,-141.82 0,-51.81 9.55,-99.25 28.65,-142.32 19.11,-43.07 45.82,-80.63 80.14,-112.69 34.33,-32.05 74.97,-56.82 121.91,-74.31 46.95,-17.49 97.95,-26.23 153,-26.23 55.69,0 106.86,8.74 153.49,26.23 46.62,17.49 87.1,42.26 121.43,74.31 34.32,32.06 61.03,69.62 80.13,112.69 19.11,43.07 28.66,90.51 28.66,142.32 0,51.16 -9.55,98.43 -28.66,141.82 -19.1,43.39 -45.81,81.11 -80.13,113.17 -34.33,32.06 -74.81,56.82 -121.43,74.31 -46.63,17.49 -97.47,26.23 -152.52,26.23zm-0.97 -185.54c21.37,0 41.28,-3.89 59.74,-11.66 18.46,-7.77 34.65,-18.95 48.57,-33.51 13.93,-14.57 24.77,-32.38 32.54,-53.43 7.77,-21.05 11.66,-44.84 11.66,-71.39 0,-26.56 -3.89,-50.36 -11.66,-71.41 -7.77,-21.05 -18.62,-38.85 -32.54,-53.42 -13.92,-14.57 -30.11,-25.74 -48.57,-33.51 -18.46,-7.78 -38.37,-11.67 -59.74,-11.67 -21.37,0 -41.28,3.89 -59.74,11.67 -18.46,7.77 -34.65,18.94 -48.57,33.51 -13.93,14.57 -24.77,32.37 -32.54,53.42 -7.77,21.05 -11.67,44.84 -11.67,71.41 0,26.55 3.9,50.34 11.67,71.39 7.77,21.05 18.62,38.86 32.54,53.43 13.92,14.56 30.11,25.74 48.57,33.51 18.46,7.77 38.37,11.66 59.74,11.66z"/>
  <polygon id="2" class="fil6" points="5249.79,1270.77 5249.79,590.78 5438.25,590.78 5710.24,1034.72 5611.16,1034.72 5875.38,590.78 6063.84,590.78 6065.78,1270.77 5856.93,1270.77 5854.99,905.52 5888.01,905.52 5707.33,1209.56 5606.3,1209.56 5417.85,905.52 5458.65,905.52 5458.65,1270.77 "/>
  <path id="3" class="fil6" d="M6102.7 1270.77l297.25 -679.99 225.37 0 297.25 679.99 -237.03 0 -219.53 -571.19 89.37 0 -219.54 571.19 -233.14 0zm176.8 -118.51l58.29 -165.14 312.8 0 58.29 165.14 -429.37 0z"/>
  <polygon id="4" class="fil6" points="6959.49,1270.77 6959.49,590.78 7147.94,590.78 7493.76,1004.6 7406.33,1004.6 7406.33,590.78 7629.76,590.78 7629.76,1270.77 7441.31,1270.77 7095.48,856.95 7182.91,856.95 7182.91,1270.77 "/>
  <path id="5" class="fil6" d="M7740.5 1270.77l0 -679.99 335.14 0c75.77,0 142.48,13.76 200.12,41.28 57.63,27.53 102.64,66.55 135.02,117.06 32.38,50.52 48.57,110.74 48.57,180.68 0,70.6 -16.19,131.31 -48.57,182.15 -32.38,50.84 -77.39,90.01 -135.02,117.54 -57.64,27.52 -124.34,41.28 -200.12,41.28l-335.14 0zm229.25 -178.74l96.17 0c32.38,0 60.72,-6.15 85.01,-18.46 24.28,-12.3 43.22,-30.6 56.82,-54.89 13.6,-24.28 20.4,-53.91 20.4,-88.88 0,-34.32 -6.8,-63.46 -20.4,-87.42 -13.6,-23.97 -32.54,-42.1 -56.82,-54.4 -24.29,-12.31 -52.63,-18.46 -85.01,-18.46l-96.17 0 0 322.5z"/>
  <path id="6" class="fil6" d="M8900.37 1286.31c-55.69,0 -107.02,-8.74 -153.97,-26.23 -46.94,-17.49 -87.58,-42.25 -121.91,-74.31 -34.32,-32.06 -61.03,-69.78 -80.14,-113.17 -19.1,-43.39 -28.65,-90.66 -28.65,-141.82 0,-51.81 9.55,-99.25 28.65,-142.32 19.11,-43.07 45.82,-80.63 80.14,-112.69 34.33,-32.05 74.97,-56.82 121.91,-74.31 46.95,-17.49 97.95,-26.23 153,-26.23 55.69,0 106.86,8.74 153.49,26.23 46.62,17.49 87.1,42.26 121.43,74.31 34.32,32.06 61.03,69.62 80.13,112.69 19.11,43.07 28.66,90.51 28.66,142.32 0,51.16 -9.55,98.43 -28.66,141.82 -19.1,43.39 -45.81,81.11 -80.13,113.17 -34.33,32.06 -74.81,56.82 -121.43,74.31 -46.63,17.49 -97.47,26.23 -152.52,26.23zm-0.97 -185.54c21.37,0 41.28,-3.89 59.74,-11.66 18.46,-7.77 34.65,-18.95 48.57,-33.51 13.93,-14.57 24.77,-32.38 32.54,-53.43 7.77,-21.05 11.66,-44.84 11.66,-71.39 0,-26.56 -3.89,-50.36 -11.66,-71.41 -7.77,-21.05 -18.62,-38.85 -32.54,-53.42 -13.92,-14.57 -30.11,-25.74 -48.57,-33.51 -18.46,-7.78 -38.37,-11.67 -59.74,-11.67 -21.37,0 -41.28,3.89 -59.74,11.67 -18.46,7.77 -34.65,18.94 -48.57,33.51 -13.93,14.57 -24.77,32.37 -32.54,53.42 -7.77,21.05 -11.67,44.84 -11.67,71.41 0,26.55 3.9,50.34 11.67,71.39 7.77,21.05 18.62,38.86 32.54,53.43 13.92,14.56 30.11,25.74 48.57,33.51 18.46,7.77 38.37,11.66 59.74,11.66z"/>
  <path id="7" class="fil6" d="M9620.19 1286.31c-57,0 -112.03,-6.48 -165.14,-19.43 -53.1,-12.96 -96.81,-29.79 -131.14,-50.52l73.83 -167.08c32.38,18.78 68.49,33.84 108.32,45.17 39.83,11.33 78.52,17 116.08,17 22.02,0 39.35,-1.46 51.98,-4.37 12.62,-2.92 21.86,-7.12 27.68,-12.63 5.83,-5.5 8.75,-12.14 8.75,-19.91 0,-12.31 -6.8,-22.02 -20.4,-29.14 -13.6,-7.12 -31.58,-13.12 -53.92,-17.97 -22.34,-4.85 -46.78,-10.04 -73.34,-15.54 -26.55,-5.51 -53.26,-12.8 -80.13,-21.86 -26.88,-9.07 -51.49,-21.05 -73.83,-35.94 -22.35,-14.89 -40.31,-34.48 -53.92,-58.77 -13.6,-24.29 -20.4,-54.56 -20.4,-90.83 0,-42.09 11.83,-80.47 35.46,-115.11 23.63,-34.64 58.93,-62.33 105.89,-83.06 46.95,-20.72 105.39,-31.08 175.33,-31.08 45.99,0 91.31,4.85 136,14.57 44.69,9.72 84.84,24.61 120.46,44.68l-68.97 166.11c-33.67,-16.83 -66.22,-29.47 -97.62,-37.88 -31.41,-8.42 -62.01,-12.63 -91.8,-12.63 -22.02,0 -39.51,1.95 -52.45,5.83 -12.96,3.89 -22.18,9.07 -27.69,15.54 -5.5,6.48 -8.25,13.6 -8.25,21.37 0,11.66 6.8,20.89 20.39,27.69 13.6,6.79 31.58,12.46 53.92,16.99 22.34,4.53 46.95,9.4 73.83,14.57 26.87,5.19 53.59,12.31 80.14,21.37 26.55,9.06 51,21.05 73.34,35.94 22.34,14.89 40.31,34.32 53.91,58.29 13.6,23.96 20.4,53.75 20.4,89.37 0,41.44 -11.82,79.5 -35.46,114.14 -23.63,34.64 -58.77,62.49 -105.39,83.54 -46.63,21.04 -105.24,31.56 -175.83,31.56z"/>
  <path class="fil7" d="M4069.53 1208.07c-54.4,0 -104.76,-8.58 -151.05,-25.74 -46.31,-17.15 -86.46,-41.61 -120.46,-73.34 -34,-31.73 -60.4,-69.3 -79.18,-112.68 -18.78,-43.39 -28.16,-91.31 -28.16,-143.77 0,-52.46 9.38,-100.39 28.16,-143.77 18.78,-43.39 45.18,-80.95 79.18,-112.69 34,-31.74 74.15,-56.18 120.46,-73.34 46.3,-17.17 96.65,-25.74 151.05,-25.74 66.7,0 125.8,11.66 177.28,34.97 51.49,23.32 94.06,57 127.74,101.03l-144.75 129.2c-20.07,-25.26 -42.25,-44.84 -66.54,-58.77 -24.29,-13.93 -51.65,-20.89 -82.08,-20.89 -23.97,0 -45.66,3.89 -65.09,11.67 -19.43,7.77 -36.11,19.1 -50.02,34 -13.93,14.89 -24.77,32.87 -32.54,53.91 -7.77,21.05 -11.67,44.53 -11.67,70.44 0,25.9 3.9,49.38 11.67,70.43 7.77,21.04 18.62,39.01 32.54,53.91 13.92,14.89 30.6,26.24 50.02,34.01 19.43,7.77 41.12,11.66 65.09,11.66 30.43,0 57.79,-6.96 82.08,-20.89 24.29,-13.93 46.47,-33.51 66.54,-58.77l144.75 129.2c-33.68,43.39 -76.26,76.9 -127.74,100.55 -51.49,23.63 -110.58,35.45 -177.28,35.45z"/>
  <path id="1" class="fil7" d="M4783.51 1208.07c-55.69,0 -107.02,-8.74 -153.97,-26.23 -46.94,-17.49 -87.58,-42.25 -121.91,-74.31 -34.32,-32.06 -61.03,-69.78 -80.14,-113.17 -19.1,-43.39 -28.65,-90.66 -28.65,-141.82 0,-51.81 9.55,-99.25 28.65,-142.32 19.11,-43.07 45.82,-80.63 80.14,-112.69 34.33,-32.05 74.97,-56.82 121.91,-74.31 46.95,-17.49 97.95,-26.23 153,-26.23 55.69,0 106.86,8.74 153.49,26.23 46.62,17.49 87.1,42.26 121.43,74.31 34.32,32.06 61.03,69.62 80.13,112.69 19.11,43.07 28.66,90.51 28.66,142.32 0,51.16 -9.55,98.43 -28.66,141.82 -19.1,43.39 -45.81,81.11 -80.13,113.17 -34.33,32.06 -74.81,56.82 -121.43,74.31 -46.63,17.49 -97.47,26.23 -152.52,26.23zm-0.97 -185.54c21.37,0 41.28,-3.89 59.74,-11.66 18.46,-7.77 34.65,-18.95 48.57,-33.51 13.93,-14.57 24.77,-32.38 32.54,-53.43 7.77,-21.05 11.66,-44.84 11.66,-71.39 0,-26.56 -3.89,-50.36 -11.66,-71.41 -7.77,-21.05 -18.62,-38.85 -32.54,-53.42 -13.92,-14.57 -30.11,-25.74 -48.57,-33.51 -18.46,-7.78 -38.37,-11.67 -59.74,-11.67 -21.37,0 -41.28,3.89 -59.74,11.67 -18.46,7.77 -34.65,18.94 -48.57,33.51 -13.93,14.57 -24.77,32.37 -32.54,53.42 -7.77,21.05 -11.67,44.84 -11.67,71.41 0,26.55 3.9,50.34 11.67,71.39 7.77,21.05 18.62,38.86 32.54,53.43 13.92,14.56 30.11,25.74 48.57,33.51 18.46,7.77 38.37,11.66 59.74,11.66z"/>
  <polygon id="2" class="fil7" points="5249.79,1192.53 5249.79,512.54 5438.25,512.54 5710.24,956.48 5611.16,956.48 5875.38,512.54 6063.84,512.54 6065.78,1192.53 5856.93,1192.53 5854.99,827.28 5888.01,827.28 5707.33,1131.33 5606.3,1131.33 5417.85,827.28 5458.65,827.28 5458.65,1192.53 "/>
  <path id="3" class="fil7" d="M6102.7 1192.53l297.25 -679.99 225.37 0 297.25 679.99 -237.03 0 -219.53 -571.19 89.37 0 -219.54 571.19 -233.14 0zm176.8 -118.51l58.29 -165.14 312.8 0 58.29 165.14 -429.37 0z"/>
  <polygon id="4" class="fil7" points="6959.49,1192.53 6959.49,512.54 7147.94,512.54 7493.76,926.36 7406.33,926.36 7406.33,512.54 7629.76,512.54 7629.76,1192.53 7441.31,1192.53 7095.48,778.71 7182.91,778.71 7182.91,1192.53 "/>
  <path id="5" class="fil7" d="M7740.5 1192.53l0 -679.99 335.14 0c75.77,0 142.48,13.76 200.12,41.28 57.63,27.53 102.64,66.55 135.02,117.06 32.38,50.52 48.57,110.74 48.57,180.68 0,70.6 -16.19,131.31 -48.57,182.15 -32.38,50.84 -77.39,90.01 -135.02,117.54 -57.64,27.52 -124.34,41.28 -200.12,41.28l-335.14 0zm229.25 -178.74l96.17 0c32.38,0 60.72,-6.15 85.01,-18.46 24.28,-12.3 43.22,-30.6 56.82,-54.89 13.6,-24.28 20.4,-53.91 20.4,-88.88 0,-34.32 -6.8,-63.46 -20.4,-87.42 -13.6,-23.97 -32.54,-42.1 -56.82,-54.4 -24.29,-12.31 -52.63,-18.46 -85.01,-18.46l-96.17 0 0 322.5z"/>
  <path id="6" class="fil7" d="M8900.37 1208.07c-55.69,0 -107.02,-8.74 -153.97,-26.23 -46.94,-17.49 -87.58,-42.25 -121.91,-74.31 -34.32,-32.06 -61.03,-69.78 -80.14,-113.17 -19.1,-43.39 -28.65,-90.66 -28.65,-141.82 0,-51.81 9.55,-99.25 28.65,-142.32 19.11,-43.07 45.82,-80.63 80.14,-112.69 34.33,-32.05 74.97,-56.82 121.91,-74.31 46.95,-17.49 97.95,-26.23 153,-26.23 55.69,0 106.86,8.74 153.49,26.23 46.62,17.49 87.1,42.26 121.43,74.31 34.32,32.06 61.03,69.62 80.13,112.69 19.11,43.07 28.66,90.51 28.66,142.32 0,51.16 -9.55,98.43 -28.66,141.82 -19.1,43.39 -45.81,81.11 -80.13,113.17 -34.33,32.06 -74.81,56.82 -121.43,74.31 -46.63,17.49 -97.47,26.23 -152.52,26.23zm-0.97 -185.54c21.37,0 41.28,-3.89 59.74,-11.66 18.46,-7.77 34.65,-18.95 48.57,-33.51 13.93,-14.57 24.77,-32.38 32.54,-53.43 7.77,-21.05 11.66,-44.84 11.66,-71.39 0,-26.56 -3.89,-50.36 -11.66,-71.41 -7.77,-21.05 -18.62,-38.85 -32.54,-53.42 -13.92,-14.57 -30.11,-25.74 -48.57,-33.51 -18.46,-7.78 -38.37,-11.67 -59.74,-11.67 -21.37,0 -41.28,3.89 -59.74,11.67 -18.46,7.77 -34.65,18.94 -48.57,33.51 -13.93,14.57 -24.77,32.37 -32.54,53.42 -7.77,21.05 -11.67,44.84 -11.67,71.41 0,26.55 3.9,50.34 11.67,71.39 7.77,21.05 18.62,38.86 32.54,53.43 13.92,14.56 30.11,25.74 48.57,33.51 18.46,7.77 38.37,11.66 59.74,11.66z"/>
  <path id="7" class="fil7" d="M9620.19 1208.07c-57,0 -112.03,-6.48 -165.14,-19.43 -53.1,-12.96 -96.81,-29.79 -131.14,-50.52l73.83 -167.08c32.38,18.78 68.49,33.84 108.32,45.17 39.83,11.33 78.52,17 116.08,17 22.02,0 39.35,-1.46 51.98,-4.37 12.62,-2.92 21.86,-7.12 27.68,-12.63 5.83,-5.5 8.75,-12.14 8.75,-19.91 0,-12.31 -6.8,-22.02 -20.4,-29.14 -13.6,-7.12 -31.58,-13.12 -53.92,-17.97 -22.34,-4.85 -46.78,-10.04 -73.34,-15.54 -26.55,-5.51 -53.26,-12.8 -80.13,-21.86 -26.88,-9.07 -51.49,-21.05 -73.83,-35.94 -22.35,-14.89 -40.31,-34.48 -53.92,-58.77 -13.6,-24.29 -20.4,-54.56 -20.4,-90.83 0,-42.09 11.83,-80.47 35.46,-115.11 23.63,-34.64 58.93,-62.33 105.89,-83.06 46.95,-20.72 105.39,-31.08 175.33,-31.08 45.99,0 91.31,4.85 136,14.57 44.69,9.72 84.84,24.61 120.46,44.68l-68.97 166.11c-33.67,-16.83 -66.22,-29.47 -97.62,-37.88 -31.41,-8.42 -62.01,-12.63 -91.8,-12.63 -22.02,0 -39.51,1.95 -52.45,5.83 -12.96,3.89 -22.18,9.07 -27.69,15.54 -5.5,6.48 -8.25,13.6 -8.25,21.37 0,11.66 6.8,20.89 20.39,27.69 13.6,6.79 31.58,12.46 53.92,16.99 22.34,4.53 46.95,9.4 73.83,14.57 26.87,5.19 53.59,12.31 80.14,21.37 26.55,9.06 51,21.05 73.34,35.94 22.34,14.89 40.31,34.32 53.91,58.29 13.6,23.96 20.4,53.75 20.4,89.37 0,41.44 -11.82,79.5 -35.46,114.14 -23.63,34.64 -58.77,62.49 -105.39,83.54 -46.63,21.04 -105.24,31.56 -175.83,31.56z"/>
 </g>
</svg>
