<?xml version="1.0" encoding="UTF-8"?>
<!DOCTYPE svg PUBLIC "-//W3C//DTD SVG 1.1//EN" "http://www.w3.org/Graphics/SVG/1.1/DTD/svg11.dtd">
<!-- Creator: CorelDRAW 2020 (64 Bit) -->
<svg xmlns="http://www.w3.org/2000/svg" xml:space="preserve" width="141.279mm" height="41.2201mm" version="1.1" style="shape-rendering:geometricPrecision; text-rendering:geometricPrecision; image-rendering:optimizeQuality; fill-rule:evenodd; clip-rule:evenodd"
viewBox="0 0 14785.05 4313.74"
 xmlns:xlink="http://www.w3.org/1999/xlink"
 xmlns:xodm="http://www.corel.com/coreldraw/odm/2003">
 <defs>
  <style type="text/css">
   <![CDATA[
    .fil1 {fill:#FEFEFE}
    .fil0 {fill:#3C3A74}
    .fil6 {fill:#696B6D;fill-rule:nonzero}
    .fil5 {fill:#E67EAB;fill-rule:nonzero}
    .fil3 {fill:#8C7FBA;fill-rule:nonzero}
    .fil2 {fill:#5D9AD2;fill-rule:nonzero}
    .fil4 {fill:#3C3A74;fill-rule:nonzero}
   ]]>
  </style>
 </defs>
 <g id="Camada_x0020_1">
  <metadata id="CorelCorpID_0Corel-Layer"/>
  <g id="_2951435797344">
   <g>
    <rect class="fil0" x="30.82" y="231.15" width="14754.23" height="4082.59" rx="529.12" ry="479.04"/>
    <rect class="fil1" x="-0" y="0" width="14785.02" height="3978.72" rx="317.09" ry="279.2"/>
   </g>
   <g>
    <path class="fil2" d="M1251.37 2825.97l0 -1723.24 745.91 0c154.28,0 287.21,25.02 398.81,75.09 111.6,50.05 197.77,121.86 258.49,215.4 60.73,93.55 91.09,205.15 91.09,334.8 0,128.01 -30.36,238.79 -91.09,332.34 -60.72,93.55 -146.89,165.35 -258.49,215.4 -111.6,50.05 -244.53,75.08 -398.81,75.08l-524.36 0 177.25 -179.71 0 654.83 -398.81 0zm398.81 -610.53l-177.25 -189.55 502.2 0c123.09,0 215,-26.26 275.71,-78.77 60.73,-52.52 91.09,-125.55 91.09,-219.1 0,-95.19 -30.36,-169.04 -91.09,-221.56 -60.72,-52.52 -152.62,-78.78 -275.71,-78.78l-502.2 0 177.25 -189.55 0 977.32z"/>
    <path class="fil3" d="M2920.68 2825.97l0 -1723.24 745.91 0c154.28,0 287.21,25.02 398.81,75.09 111.6,50.05 197.77,121.86 258.49,215.4 60.73,93.55 91.09,205.15 91.09,334.8 0,128.01 -30.36,238.37 -91.09,331.11 -60.72,92.73 -146.89,163.71 -258.49,212.94 -111.6,49.24 -244.53,73.85 -398.81,73.85l-524.36 0 177.25 -174.79 0 654.83 -398.81 0zm1095.49 0l-430.82 -625.29 425.89 0 435.74 625.29 -430.81 0zm-696.68 -610.53l-177.25 -187.09 502.2 0c123.09,0 215,-26.68 275.71,-80.02 60.73,-53.33 91.09,-126.77 91.09,-220.32 0,-95.19 -30.36,-169.04 -91.09,-221.56 -60.72,-52.52 -152.62,-78.78 -275.71,-78.78l-502.2 0 177.25 -189.55 0 977.32z"/>
    <g>
     <path class="fil4" d="M7243.16 3341.06c-120.32,0 -236.92,-16.9 -349.83,-50.68 -112.9,-33.79 -204.79,-82 -275.66,-144.64l113.72 -182.95c60.99,52.74 135.98,94.36 224.98,124.86 89.01,30.48 182.14,45.73 279.38,45.73 154.93,0 268.65,-36.26 341.17,-108.79 72.52,-72.51 108.79,-182.94 108.79,-331.28l0 -276.9 24.72 -259.6 -12.36 -262.07 0 -358.48 224.98 0 0 1132.33c0,230.75 -57.68,400.51 -173.06,509.3 -115.37,108.77 -284.32,163.17 -506.83,163.17zm-29.66 -548.85c-126.92,0 -240.23,-26.79 -339.95,-80.35 -99.71,-53.57 -178.83,-128.16 -237.34,-223.74 -58.51,-95.6 -87.77,-206.03 -87.77,-331.29 0,-126.91 29.26,-237.75 87.77,-332.52 58.51,-94.77 137.63,-168.53 237.34,-221.27 99.72,-52.74 213.03,-79.12 339.95,-79.12 112.07,0 214.26,22.67 306.57,67.99 92.29,45.32 166.05,114.96 221.26,208.91 55.22,93.95 82.83,212.62 82.83,356.01 0,141.75 -27.61,259.6 -82.83,353.54 -55.21,93.95 -128.97,164.41 -221.26,211.39 -92.3,46.97 -194.49,70.46 -306.57,70.46zm27.19 -207.68c87.35,0 164.83,-18.13 232.4,-54.39 67.57,-36.26 120.74,-86.54 159.47,-150.81 38.73,-64.28 58.09,-138.45 58.09,-222.51 0,-84.06 -19.36,-158.22 -58.09,-222.51 -38.73,-64.28 -91.89,-114.13 -159.47,-149.57 -67.57,-35.45 -145.05,-53.16 -232.4,-53.16 -87.35,0 -165.23,17.72 -233.63,53.16 -68.4,35.43 -121.96,85.29 -160.7,149.57 -38.73,64.29 -58.09,138.45 -58.09,222.51 0,84.06 19.36,158.23 58.09,222.51 38.74,64.28 92.3,114.55 160.7,150.81 68.4,36.26 146.28,54.39 233.63,54.39z"/>
     <path class="fil4" d="M9014.48 2846.59l0 -276.9 -12.36 -51.92 0 -472.22c0,-100.54 -29.26,-178.42 -87.77,-233.63 -58.51,-55.21 -146.27,-82.82 -263.3,-82.82 -77.46,0 -153.28,12.78 -227.45,38.32 -74.17,25.55 -136.8,59.75 -187.89,102.6l-98.9 -178c67.57,-54.4 148.75,-96.02 243.52,-124.86 94.77,-28.84 194.08,-43.26 297.91,-43.26 179.65,0 318.11,43.68 415.35,131.03 97.24,87.35 145.86,220.86 145.86,400.51l0 791.14 -224.98 0zm-430.18 14.83c-97.24,0 -182.54,-16.47 -255.88,-49.44 -73.35,-32.97 -129.8,-78.71 -169.36,-137.22 -39.56,-58.51 -59.34,-124.85 -59.34,-199.02 0,-70.88 16.89,-135.16 50.68,-192.84 33.79,-57.69 89.01,-103.85 165.64,-138.45 76.65,-34.61 180.07,-51.92 310.28,-51.92l415.35 0 0 170.59 -405.46 0c-118.67,0 -198.61,19.78 -239.82,59.33 -41.2,39.56 -61.81,87.36 -61.81,143.4 0,64.28 25.55,115.79 76.65,154.52 51.09,38.73 121.96,58.09 212.62,58.09 89,0 166.88,-19.77 233.63,-59.33 66.75,-39.56 114.96,-97.25 144.63,-173.06l46.97 163.17c-31.31,77.46 -86.53,138.86 -165.64,184.19 -79.12,45.32 -178.83,67.98 -299.15,67.98z"/>
     <path class="fil4" d="M11144.29 1523.9c105.49,0 198.61,20.61 279.38,61.81 80.76,41.2 143.8,103.84 189.13,187.9 45.32,84.06 67.99,190.36 67.99,318.92l0 754.05 -237.34 0 0 -726.86c0,-126.92 -29.67,-222.51 -89.01,-286.8 -59.34,-64.28 -142.57,-96.42 -249.71,-96.42 -79.11,0 -148.33,16.48 -207.67,49.45 -59.34,32.97 -105.07,81.59 -137.22,145.86 -32.14,64.28 -48.2,144.22 -48.2,239.82l0 674.94 -237.35 0 0 -726.86c0,-126.92 -29.25,-222.51 -87.76,-286.8 -58.51,-64.28 -142.16,-96.42 -250.94,-96.42 -77.46,0 -145.86,16.48 -205.2,49.45 -59.34,32.97 -105.49,81.59 -138.45,145.86 -32.97,64.28 -49.45,144.22 -49.45,239.82l0 674.94 -237.34 0 0 -1310.33 227.45 0 0 348.59 -37.08 -89c41.2,-85.71 104.66,-152.47 190.37,-200.26 85.7,-47.79 185.42,-71.7 299.15,-71.7 125.27,0 233.23,30.9 323.87,92.71 90.65,61.81 149.99,155.34 178,280.61l-96.42 -39.56c39.56,-100.54 108.77,-181.31 207.67,-242.29 98.9,-60.98 214.27,-91.48 346.12,-91.48z"/>
     <path class="fil4" d="M11943.99 2846.59l0 -1310.33 237.34 0 0 1310.33 -237.34 0zm118.67 -1562.51c-46.15,0 -84.47,-14.83 -114.97,-44.5 -30.48,-29.67 -45.73,-65.93 -45.73,-108.79 0,-44.5 15.25,-81.59 45.73,-111.25 30.5,-29.66 68.82,-44.5 114.97,-44.5 46.15,0 84.46,14.42 114.96,43.26 30.5,28.84 45.74,64.7 45.74,107.55 0,44.5 -14.84,81.99 -44.51,112.49 -29.67,30.5 -68.4,45.73 -116.19,45.73z"/>
     <polygon class="fil4" points="12269.01,2846.59 12832.7,2114.78 12830.23,2235.93 12293.74,1536.26 12558.28,1536.26 12968.68,2075.23 12867.31,2075.23 13277.72,1536.26 13537.31,1536.26 12993.41,2240.87 12995.88,2114.78 13564.51,2846.59 13295.02,2846.59 12862.37,2273.02 12958.79,2287.85 12533.55,2846.59 "/>
    </g>
    <path class="fil5" d="M5425.87 2841.97c-483.43,0 -876.7,-393.27 -876.7,-876.62 0,-483.36 393.27,-876.6 876.7,-876.6 483.32,0 876.62,393.24 876.62,876.6 0,483.35 -393.3,876.62 -876.62,876.62zm0 -1310.53c-239.33,0 -433.98,194.7 -433.98,433.91 0,239.25 194.65,433.91 433.98,433.91 239.16,0 433.83,-194.65 433.83,-433.91 0,-239.2 -194.67,-433.91 -433.83,-433.91z"/>
    <path class="fil6" d="M5730.64 1965.35c0,168.33 -136.49,304.8 -304.78,304.8 -168.39,0 -304.82,-136.47 -304.82,-304.8 0,-168.33 136.42,-304.78 304.82,-304.78 168.29,0 304.78,136.44 304.78,304.78z"/>
   </g>
  </g>
 </g>
</svg>
