<?xml version="1.0" encoding="UTF-8"?>
<!DOCTYPE svg PUBLIC "-//W3C//DTD SVG 1.1//EN" "http://www.w3.org/Graphics/SVG/1.1/DTD/svg11.dtd">
<!-- Creator: CorelDRAW 2020 (64 Bit) -->
<svg xmlns="http://www.w3.org/2000/svg" xml:space="preserve" width="8.6605mm" height="8.2979mm" version="1.1" style="shape-rendering:geometricPrecision; text-rendering:geometricPrecision; image-rendering:optimizeQuality; fill-rule:evenodd; clip-rule:evenodd"
viewBox="0 0 81.47 78.05"
 xmlns:xlink="http://www.w3.org/1999/xlink"
 xmlns:xodm="http://www.corel.com/coreldraw/odm/2003">
 <defs>
  <style type="text/css">
   <![CDATA[
    .fil0 {fill:#FFD878}
   ]]>
  </style>
 </defs>
 <g id="Camada_x0020_1">
  <metadata id="CorelCorpID_0Corel-Layer"/>
  <path class="fil0" d="M35.91 2.83c2.66,-4.35 8.5,-3.27 9.76,0.43 -0.17,-0.06 8.95,15.69 8.95,15.67 1.76,2.01 2.09,2.06 3.73,2.47 0.23,0.02 18.58,4.25 18.65,4.3 4.96,1.18 5.73,7.07 2.61,9.42 0,-0.18 -12.16,13.36 -12.14,13.35 -1.37,2.3 -1.31,2.62 -1.19,4.31 0.05,0.22 1.7,18.98 1.67,19.07 0.41,5.09 -4.95,7.64 -8.15,5.39 0.17,-0.05 -16.46,-7.44 -16.45,-7.42 -2.61,-0.59 -2.9,-0.44 -4.46,0.19 -0.2,0.11 -17.53,7.48 -17.62,7.48 -4.71,1.96 -8.79,-2.35 -7.64,-6.09 0.1,0.15 1.98,-17.96 1.97,-17.94 -0.24,-2.66 -0.48,-2.89 -1.57,-4.19 -0.17,-0.15 -12.53,-14.36 -12.56,-14.44 -3.32,-3.87 -0.48,-9.09 3.43,-9.15 -0.11,0.14 17.69,-3.66 17.67,-3.67 2.46,-1.05 2.6,-1.35 3.5,-2.78 0.09,-0.21 9.78,-16.36 9.86,-16.41z"/>
 </g>
</svg>
