<?xml version="1.0" encoding="UTF-8"?>
<!DOCTYPE svg PUBLIC "-//W3C//DTD SVG 1.1//EN" "http://www.w3.org/Graphics/SVG/1.1/DTD/svg11.dtd">
<!-- Creator: CorelDRAW 2020 (64 Bit) -->
<svg xmlns="http://www.w3.org/2000/svg" xml:space="preserve" width="12.9492mm" height="13.2595mm" version="1.1" style="shape-rendering:geometricPrecision; text-rendering:geometricPrecision; image-rendering:optimizeQuality; fill-rule:evenodd; clip-rule:evenodd"
viewBox="0 0 90.25 92.42"
 xmlns:xlink="http://www.w3.org/1999/xlink"
 xmlns:xodm="http://www.corel.com/coreldraw/odm/2003">
 <defs>
  <style type="text/css">
   <![CDATA[
    .fil1 {fill:#FEFEFE}
    .fil2 {fill:#FFD878}
    .fil0 {fill:#373435;fill-opacity:0.400000}
   ]]>
  </style>
 </defs>
 <g id="Camada_x0020_1">
  <metadata id="CorelCorpID_0Corel-Layer"/>
  <g id="_2717962395952">
   <g>
    <g>
     <path class="fil0" d="M41.1 11.24c2.87,-4.7 9.17,-3.52 10.54,0.47 -0.18,-0.06 9.66,16.94 9.66,16.91 1.9,2.17 2.25,2.22 4.02,2.66 0.24,0.02 20.05,4.58 20.12,4.64 5.35,1.28 6.19,7.63 2.81,10.16 0,-0.19 -13.12,14.42 -13.1,14.41 -1.47,2.48 -1.41,2.83 -1.29,4.65 0.05,0.24 1.83,20.48 1.8,20.57 0.44,5.49 -5.35,8.24 -8.8,5.81 0.19,-0.06 -17.77,-8.03 -17.75,-8.01 -2.81,-0.64 -3.12,-0.47 -4.82,0.21 -0.21,0.12 -18.91,8.07 -19.01,8.07 -5.08,2.11 -9.49,-2.54 -8.25,-6.57 0.11,0.16 2.14,-19.38 2.13,-19.36 -0.26,-2.87 -0.52,-3.12 -1.69,-4.52 -0.18,-0.16 -13.52,-15.49 -13.55,-15.59 -3.58,-4.18 -0.52,-9.81 3.7,-9.88 -0.12,0.16 19.09,-3.95 19.07,-3.96 2.65,-1.14 2.8,-1.46 3.77,-3 0.1,-0.22 10.56,-17.65 10.64,-17.7z"/>
    </g>
   </g>
   <g>
    <rect class="fil1" transform="matrix(-0.863246 -0.541279 0.122782 -0.195815 30.8702 29.8852)" width="3.8" height="18.43" rx="1.9" ry="1.9"/>
    <g>
     <path class="fil2" d="M38.45 3.71c3,-4.85 8.15,-4.95 10.64,-0.26 -0.18,-0.06 9.66,16.94 9.65,16.91 1.76,2.27 2.35,2.53 4.02,2.66 0.24,0.03 19.32,4.71 19.4,4.77 5.54,1.36 7.23,6.22 3.54,10.04 0,-0.19 -13.12,14.42 -13.1,14.41 -1.62,2.38 -1.68,3.02 -1.29,4.65 0.05,0.24 1.5,19.83 1.46,19.92 0.42,5.68 -3.69,8.8 -8.46,6.47 0.19,-0.06 -17.77,-8.03 -17.75,-8.01 -2.76,-0.8 -3.39,-0.66 -4.82,0.21 -0.21,0.12 -18.4,7.55 -18.5,7.55 -5.28,2.16 -9.5,-0.79 -8.76,-6.05 0.11,0.16 2.14,-19.38 2.13,-19.36 -0.09,-2.87 -0.42,-3.43 -1.69,-4.52 -0.18,-0.16 -12.87,-15.17 -12.9,-15.26 -3.68,-4.35 -2.19,-9.28 3.04,-10.2 -0.12,0.16 19.09,-3.95 19.07,-3.96 2.71,-0.97 3.13,-1.45 3.77,-3 0.1,-0.22 10.45,-16.93 10.53,-16.98z"/>
     <rect class="fil1" transform="matrix(-0.863246 -0.541279 0.541279 -0.863246 33.3103 25.5956)" width="3.8" height="18.43" rx="1.9" ry="1.9"/>
     <rect class="fil1" transform="matrix(-0.447251 0.915502 -0.207669 -0.101453 65.2093 27.0577)" width="3.8" height="18.43" rx="1.9" ry="1.9"/>
     <rect class="fil1" transform="matrix(-0.221609 0.907327 -0.907327 -0.221609 84.4871 30.7646)" width="3.8" height="18.43" rx="1.9" ry="1.9"/>
     <rect class="fil1" transform="matrix(-1.01359 -0.103948 0.0235791 -0.22992 7.70188 34.4072)" width="3.8" height="18.43" rx="1.9" ry="1.9"/>
     <rect class="fil1" transform="matrix(-0.447251 0.915502 -0.207669 -0.101453 22.3008 77.2261)" width="3.8" height="18.43" rx="1.9" ry="1.9"/>
     <rect class="fil1" transform="matrix(-0.195934 -0.999894 0.999894 -0.195934 10.4554 32.985)" width="3.8" height="18.43" rx="1.9" ry="1.9"/>
     <rect class="fil1" transform="matrix(-0.447251 0.915502 -0.207669 -0.101453 46.6715 3.42142)" width="3.8" height="18.43" rx="1.9" ry="1.9"/>
     <rect class="fil1" transform="matrix(-0.927105 -0.113261 0.113261 -0.927105 21.8493 74.0958)" width="3.8" height="18.43" rx="1.9" ry="1.9"/>
    </g>
   </g>
  </g>
 </g>
</svg>
